{"glyphs":{"0":{"ha":1270,"x_min":7,"x_max":1379,"o":"m 1106 1162 l 1106 1148 l 1093 1148 l 1093 1141 q 1114 1135 1100 1141 q 1127 1148 1116 1148 l 1134 1148 q 1359 923 1359 1048 q 1379 848 1373 923 q 1243 431 1338 571 q 1031 144 1120 237 q 956 76 1013 144 q 649 -157 702 -157 q 253 -279 428 -279 q 27 -157 79 -279 q 7 -26 7 -105 l 7 28 q 130 479 68 378 l 130 458 l 123 445 l 130 445 q 157 506 145 445 q 150 533 157 522 q 171 561 161 561 l 171 547 l 178 547 q 294 711 294 707 l 294 718 q 171 561 260 692 l 171 574 q 328 779 219 663 q 341 766 330 766 q 458 875 341 827 q 758 1080 546 985 q 867 1135 758 1102 l 867 1121 l 854 1121 l 854 1114 l 915 1114 l 936 1128 l 949 1121 q 1106 1162 1090 1162 m 471 650 l 465 650 l 465 663 q 410 568 410 629 l 403 568 l 389 574 q 267 328 336 500 l 273 315 q 218 130 248 315 q 349 -54 218 -54 q 403 -61 376 -54 q 547 -13 448 -54 l 547 -6 l 532 14 q 614 158 532 73 l 621 158 l 621 151 q 553 28 553 63 l 587 28 q 956 315 743 115 q 1154 622 1154 524 l 1147 622 q 1188 806 1188 736 q 1093 950 1188 950 q 1010 964 1093 962 q 696 861 896 964 q 471 650 475 705 m 314 752 l 300 732 l 300 724 l 314 724 q 321 752 314 740 l 314 752 m 465 650 l 465 629 l 451 629 l 451 636 q 465 650 453 650 m 130 499 l 143 499 l 143 492 q 130 479 143 479 l 130 499 m 171 321 q 205 397 186 321 q 171 321 171 373 m 260 397 q 245 342 245 353 q 273 397 257 342 l 260 397 m 1093 288 l 1093 281 l 1099 281 q 1134 328 1099 293 l 1134 335 l 1127 335 q 1093 288 1093 305 m 225 315 q 212 254 212 258 l 212 233 l 218 233 q 239 308 218 256 l 225 315 m 901 233 q 881 205 901 218 l 874 205 l 874 199 l 888 199 q 915 219 888 216 l 915 233 l 901 233 m 171 103 l 171 62 l 178 62 l 178 103 l 171 103 m 874 62 l 874 55 l 881 55 q 901 76 891 55 l 901 83 l 895 83 q 874 62 885 83 m 505 -102 l 505 -109 l 512 -109 q 642 -41 642 -61 l 642 -33 q 505 -102 591 -68 m 225 -68 l 225 -75 q 287 -109 253 -109 l 300 -109 q 225 -68 299 -99 m 34 -75 l 34 -102 l 41 -136 l 54 -136 l 54 -129 q 41 -75 41 -85 l 34 -75 m 369 -81 l 376 -95 q 444 -81 392 -88 l 444 -75 l 437 -75 l 369 -81 m 82 -150 l 82 -163 q 109 -204 98 -204 l 123 -204 q 82 -150 116 -182 m 205 -211 l 205 -218 q 321 -232 273 -232 q 376 -211 337 -232 l 382 -224 q 444 -211 414 -211 l 444 -204 q 376 -191 427 -204 q 205 -211 291 -204 m 109 -218 q 130 -239 109 -228 l 130 -232 q 116 -218 130 -218 l 109 -218 z "},"1":{"ha":749,"x_min":-212,"x_max":864,"o":"m 864 1162 l 864 1149 q 763 992 785 1063 l 770 992 l 820 1036 l 826 1036 l 826 1023 q 311 344 494 661 q 65 -39 217 213 q -60 -216 -19 -141 q -111 -285 -96 -278 q -123 -272 -123 -285 q -98 -197 -98 -226 q -130 -184 -130 -197 l -123 -172 q -155 -165 -144 -172 q -199 -216 -191 -216 q -212 -203 -212 -216 l -212 -197 q -123 -39 -143 -103 q 109 313 -48 52 l 373 684 q 392 715 392 705 l 399 715 l 399 703 l 405 703 q 707 1061 627 991 q 751 1086 715 1061 l 757 1086 q 650 960 681 998 l 656 929 q 474 696 608 890 l 474 684 q 726 1004 677 930 q 720 1023 720 1017 l 726 1023 l 738 1017 q 770 1086 738 1043 l 757 1086 q 851 1149 789 1149 q 864 1162 853 1162 m 675 1080 l 675 1067 q 512 866 585 945 l 512 872 q 675 1080 614 1020 m 505 860 l 505 854 q 474 816 484 816 l 474 822 q 505 860 483 848 m 436 785 l 449 785 l 449 778 q 424 747 437 749 l 424 759 q 436 785 436 774 m 424 747 l 424 728 q 405 722 417 728 l 405 728 q 424 747 405 736 m 367 665 l 361 652 l 380 652 q 367 665 380 665 m 348 570 l 348 564 q 417 659 417 631 q 348 570 412 659 m 273 476 l 273 464 q 298 489 283 464 l 298 495 q 273 476 282 476 m -73 -159 l -73 -165 q -60 -153 -60 -165 l -60 -146 q -73 -159 -73 -149 z "},"2":{"ha":981,"x_min":-422,"x_max":1031,"o":"m 777 1163 l 802 1163 l 917 1125 q 993 959 993 1125 q 1000 921 1000 959 l 1025 966 q 1031 946 1031 953 q 917 723 990 783 q 566 410 585 410 q 222 136 535 410 l -8 -29 l -14 -29 l -14 -23 q 5 -10 -14 -10 l 5 3 l -1 3 q -65 -68 -35 -9 q -110 -106 -110 -100 q -97 -113 -97 -106 q 94 -106 31 -106 l 209 -106 q 553 -113 333 -106 q 629 -138 616 -138 l 674 -138 q 929 -151 779 -138 l 929 -163 q 777 -157 924 -163 q 745 -170 755 -170 l 751 -157 l 732 -157 l 745 -176 l 738 -176 l 719 -163 q 706 -176 719 -176 l 668 -170 l 668 -182 q 853 -214 850 -191 q 840 -227 853 -227 l 751 -227 q 674 -265 696 -265 q 649 -246 649 -252 q 330 -278 649 -278 l 273 -278 q -416 -246 -416 -271 q -372 -233 -401 -233 l -372 -220 q -422 -195 -422 -220 q -199 -4 -382 -117 q -72 92 -186 19 q 330 398 -69 100 l 330 404 l 323 404 q 56 232 88 232 q 693 704 442 498 q 827 914 820 854 q 745 998 817 998 q 451 844 608 969 l 445 844 l 445 850 q 629 978 527 933 l 629 991 q 317 768 566 991 l 311 768 l 311 774 q 400 869 311 781 l 387 869 q 279 800 325 822 q 266 812 279 812 q 183 755 199 755 l 177 768 q 222 812 177 772 l 222 825 l 215 825 l 158 781 l 151 781 l 138 787 q 496 1080 377 1048 q 777 1163 524 1112 m 738 1137 l 751 1137 l 808 1144 l 808 1150 q 795 1157 795 1150 q 738 1137 738 1149 m 827 1118 l 827 1112 l 865 1112 l 865 1118 l 827 1118 m 872 1112 l 872 1105 l 949 1074 l 949 1080 q 878 1112 918 1112 l 872 1112 m 846 1010 q 897 966 846 1005 l 897 991 q 846 1010 893 1010 m 878 838 q 859 787 859 795 l 872 787 q 897 831 872 800 l 897 838 l 878 838 m 323 359 l 330 359 q 751 723 458 439 l 745 723 l 323 359 m 541 487 q 432 391 433 401 l 438 391 q 559 481 550 481 l 559 487 l 541 487 m -168 -23 l -161 -23 l 119 162 l 119 175 q -168 -23 -71 61 m 24 16 l 31 16 q 75 54 75 42 l 68 54 q 24 16 24 27 m -155 -106 l -149 -106 q -104 -74 -117 -106 l -110 -74 q -155 -106 -155 -96 m 260 -125 l 260 -132 l 336 -132 l 336 -125 q 317 -119 330 -125 q 260 -125 294 -125 m -149 -132 l -155 -144 l 11 -144 q 37 -138 26 -144 q 56 -144 49 -144 q 234 -138 200 -138 q 254 -132 247 -132 l 254 -125 l 87 -125 q -149 -132 14 -125 m -359 -233 l -359 -240 l -333 -240 l -333 -233 l -359 -233 z "},"3":{"ha":1122,"x_min":-194,"x_max":1262,"o":"m 1046 1158 q 1262 1146 1192 1146 l 1262 1128 q 1238 1115 1238 1128 l 1238 1090 q 1262 1078 1262 1090 l 1262 1072 l 1244 1072 q 1238 1078 1238 1072 q 1188 1066 1200 1066 q 1200 1053 1190 1053 l 1232 1053 l 1232 1041 l 1219 1041 l 1188 1047 q 1003 911 1173 1014 q 559 597 941 862 l 559 591 l 571 591 q 732 609 703 609 q 886 585 886 603 l 886 578 l 873 585 l 867 585 q 979 412 979 469 l 979 406 q 707 60 979 275 q 220 -193 291 -193 q -58 -279 198 -215 l -71 -279 q -83 -267 -83 -279 q 189 -162 -75 -256 q 423 -57 192 -153 q 491 -14 455 -25 l 491 -8 l 479 -8 q -52 -224 258 -132 q -132 -242 -65 -224 q -194 -212 -132 -229 l -194 -205 l -182 -199 l -132 -199 q 269 -45 -64 -195 l 269 -39 l 244 -39 q 201 -57 222 -57 q 522 103 208 -43 q 774 300 601 139 q 793 362 793 340 l 793 374 q 726 430 793 422 l 688 430 q 435 381 613 430 l 435 393 q 491 418 491 401 l 485 418 q 182 319 349 387 l 176 319 l 164 338 q 195 362 195 354 q 189 368 189 362 q 121 362 170 362 q 133 399 133 382 q 121 412 133 412 q 71 399 115 412 q 127 449 72 410 q 262 547 127 472 q 898 1004 640 844 l 905 1017 q 800 1010 832 1010 l 750 1010 q 281 998 658 1010 q 35 1010 208 998 l 35 1023 q 77 1029 59 1029 l 77 1035 l 47 1066 l 71 1078 q 145 1066 114 1066 l 300 1066 l 361 1072 l 361 1078 q 324 1084 324 1078 l 294 1078 l 127 1078 q 16 1103 16 1088 q 77 1128 16 1112 q 207 1146 77 1146 l 269 1146 q 294 1152 283 1146 q 312 1146 305 1146 q 435 1152 404 1152 q 473 1146 468 1146 q 479 1152 479 1146 l 509 1146 l 553 1152 q 559 1146 559 1152 l 590 1152 l 652 1152 q 849 1146 753 1152 q 1046 1158 986 1158 m 467 1078 l 467 1072 l 503 1072 l 503 1078 l 467 1078 m 509 1053 l 509 1047 l 614 1047 q 768 1053 667 1047 l 768 1066 l 762 1066 q 732 1059 742 1066 q 707 1066 718 1059 l 509 1053 m 886 1053 l 886 1047 l 905 1047 q 991 1059 937 1047 l 991 1066 l 985 1066 q 886 1053 964 1066 m 824 911 l 830 911 q 991 1017 948 977 l 979 1017 q 824 911 841 936 m 602 739 l 614 739 q 652 764 639 764 l 652 776 q 602 739 610 759 m 269 505 l 269 498 q 590 732 572 706 l 583 732 q 269 505 444 642 m 559 621 l 565 621 q 577 634 577 621 l 571 634 q 559 621 559 632 m 479 535 l 491 535 q 756 585 671 585 l 756 591 l 682 591 q 479 535 479 562 m 793 511 l 793 498 q 861 461 810 498 l 861 467 q 793 511 834 511 m 158 418 l 164 418 q 226 461 210 430 l 226 467 l 220 467 q 158 418 203 463 m 374 424 l 374 418 l 380 418 l 485 449 l 485 455 l 479 455 q 374 424 404 430 m 824 443 q 861 412 824 435 l 861 418 q 836 443 861 427 l 824 443 m 380 23 q 281 -26 378 13 l 281 -33 l 288 -33 q 398 17 305 -33 l 398 23 l 380 23 m 195 -57 q 139 -82 195 -71 q 195 -57 139 -66 m 139 -82 q 90 -113 139 -90 l 71 -113 q 139 -82 71 -98 z "},"4":{"ha":1250,"x_min":-69,"x_max":1400,"o":"m 1262 1163 q 1218 1075 1262 1130 l 1218 1063 l 1225 1063 q 1319 1138 1260 1097 l 1325 1138 q 1337 1125 1337 1136 q 1294 1038 1315 1125 q 917 535 917 564 q 923 529 923 535 q 929 535 929 529 q 948 529 948 535 q 1074 535 1033 535 l 1287 535 q 1381 529 1319 535 l 1381 516 l 1362 516 q 1269 522 1331 516 l 1262 510 q 1362 472 1324 497 q 1388 479 1374 479 l 1400 479 l 1400 460 q 1388 466 1388 460 q 1231 447 1293 460 l 1086 447 l 1055 441 l 1055 435 l 1187 435 q 1212 428 1201 435 q 1218 435 1218 428 q 1275 416 1275 428 l 1262 410 l 1212 410 q 1168 397 1168 408 l 1093 403 l 942 403 l 904 397 q 873 403 894 403 l 867 403 q 753 328 784 403 q 395 -150 649 198 q 289 -243 374 -150 l 264 -243 l 264 -237 q 295 -156 295 -168 l 195 -281 l 189 -281 q 176 -269 176 -281 q 189 -237 189 -248 q 176 -225 176 -237 l 176 -212 q 597 359 309 -4 l 615 391 q 603 397 603 391 l 547 391 q 56 353 56 391 q 25 340 36 340 q -19 385 25 385 q -44 378 -30 378 q -69 403 -54 378 q -6 454 -6 416 q 1262 1163 1056 1134 m 1005 956 l 1011 956 q 1067 975 1063 975 l 1067 981 l 1061 981 q 1005 956 1005 970 m 936 912 l 942 912 q 986 943 982 928 l 980 943 q 936 912 939 927 m 370 535 l 402 529 l 728 529 q 1005 887 884 716 l 1005 893 l 998 893 q 414 572 860 833 q 370 535 370 541 m 640 749 l 647 749 l 728 786 l 728 799 l 722 799 q 640 749 640 757 m 496 705 l 503 705 q 540 724 527 724 l 540 736 q 496 705 496 715 m 590 717 l 597 717 q 609 730 609 717 l 603 730 q 590 717 590 728 m 383 591 l 389 591 q 402 604 402 591 l 395 604 q 383 591 383 602 m 609 466 l 634 466 l 634 479 l 622 479 q 609 466 609 477 m 640 479 l 640 472 l 672 472 l 672 479 l 640 479 m 879 479 l 879 472 l 942 472 l 942 479 l 879 479 m 967 479 l 967 472 l 992 472 l 992 479 l 967 479 m 861 441 l 861 435 l 948 435 l 948 441 l 861 441 m 226 -175 l 220 -200 q 239 -175 229 -200 l 226 -175 z "},"5":{"ha":1086,"x_min":-379,"x_max":1564,"o":"m 1293 1162 q 1390 1148 1329 1155 q 1411 1155 1404 1155 q 1556 1148 1533 1148 l 1564 1134 q 1494 1093 1522 1127 q 1438 1072 1447 1072 l 1438 1078 q 1432 1072 1432 1078 l 1404 1078 q 1258 1072 1282 1072 l 1258 1065 q 1307 1058 1279 1065 q 1397 1065 1366 1065 q 1432 1050 1432 1065 q 1321 1009 1432 1021 l 1251 1009 q 1272 995 1251 995 l 1272 981 l 1265 981 q 738 940 738 958 q 439 621 568 763 l 446 621 q 641 614 567 614 l 641 607 q 648 614 648 607 q 911 530 881 593 q 953 461 948 530 l 953 433 q 946 427 953 427 l 953 412 l 953 363 q 787 73 953 241 q 329 -129 609 -63 q -261 -275 -140 -275 l -268 -275 l -268 -260 l -254 -260 q -130 -240 -227 -260 l -130 -233 q -254 -226 -204 -233 l -254 -212 l -212 -212 l -212 -198 l -275 -198 q -289 -212 -289 -200 l -268 -212 l -268 -219 q -282 -233 -268 -233 q -379 -219 -334 -219 l -379 -205 l -366 -205 q -248 -184 -342 -205 l -254 -150 l -240 -150 q -212 -157 -224 -150 q -18 -115 -154 -138 q 3 -94 3 -115 q -5 -87 -5 -94 l -18 -94 l -67 -94 q -310 -129 -212 -129 l -358 -129 q -372 -115 -372 -129 l -372 -108 q -358 -94 -370 -94 q -338 -115 -358 -104 l -330 -115 q 37 -52 -168 -115 q 149 -18 37 -18 q 481 86 431 45 l 488 86 l 488 93 l 474 93 q 370 73 394 86 l 370 79 q 530 128 370 92 q 731 288 731 201 q 745 322 745 288 l 745 336 q 585 440 745 440 q 412 419 553 440 q 405 427 405 419 l 391 419 l 384 419 l 384 433 l 398 433 q 454 454 449 433 q 218 391 218 435 q 190 378 207 391 l 176 378 q 162 399 162 378 l 127 399 q 37 378 113 399 l 31 391 l 85 481 q 363 780 254 618 q 551 1009 551 966 q 654 1099 578 1009 q 710 1134 692 1134 l 724 1127 q 787 1141 749 1141 q 1279 1155 873 1141 l 1293 1162 m 377 621 l 398 621 l 648 898 l 654 912 l 654 919 q 377 621 377 648 m 308 621 l 308 614 l 321 614 q 481 787 393 685 l 481 794 l 474 794 l 308 621 m 266 565 l 273 565 q 287 579 287 565 l 280 579 q 266 565 266 576 m 398 551 l 398 544 q 654 565 644 565 l 669 558 q 703 565 680 565 l 703 572 l 585 572 q 398 551 480 572 m 759 537 l 759 530 q 807 524 780 530 q 835 530 819 530 q 918 475 913 503 q 939 468 932 468 l 939 481 q 856 544 924 512 q 759 537 823 537 m 800 509 l 800 496 l 828 489 l 828 503 q 800 509 812 503 m 835 468 l 835 461 q 890 406 860 415 l 890 412 q 856 468 890 450 l 835 468 m 759 406 l 772 357 l 787 363 q 766 406 777 406 l 759 406 m 266 -87 l 266 -94 l 294 -94 l 384 -66 l 384 -60 l 363 -60 q 266 -87 342 -73 m 31 -80 l 23 -94 l 37 -101 q 113 -87 45 -101 l 113 -80 l 72 -80 q 51 -87 64 -80 q 31 -80 37 -80 m -25 -157 l -25 -163 l 3 -163 q 134 -142 98 -142 l 134 -129 l 100 -129 l -25 -157 m -330 -268 l -289 -268 l -289 -281 l -330 -281 l -330 -268 z "},"6":{"ha":1160,"x_min":-142,"x_max":1400,"o":"m 1284 1160 l 1291 1147 q 1097 1082 1250 1140 l 1097 1069 q 1388 1153 1205 1108 l 1388 1140 q 1168 1057 1388 1116 l 1168 1050 q 1187 1031 1187 1050 q 1394 1082 1312 1072 l 1400 1069 l 1400 1063 l 1369 1063 q 1349 1031 1359 1063 q 1078 940 1301 1031 l 897 857 q 581 669 667 740 l 587 669 l 620 695 l 652 695 q 330 463 473 581 q 52 82 52 202 q 142 -99 52 -99 q 168 -112 142 -112 q 562 -8 357 -112 q 781 308 781 127 l 781 321 q 665 431 722 431 l 587 431 q 446 385 551 431 l 446 398 l 426 398 q 355 340 419 398 l 349 353 q 523 475 492 475 l 523 482 l 517 482 q 323 398 419 482 l 304 398 l 304 405 q 555 547 496 547 q 659 566 597 566 q 930 411 852 566 q 949 282 930 403 q 677 -163 949 106 q 452 -273 484 -273 l 426 -273 l 426 -260 q 543 -215 471 -260 l 543 -208 l 530 -208 q 220 -279 348 -279 q 155 -267 155 -279 l 123 -273 l 117 -273 q -83 -157 -83 -273 q -142 -34 -142 -101 q -39 262 -142 108 q 504 779 206 611 q 1284 1160 990 1109 m 1007 960 l 1013 960 l 1175 1024 l 1175 1031 l 1168 1031 q 1007 960 1092 1009 m 626 534 l 626 527 q 774 508 712 521 q 710 534 774 526 l 626 534 m 239 501 l 239 495 l 245 495 q 271 521 256 495 l 271 527 l 264 527 q 239 501 255 527 m 504 450 l 510 437 q 633 475 618 456 l 665 469 l 671 482 l 659 488 q 504 450 584 475 m 723 488 l 723 482 l 755 475 l 762 475 l 762 482 l 730 488 l 723 488 m 743 69 q 781 114 751 69 l 781 121 q 743 69 743 92 m 26 37 l 26 24 q 45 -34 31 -34 l 45 -28 q 33 18 45 -24 l 39 18 q 33 37 33 30 l 26 37 m -90 -41 l -90 -66 q -77 -79 -88 -79 l -71 -79 l -71 -60 q -90 -41 -71 -51 m 652 -144 l 652 -157 q 717 -99 717 -111 l 717 -92 l 652 -144 m -52 -202 q -45 -221 -45 -214 l -26 -221 q -45 -202 -26 -212 l -52 -202 z "},"7":{"ha":1092,"x_min":-300,"x_max":1432,"o":"m 1077 1158 l 1418 1158 q 1432 1143 1432 1156 l 1418 1137 l 1390 1137 l 1348 1143 q 1328 1137 1335 1137 l 1341 1074 l 1376 1088 l 1383 1074 l 897 663 l 897 656 q 1154 622 1137 656 q 1091 552 1091 600 q 1021 524 1072 533 q 1015 531 1015 524 l 931 524 l 806 524 q 778 517 790 524 q 750 524 766 524 q 722 517 726 517 l 722 503 l 848 503 q 924 511 876 503 q 980 503 931 503 l 980 490 l 945 490 q 938 496 938 490 q 917 490 924 490 q 694 483 882 490 q -29 -185 680 483 q -119 -241 -101 -241 q -134 -227 -119 -227 l -210 -283 l -217 -283 l -217 -262 q -147 -165 -147 -193 q -140 -116 -147 -143 l -155 -109 q -273 -178 -178 -109 l -294 -178 l -300 -165 q -113 31 -199 -83 q 26 163 -12 94 q 389 462 66 163 l 389 469 l 353 469 q 180 462 295 469 l 152 511 l 117 503 l 82 503 q 68 517 68 503 q 131 538 83 530 l 165 531 q 214 552 214 538 q 201 566 214 566 q 193 559 193 566 q 145 566 166 566 l 145 573 q 256 601 145 591 q 402 643 330 616 q 660 699 629 643 l 966 962 l 966 970 q 82 921 368 954 l 75 935 q 110 956 75 951 l 110 962 q 75 977 75 962 q 138 1004 75 996 l 138 998 q 229 1025 229 1004 l 214 1032 q 152 1019 164 1025 q 110 1025 141 1025 l 110 1039 q 173 1074 119 1048 l 180 1088 l 180 1095 l 110 1095 l 110 1109 q 1077 1158 110 1128 m 353 1088 l 361 1088 q 493 1095 437 1095 l 493 1102 l 368 1102 q 353 1088 353 1099 m 778 1081 l 778 1074 l 827 1074 l 827 1088 l 812 1088 l 778 1081 m 513 998 l 513 990 l 549 990 l 549 998 l 513 998 m 1091 872 l 1105 872 q 1237 983 1201 947 q 1230 990 1230 983 q 1091 872 1181 970 m 931 552 l 931 545 q 945 538 945 545 l 959 545 l 1036 545 l 1036 552 l 931 552 m 305 496 l 305 490 l 395 490 l 430 496 l 430 503 l 353 503 l 305 496 z "},"8":{"ha":1257,"x_min":-145,"x_max":1326,"o":"m 1048 1162 l 1099 1162 q 1308 979 1308 1143 q 1326 916 1326 946 l 1326 909 q 1074 650 1326 810 q 1036 631 1044 631 l 1036 618 l 1042 618 q 1080 631 1063 631 l 1086 631 l 1086 618 q 903 549 903 579 q 941 460 941 466 l 922 448 l 928 372 q 833 50 895 87 q 581 -196 749 -81 q 265 -278 418 -278 l 259 -278 q -113 -139 -68 -278 q -145 -63 -145 -104 l -145 -57 q 240 410 -145 160 q 562 574 562 551 q 480 701 480 611 q 442 758 480 722 l 442 789 q 789 1099 487 932 q 1048 1162 954 1162 m 1168 1137 l 1162 1124 q 1238 1093 1219 1093 l 1238 1099 q 1168 1137 1236 1115 m 922 1048 l 922 1042 q 947 1036 937 1042 l 1061 1048 q 1105 1042 1086 1042 l 1105 1055 q 1036 1067 1049 1062 l 922 1048 m 682 985 l 682 979 l 701 979 q 821 1042 717 979 q 852 1061 852 1046 l 846 1061 q 682 985 834 1061 m 1263 1055 l 1257 1042 q 1276 1023 1257 1033 l 1282 1023 l 1282 1036 q 1263 1055 1282 1044 m 1162 1048 q 1232 998 1196 1008 q 1238 1004 1232 1004 q 1168 1048 1211 1048 l 1162 1048 m 833 972 l 833 966 l 859 966 l 859 954 q 650 808 726 954 q 789 669 650 720 q 1137 909 1137 815 l 1143 935 q 1004 1010 1128 1010 l 941 1010 q 833 972 833 989 m 688 916 l 694 916 q 770 966 760 966 l 770 979 q 688 916 716 954 m 600 890 l 612 890 q 675 947 612 929 l 682 960 l 682 966 l 675 966 q 600 890 600 923 m 1244 903 l 1244 897 q 1257 909 1257 897 l 1257 916 q 1244 903 1244 913 m 455 777 q 474 751 465 751 l 480 751 q 511 865 480 777 l 511 871 q 455 777 485 871 m 587 852 l 587 833 q 612 871 612 846 l 606 871 q 587 852 597 871 m 1118 814 l 1118 802 q 1162 852 1127 802 l 1162 859 q 1118 814 1153 859 m 916 625 l 916 612 q 1194 808 1157 713 l 1187 808 q 916 625 1018 643 m 556 777 l 556 751 q 568 739 557 739 l 568 745 l 562 777 l 556 777 m 638 732 l 638 707 l 644 707 l 644 732 l 638 732 m 846 682 l 846 669 q 884 694 884 682 l 878 694 q 846 682 857 682 m 707 675 q 739 650 713 650 l 745 663 l 726 675 l 707 675 m 1187 656 l 1187 644 l 1099 625 l 1099 637 q 1187 656 1123 637 m 859 530 l 859 517 q 878 498 859 509 l 878 505 q 859 530 868 530 m 171 303 l 171 290 q 543 473 370 404 l 543 479 l 537 479 q 171 303 370 416 m 51 19 q 126 -95 66 -95 q 290 -120 157 -120 q 354 -101 354 -117 q 303 -70 317 -101 l 303 -57 l 316 -57 q 366 -82 316 -82 q 663 107 496 -82 q 739 284 709 181 q 701 448 726 388 q 316 296 435 399 q 57 25 57 155 q 51 19 51 25 m 726 448 l 726 442 q 751 378 739 378 l 751 404 l 739 448 l 726 448 m 827 378 l 821 347 l 833 347 l 833 378 l 827 378 m 139 233 l 145 233 q 202 277 195 260 q 139 233 146 254 m 57 145 l 63 145 q 89 164 79 164 l 89 176 q 57 145 80 176 m 720 -32 l 720 -38 q 802 44 757 6 q 871 157 871 135 l 720 -32 m -69 19 l -69 12 l -63 12 l -57 38 q -69 19 -69 38 m -38 -32 l -38 -38 l -31 -70 l -12 -70 q -31 -32 -12 -37 l -38 -32 m -107 -44 l -107 -63 q 25 -177 -107 -133 l 25 -171 q -101 -44 -26 -132 l -107 -44 m 549 -152 l 549 -158 q 612 -127 567 -158 l 612 -120 l 606 -120 q 549 -152 549 -144 m 290 -152 l 290 -158 l 316 -158 q 347 -145 336 -145 l 347 -139 l 341 -139 q 290 -152 309 -152 m 341 -190 l 341 -202 q 474 -139 453 -169 l 461 -139 l 341 -190 m 76 -145 l 76 -152 l 107 -158 q 95 -145 107 -145 l 76 -145 z "},"9":{"ha":886,"x_min":1,"x_max":1030,"o":"m 596 1160 q 608 1154 608 1160 l 667 1160 l 751 1160 q 947 1100 837 1160 q 995 1065 947 1071 q 1030 1082 995 1082 q 953 951 1030 1031 q 322 -49 541 313 q 203 -239 288 -83 l 197 -239 l 191 -227 q 304 -24 264 -112 l 298 -24 q 132 -275 132 -257 l 120 -275 l 120 -257 q 155 -155 155 -197 l 149 -155 q 120 -197 120 -182 l 102 -197 l 102 -191 q 168 -73 102 -174 l 149 -73 l 114 -102 l 102 -102 l 102 -84 q 483 505 326 235 l 483 511 l 423 505 l 304 505 q 1 690 1 505 q 108 981 20 878 q 596 1160 360 1160 m 709 1136 l 709 1124 q 727 1118 727 1124 l 739 1124 l 798 1124 l 798 1130 l 768 1136 l 709 1136 m 637 1130 l 637 1118 l 650 1118 q 661 1130 661 1118 l 637 1130 m 435 1005 l 435 999 l 441 999 q 590 1017 508 1011 l 590 1023 l 548 1023 q 435 1005 500 1023 m 168 720 q 197 690 168 703 q 203 695 197 695 l 209 684 q 203 677 203 684 l 215 671 q 221 677 215 677 q 322 636 254 636 q 602 690 400 636 q 792 993 622 709 l 792 1005 l 650 1005 q 262 916 416 1005 q 191 827 191 831 q 168 720 168 782 m 125 981 q 96 939 125 970 l 108 939 q 138 975 108 947 l 138 981 l 125 981 m 423 630 l 423 624 l 435 624 q 584 666 584 637 l 572 666 l 423 630 m 387 594 l 363 594 q 352 583 352 593 l 363 576 l 382 576 q 548 600 473 576 l 543 612 q 387 594 457 594 m 631 553 l 631 547 l 644 547 l 655 583 q 631 553 647 582 m 125 564 l 125 559 q 185 547 180 547 l 197 547 l 197 553 q 132 564 189 553 l 125 564 m 352 71 l 352 64 q 370 83 360 64 l 370 88 q 352 71 361 88 m 191 -78 l 203 -78 q 227 -24 227 -33 q 191 -78 216 -24 z "},"\"":{"ha":653,"x_min":14,"x_max":633,"o":"m 489 1160 q 622 992 549 1160 q 633 951 622 978 q 587 772 633 772 q 576 783 576 772 l 581 783 q 547 824 581 794 q 454 951 508 951 q 391 1061 391 996 q 489 1160 414 1160 m 83 1119 q 292 882 228 1119 l 286 859 q 292 772 292 801 l 281 766 l 275 778 l 275 783 q 281 789 275 789 q 222 836 266 836 q 147 905 184 905 q 136 893 147 893 l 124 893 q 14 1021 14 944 l 14 1027 q 83 1119 14 1065 m 442 1079 l 442 1061 q 454 1073 454 1061 l 454 1079 l 442 1079 m 547 882 l 547 870 l 564 819 l 570 819 l 570 836 q 553 882 570 843 l 547 882 z "},"#":{"ha":1323,"x_min":8,"x_max":1301,"o":"m 848 1162 l 859 1162 l 859 1157 q 829 1058 829 1072 q 868 1107 833 1058 l 878 1093 l 878 1073 q 863 1023 868 1023 l 868 1013 q 759 754 759 774 l 759 749 l 764 749 q 789 789 780 789 l 789 784 q 759 690 759 705 l 769 685 l 764 675 l 764 670 q 823 655 779 670 q 829 660 823 660 l 829 650 l 859 650 q 883 635 859 639 l 883 630 l 893 630 l 893 640 l 943 625 q 1097 928 1046 838 q 1177 1058 1099 962 l 1181 1058 q 1177 1003 1177 1014 l 1181 1003 q 1211 1043 1188 1003 l 1217 1043 l 1217 1038 l 1202 988 l 1202 978 q 1217 993 1217 978 l 1221 993 q 1232 983 1232 991 l 1232 978 q 1142 764 1232 962 q 1072 585 1072 598 l 1072 581 q 1157 521 1072 549 q 1301 446 1296 456 l 1301 441 q 1256 451 1269 451 l 1296 412 l 1291 412 q 1162 456 1286 412 l 1236 416 l 1266 391 q 1261 372 1261 382 q 1027 446 1228 372 l 1023 446 q 928 212 994 418 q 968 182 968 186 l 953 182 l 953 178 q 968 173 958 178 q 972 182 968 182 l 998 178 l 998 168 l 987 168 l 987 158 q 1072 128 997 158 q 1082 138 1074 138 q 1147 98 1107 98 l 1217 39 l 1211 28 l 1192 33 q 1157 14 1157 26 q 1017 48 1072 48 q 1008 39 1017 39 q 873 88 906 88 l 724 -285 l 719 -285 l 714 -275 l 714 -265 q 719 -260 714 -260 l 714 -250 q 739 -191 714 -211 l 739 -205 l 744 -205 l 744 -200 l 739 -180 q 764 -101 739 -153 q 819 54 797 31 l 819 58 q 808 68 819 68 l 669 -280 l 665 -280 q 635 -260 635 -267 l 640 -230 l 629 -200 q 694 -6 629 -136 q 734 123 694 5 l 689 153 l 699 153 q 734 143 731 143 q 680 168 734 158 l 689 153 l 680 153 q 669 163 669 153 l 674 173 l 669 173 q 640 168 666 173 q 545 197 564 197 q 371 -170 407 -145 q 336 -195 366 -170 q 332 -191 336 -191 q 351 -125 351 -147 l 351 -91 q 336 -86 346 -91 q 321 -101 336 -93 l 317 -101 l 296 -81 q 277 -131 284 -131 l 272 -131 l 272 -125 l 411 237 q 242 312 411 261 q 53 401 79 361 q 8 421 8 408 l 8 426 l 13 426 q 68 416 22 426 q 78 441 68 441 l 102 441 q 98 456 98 451 q 102 461 102 456 l 113 456 l 123 456 l 138 466 q 431 372 353 405 l 465 372 q 540 555 490 420 q 555 581 544 555 l 555 605 q 302 705 546 614 q 187 749 193 739 l 187 754 l 217 754 l 217 764 q 202 774 202 764 l 212 779 l 222 774 l 237 804 q 217 824 229 804 l 192 819 q 157 839 157 831 l 157 844 q 202 834 170 844 l 237 839 q 292 819 279 819 l 296 819 l 311 829 q 540 754 536 754 q 560 745 540 745 q 565 749 560 749 q 614 730 565 736 q 714 939 642 770 q 823 1137 770 1049 l 833 1142 l 838 1142 q 833 1127 838 1137 l 833 1118 l 838 1118 q 848 1162 838 1125 m 1127 973 q 1117 933 1127 965 l 1127 933 q 1137 958 1127 946 l 1137 973 l 1127 973 m 829 873 l 829 864 q 789 789 807 804 l 789 794 q 829 873 806 854 m 600 327 q 784 262 656 292 l 789 262 q 878 491 878 474 l 878 500 q 704 560 859 511 q 629 401 686 560 q 600 327 621 401 m 933 401 l 913 347 l 923 342 q 938 397 923 354 l 938 401 l 933 401 m 898 302 l 898 297 l 903 297 q 913 337 913 329 q 898 302 901 337 m 1017 168 l 1023 168 q 1042 153 1042 160 l 1042 148 l 1038 148 q 1017 158 1025 158 l 1017 168 m 814 88 l 814 73 l 823 73 l 823 88 l 814 88 m 938 88 l 938 83 l 958 78 q 943 88 958 88 l 938 88 m 978 73 q 987 63 979 63 l 993 63 q 983 73 993 73 l 978 73 m 1072 68 l 1072 58 l 1092 54 q 1072 68 1092 61 m 1132 39 l 1132 28 l 1152 28 l 1152 33 l 1132 39 z "},"$":{"ha":710,"x_min":12,"x_max":695,"o":"m 538 1162 l 538 1154 q 530 1146 538 1146 l 530 1154 q 538 1162 532 1162 m 526 1138 l 526 1131 q 519 1103 519 1105 l 511 1103 q 526 1138 520 1138 m 585 1099 l 593 1099 l 593 1087 q 546 938 562 1002 l 546 934 q 566 926 566 934 q 609 934 581 934 l 616 934 q 597 926 616 926 l 597 918 q 668 930 639 930 l 684 930 q 680 918 680 922 l 648 918 l 648 911 l 652 911 q 668 914 661 911 q 680 911 675 911 q 664 903 680 903 l 664 895 l 691 895 l 691 891 l 664 883 l 664 879 q 671 875 671 879 l 680 879 q 695 875 686 875 l 695 867 q 629 840 671 850 l 625 848 q 640 856 640 848 l 636 856 q 503 808 614 842 q 432 593 480 774 l 432 589 l 452 585 l 456 585 l 475 589 q 550 538 513 558 q 546 526 546 530 l 542 526 l 519 545 l 515 545 l 515 534 q 566 424 566 489 l 570 424 q 585 459 570 454 q 589 455 585 455 q 416 192 556 327 l 295 98 q 224 -145 283 68 q 170 -243 185 -145 q 157 -283 164 -243 l 150 -283 l 177 -165 l 177 -161 l 173 -161 q 134 -243 150 -243 l 130 -243 q 146 -181 130 -233 l 134 -161 q 170 12 161 -79 l 170 16 q 36 -39 49 -39 l 36 -32 q 165 39 119 -5 l 161 39 q 52 0 144 39 l 28 0 l 28 4 q 114 59 114 52 q 106 62 106 59 q 59 47 74 47 l 56 55 q 130 98 56 62 q 205 145 170 128 q 208 165 208 150 q 197 161 201 161 l 197 169 q 267 341 229 169 q 302 479 302 446 q 295 483 295 479 l 256 479 l 236 479 l 236 483 l 240 490 l 224 490 q 216 479 224 479 l 212 479 l 212 494 q 118 589 118 538 q 173 710 128 642 q 405 871 239 777 q 471 1001 443 871 q 507 1091 477 1006 l 515 1091 q 526 1072 515 1082 l 526 1067 l 522 1028 q 554 1087 534 1028 l 558 1087 l 558 1083 q 550 1063 558 1063 q 554 1052 554 1056 q 585 1099 563 1052 m 570 891 q 644 914 644 902 l 636 914 q 570 891 570 900 m 522 859 l 522 856 l 530 856 q 542 859 538 859 l 542 863 l 538 863 q 522 859 531 859 m 271 632 l 271 628 q 334 585 271 587 l 338 585 q 389 745 389 735 q 279 663 341 745 q 271 632 271 649 m 240 620 l 240 616 q 260 597 240 611 l 263 604 q 256 640 256 630 q 240 620 250 640 m 346 275 q 452 420 452 350 l 452 431 q 405 475 437 460 q 346 290 385 475 l 346 275 m 511 389 l 507 369 q 515 376 515 369 l 515 389 l 511 389 m 471 353 l 471 345 q 479 353 479 345 l 479 361 q 471 353 471 359 m 236 -47 l 236 -55 l 240 -55 q 267 39 240 -41 q 275 75 267 56 l 271 75 q 240 -24 262 75 q 236 -47 236 -44 m 205 27 l 197 -8 l 197 -12 l 201 -12 l 208 23 l 208 27 l 205 27 m 193 -16 q 185 -47 185 -41 l 185 -52 l 189 -52 q 197 -20 197 -22 l 197 -16 l 193 -16 m 12 -32 l 16 -32 q 28 -35 24 -35 l 28 -43 l 24 -43 q 12 -32 18 -43 z "},"%":{"ha":1370,"x_min":24,"x_max":1331,"o":"m 496 1160 q 623 1056 586 1160 l 623 1050 q 439 665 623 881 l 433 665 l 433 671 q 450 682 433 682 l 450 705 l 439 705 q 283 613 347 613 q 168 739 193 613 q 370 1114 168 892 q 496 1160 450 1160 m 1251 1154 l 1256 1154 l 1251 1143 l 1251 1125 l 1256 1125 l 1274 1137 l 1285 1137 l 1285 1125 l 1181 1010 q 1285 1097 1194 1010 l 1297 1097 l 1297 1074 l 1325 1085 l 1331 1074 q 934 642 1213 928 q 255 -193 671 345 l 151 -274 l 140 -279 q 134 -262 134 -269 q 180 -187 180 -204 l 174 -187 q 99 -262 105 -262 l 87 -256 q 111 -182 111 -216 l 87 -182 q 30 -245 87 -199 q 24 -239 30 -239 q 525 406 283 100 q 934 866 736 663 q 1251 1154 1229 1154 m 479 1056 l 485 1044 l 485 1039 l 473 1044 l 456 1044 q 307 826 351 956 l 307 768 l 318 751 q 491 958 384 751 l 491 1016 l 496 1016 q 508 958 508 1016 l 513 958 q 531 1027 531 1021 q 503 1062 519 1058 q 479 1056 492 1056 m 1147 912 l 1147 907 q 1199 958 1162 909 q 1274 1027 1214 958 l 1274 1033 q 1147 912 1255 1031 m 323 998 q 260 884 273 920 l 260 878 l 266 878 q 330 993 266 892 l 330 998 l 323 998 m 968 808 l 975 808 q 1049 884 1049 873 l 1049 889 l 1043 889 q 968 808 1037 889 m 260 774 l 260 745 l 272 751 q 266 774 266 761 l 260 774 m 410 135 l 422 135 q 819 602 454 179 l 813 602 q 410 135 627 410 m 1043 342 l 1061 342 q 1199 130 1162 342 q 1124 -90 1199 40 q 1020 -205 1104 -90 l 1008 -210 l 1003 -210 q 1049 -147 1049 -155 l 1049 -141 q 928 -205 967 -205 l 899 -216 q 779 -43 779 -216 l 779 -9 q 934 319 779 198 l 1043 342 m 899 256 l 905 256 q 945 296 916 256 l 940 296 q 899 256 921 296 m 911 -9 q 963 -66 919 -66 q 1078 106 1040 -66 q 1072 164 1078 113 l 1078 204 q 1061 233 1070 233 q 911 8 980 233 l 911 -9 m 830 20 l 830 14 q 882 135 845 22 q 830 20 845 101 m 376 95 l 376 89 q 387 100 387 89 l 387 106 q 376 95 376 104 m 237 -118 l 243 -118 q 404 77 404 45 q 237 -118 300 -32 m 813 -141 l 813 -153 q 825 -176 825 -167 l 836 -176 l 836 -170 q 813 -141 825 -144 m 888 -147 l 888 -153 q 899 -164 890 -164 l 911 -164 q 922 -153 922 -164 l 894 -147 l 888 -147 z "},"&":{"ha":1478,"x_min":39,"x_max":1467,"o":"m 1048 1162 q 1244 1042 1214 1162 q 1190 890 1232 959 l 1206 890 l 1206 885 q 1038 760 1162 838 l 1038 743 l 1054 743 l 1054 732 q 891 673 996 732 q 593 521 669 568 q 549 315 549 456 q 576 271 570 271 l 587 271 l 587 277 q 582 293 582 287 l 587 293 q 652 184 639 197 q 799 81 665 184 l 821 81 l 897 141 l 902 141 l 902 136 l 837 64 l 837 59 q 853 54 843 59 q 1005 195 995 172 l 1016 195 l 1016 190 l 902 48 l 902 43 l 907 43 l 945 64 l 972 64 l 972 59 q 929 5 929 17 q 1234 -109 1052 -80 q 1375 -93 1320 -104 q 1385 -104 1376 -104 q 1461 -93 1402 -104 l 1461 -104 q 1380 -136 1380 -125 l 1391 -142 q 1467 -131 1455 -131 q 1342 -196 1365 -196 l 1342 -201 l 1353 -201 q 1456 -174 1440 -174 q 1190 -256 1456 -210 l 1168 -256 q 962 -212 1086 -256 q 755 -136 851 -195 q 571 -245 720 -149 q 484 -283 544 -250 q 380 -277 425 -277 l 353 -277 q 60 -93 198 -226 q 39 10 39 -30 q 125 304 39 201 q 419 581 306 502 q 463 722 463 696 l 473 722 l 473 705 q 555 852 482 705 q 571 874 560 852 l 571 880 l 560 880 q 538 858 560 858 l 538 863 q 788 1102 637 996 l 799 1102 l 799 1091 q 614 912 751 1091 q 604 907 614 907 l 604 901 l 614 901 q 924 1124 820 1124 q 1048 1162 993 1162 m 587 684 q 880 787 847 760 q 1076 972 1076 905 q 994 1042 1076 1027 q 793 918 887 996 q 620 722 620 800 q 587 684 587 722 m 701 874 l 707 874 q 788 945 714 874 l 788 950 l 783 950 q 701 874 737 923 m 1005 776 l 1005 765 q 1152 890 1062 793 l 1152 896 q 1005 776 1023 776 m 533 852 l 533 842 q 511 798 511 808 l 500 798 l 500 804 q 533 852 521 851 m 522 646 q 604 792 553 678 q 620 809 611 792 l 620 825 q 522 646 537 730 m 674 700 l 674 689 l 712 700 l 712 711 q 674 700 690 700 m 614 667 q 652 684 652 673 l 652 689 q 614 667 614 680 m 582 575 q 587 570 587 575 q 631 602 623 585 l 620 602 q 582 575 585 588 m 294 450 l 310 450 q 391 515 391 507 l 380 515 q 294 450 314 472 m 522 467 l 522 456 l 533 456 l 538 477 l 533 477 q 522 467 522 476 m 326 434 l 326 423 l 337 423 q 375 456 337 431 l 375 467 q 326 434 344 434 m 517 429 l 522 401 l 533 401 l 528 439 q 517 429 517 437 m 267 363 l 272 363 q 283 374 283 363 l 283 380 q 267 363 275 380 m 288 293 l 299 293 q 370 353 306 319 q 386 374 370 361 l 380 374 q 288 293 340 351 m 196 87 l 196 59 q 370 -98 196 -44 q 430 -104 399 -104 q 620 -33 620 -64 q 506 98 602 -33 q 391 347 414 281 l 380 347 q 218 152 218 224 q 196 87 205 152 m 587 255 q 598 228 598 237 l 604 228 l 604 233 q 598 255 598 243 l 587 255 m 104 250 q 71 174 82 215 l 71 168 l 77 168 q 115 244 77 180 l 104 250 m 696 136 l 696 130 q 766 48 703 104 l 772 48 q 788 64 780 48 l 788 75 q 701 136 774 75 l 696 136 m 120 70 l 120 48 l 125 48 l 125 70 l 120 70 m 60 64 l 55 37 l 66 37 l 66 64 l 60 64 m 593 26 q 642 -39 593 20 q 663 -33 651 -33 l 663 -22 q 598 26 660 -9 l 593 26 m 55 5 l 55 -22 l 60 -22 l 60 5 l 55 5 m 77 -66 l 71 -77 q 115 -131 102 -131 l 115 -120 q 77 -66 115 -85 m 272 -104 q 283 -115 274 -115 l 288 -115 l 288 -104 l 272 -104 m 772 -120 q 821 -147 793 -147 l 826 -147 l 826 -142 q 788 -115 826 -135 q 772 -120 778 -120 m 1016 -120 q 1027 -131 1018 -131 l 1086 -131 l 1086 -125 l 1032 -120 l 1016 -120 m 1185 -163 l 1185 -169 l 1201 -169 q 1331 -147 1331 -169 l 1326 -147 q 1185 -163 1236 -147 m 261 -153 l 261 -158 q 348 -185 325 -185 l 391 -185 q 403 -174 403 -185 q 391 -169 391 -174 q 386 -174 386 -169 q 267 -153 378 -174 l 261 -153 m 267 -196 l 267 -207 q 310 -218 305 -218 l 332 -218 l 332 -212 q 277 -196 292 -208 l 267 -196 m 1282 -212 l 1282 -218 l 1293 -218 q 1310 -212 1303 -212 l 1310 -207 l 1299 -207 q 1282 -212 1288 -212 z "},"'":{"ha":346,"x_min":28,"x_max":313,"o":"m 130 1160 q 306 958 254 1160 q 300 951 306 951 q 313 850 313 871 l 306 850 q 313 831 313 838 q 287 781 301 781 l 281 781 q 256 869 281 869 l 174 920 q 168 926 168 920 l 155 920 q 130 926 140 920 q 104 920 119 920 q 28 1046 28 981 q 130 1160 28 1109 z "},"(":{"ha":514,"x_min":0,"x_max":732,"o":"m 728 1160 l 732 1160 l 732 1149 q 627 1074 674 1117 q 429 922 483 976 l 435 922 q 712 1099 645 1087 q 555 993 701 1081 q 344 776 355 826 q 217 553 279 684 q 161 351 191 553 q 142 331 154 351 l 142 326 l 146 265 l 142 265 l 157 235 q 151 215 151 227 q 161 205 161 214 l 161 200 q 151 174 161 174 l 161 149 l 157 119 q 222 -28 157 94 l 217 -28 q 349 -224 218 -60 l 338 -224 q 222 -103 329 -224 l 217 -103 q 353 -286 277 -213 l 328 -290 q 262 -270 293 -270 l 252 -275 q 91 -103 207 -264 q 41 -7 91 -94 q 5 155 20 45 q 0 159 0 155 q 5 164 0 164 l 0 190 q 15 286 10 286 l 10 296 q 126 665 10 479 q 273 897 126 714 q 425 1023 338 972 q 702 1155 494 1086 q 728 1160 711 1160 m 227 801 l 233 801 q 439 1013 377 954 l 435 1013 q 237 821 343 950 q 227 801 237 813 m 349 846 l 349 842 q 394 882 361 842 l 394 887 l 389 887 q 349 846 382 887 m 71 83 l 71 73 q 81 48 81 61 l 86 48 l 86 63 q 81 83 81 73 l 71 83 m 192 -113 l 192 -129 q 262 -220 227 -193 l 268 -220 l 268 -210 q 202 -113 202 -132 l 192 -113 m 379 -260 l 384 -260 q 394 -270 394 -262 l 389 -270 q 379 -260 379 -270 z "},")":{"ha":559,"x_min":-195,"x_max":540,"o":"m -195 1164 l -190 1164 q 165 987 60 1094 q 342 804 205 987 q 418 652 418 689 q 509 444 468 604 q 540 191 524 389 q 535 171 540 180 l 540 161 q 464 -73 509 -18 q 302 -270 396 -193 q 287 -275 296 -270 q 271 -270 277 -270 q 211 -290 248 -270 l 185 -286 q 322 -103 269 -203 l 317 -103 q 191 -229 208 -229 l 191 -224 q 287 -93 234 -176 q 322 -27 315 -54 q 317 -22 317 -27 q 383 130 383 89 q 378 145 383 136 l 383 171 q 378 212 378 199 q 388 222 388 212 l 388 227 l 378 241 q 398 328 398 241 q 357 485 371 349 q 307 581 345 529 q 195 779 259 691 q 94 895 155 857 q -170 1093 -5 998 l -174 1103 l -164 1103 q 104 926 -87 1075 l 104 930 q -195 1154 -127 1117 l -195 1164 m 99 1017 q 307 804 161 958 l 312 804 q 125 997 248 909 q 104 1017 125 1004 l 99 1017 m 145 890 l 145 885 q 191 844 178 844 l 191 850 q 150 890 191 856 l 145 890 m 454 59 l 454 54 l 459 54 q 469 75 459 62 l 469 85 q 454 59 458 85 m 271 -204 l 271 -219 l 277 -219 q 347 -128 313 -193 l 347 -113 q 271 -204 280 -204 m 155 -260 l 160 -260 q 145 -275 160 -267 l 140 -275 q 155 -260 140 -268 z "},"*":{"ha":637,"x_min":30,"x_max":608,"o":"m 201 1162 q 225 1138 211 1138 q 233 1145 227 1145 q 245 1126 245 1145 l 254 1126 q 269 1134 263 1134 q 317 1050 284 1134 l 325 1046 q 381 1154 331 1046 l 393 1162 q 401 1154 401 1160 l 409 1158 l 413 1158 l 421 1154 q 413 1122 413 1139 l 425 1130 l 433 1130 l 433 1126 q 397 1014 397 1024 l 405 1014 q 525 1058 488 1058 l 513 1042 l 529 1034 q 568 1046 552 1046 l 568 1042 q 421 950 566 1034 l 421 946 l 429 946 q 493 970 483 970 q 453 946 493 962 q 536 918 453 937 q 608 886 552 902 l 608 882 q 585 867 600 867 l 549 870 q 536 850 543 850 l 517 850 q 457 863 463 863 l 457 854 q 496 846 489 846 l 505 846 l 505 838 q 421 850 479 838 l 417 842 l 465 711 l 465 703 l 453 703 q 425 691 439 703 l 421 691 q 337 842 382 748 l 329 842 q 265 695 316 842 l 257 695 q 245 715 257 715 l 241 715 q 221 679 227 679 q 218 715 221 700 q 221 727 221 722 l 218 734 q 254 842 233 777 q 130 783 240 842 l 117 783 l 117 787 q 157 806 117 795 l 157 810 l 150 810 q 78 779 95 779 l 74 787 q 106 819 74 802 l 106 831 q 38 802 101 831 q 30 810 30 802 q 182 903 66 846 l 182 910 l 78 954 q 70 994 78 987 q 102 1010 70 999 l 102 1014 q 94 1022 94 1014 l 102 1026 l 250 986 l 254 986 q 261 994 261 986 l 193 1158 l 201 1162 m 193 834 l 193 831 l 205 831 q 218 838 205 838 l 218 842 l 214 842 q 193 834 201 834 m 417 739 l 417 734 q 429 707 429 717 l 433 707 q 441 715 441 707 l 417 739 z "},"+":{"ha":902,"x_min":2,"x_max":888,"o":"m 596 747 l 600 740 l 600 733 q 579 696 579 721 q 610 730 582 696 l 613 730 q 630 716 629 721 l 600 645 l 610 652 l 610 648 l 515 452 l 515 448 q 725 428 515 439 q 857 408 857 423 q 850 401 850 406 l 850 384 q 888 363 850 375 l 888 357 q 803 367 845 367 l 789 367 l 789 363 l 796 363 l 796 357 q 711 360 740 360 l 474 360 q 382 180 461 360 l 277 -27 q 256 -54 259 -54 l 250 -51 q 277 7 268 -23 l 273 7 q 229 -68 262 -4 l 222 -71 l 219 -71 l 219 -68 q 250 20 250 -22 l 239 20 q 219 -17 230 -17 l 216 -17 q 267 115 216 -6 l 263 115 l 253 109 l 253 115 q 372 353 297 193 l 365 357 q 199 360 224 360 l 182 357 l 168 360 q 73 357 117 357 l 56 357 l 56 363 q 83 367 59 363 q 77 374 83 374 l 9 374 q 2 380 2 374 l 2 384 q 19 394 8 384 q 131 401 111 397 l 138 397 q 250 408 242 401 q 287 404 273 404 l 297 404 l 314 408 l 314 404 l 321 408 l 399 408 l 399 414 l 331 414 l 311 411 l 304 414 q 277 411 286 411 q 256 414 275 411 q 246 411 250 411 l 246 414 l 239 411 l 233 411 q 219 414 225 411 q 148 408 201 408 q 121 411 134 408 q 39 404 79 404 l 39 411 q 121 418 70 418 l 144 418 q 138 425 144 425 l 94 425 l 73 428 q 56 425 68 425 l 56 428 l 50 425 l 46 425 l 46 428 l 50 435 q 321 438 222 438 l 351 438 q 430 455 430 438 q 552 689 433 479 q 593 747 557 689 l 596 747 m 603 696 q 620 716 620 701 l 616 716 q 603 696 603 709 m 586 679 l 586 669 q 593 675 593 669 l 593 679 l 586 679 m 498 553 q 474 509 498 545 l 474 506 l 481 506 q 501 550 481 511 l 501 553 l 498 553 m 444 445 l 447 445 q 454 452 454 445 l 454 455 q 444 445 448 455 m 498 414 l 498 411 l 566 411 l 566 414 l 498 414 m 783 387 l 783 384 q 820 380 808 384 l 823 387 l 800 391 l 783 387 m 253 109 l 253 105 q 219 44 253 88 l 219 51 q 253 109 248 107 z "},",":{"ha":378,"x_min":-51,"x_max":296,"o":"m 219 201 q 296 128 296 172 l 296 121 q 146 -37 296 65 q -1 -99 4 -99 q -12 -76 -12 -95 q -5 -68 -5 -76 l -12 -64 l -35 -68 q -51 -57 -51 -62 q 96 28 60 -24 q 115 47 100 28 l 115 94 q 184 190 115 134 l 192 190 q 211 182 204 182 l 219 201 m 219 155 l 219 140 l 222 140 l 227 155 l 219 155 m 153 105 l 161 101 q 172 132 172 129 l 169 132 q 153 105 159 132 z "},"-":{"ha":617,"x_min":10,"x_max":602,"o":"m 548 519 q 574 505 548 505 l 574 496 l 567 496 q 163 416 419 473 l 163 412 l 179 412 q 574 489 452 470 l 578 481 q 521 473 574 477 l 521 470 l 602 470 l 602 462 l 594 462 l 567 458 q 602 428 567 428 l 602 420 q 352 374 507 408 l 352 370 l 356 370 q 467 389 455 389 l 467 382 l 463 382 l 68 309 l 64 316 q 79 324 73 324 l 79 336 l 41 332 l 41 343 q 72 362 64 343 q 26 389 41 389 l 26 393 l 33 405 q 10 420 33 420 l 10 424 q 195 458 10 433 q 548 519 469 519 m 363 481 l 363 477 l 382 477 q 394 481 390 481 l 394 485 l 387 485 l 363 481 m 244 454 l 244 451 q 348 470 258 451 l 348 473 l 345 473 q 244 454 304 470 m 494 447 l 494 443 l 505 443 q 513 451 513 443 l 505 451 q 494 447 498 447 m 402 428 l 402 424 l 406 424 l 456 431 l 456 439 l 402 428 m 321 424 l 321 420 l 329 420 q 391 431 381 431 l 391 435 l 375 435 q 321 424 367 435 m 321 385 l 321 382 l 325 382 q 505 420 505 412 l 502 420 l 321 385 m 125 408 l 125 405 l 149 405 q 160 408 156 408 l 160 412 l 156 412 q 125 408 135 408 m 221 401 l 225 401 q 267 408 258 408 l 267 412 l 252 412 q 221 401 221 410 m 198 401 l 198 397 l 210 397 l 214 405 l 210 405 q 198 401 202 401 m 267 359 l 267 355 l 279 355 q 294 359 281 355 l 294 362 l 283 362 l 267 359 m 160 339 l 160 336 l 163 336 l 186 339 l 186 343 l 172 343 q 160 339 164 339 m 110 332 l 110 328 l 121 328 q 156 336 127 328 l 156 339 l 153 339 q 110 332 147 339 z "},".":{"ha":437,"x_min":119,"x_max":366,"o":"m 218 200 q 253 196 250 196 l 262 200 q 345 131 319 200 l 349 131 q 357 148 349 148 q 366 131 366 138 q 275 18 358 89 q 218 1 235 1 l 197 1 q 136 31 179 1 l 136 22 q 175 -26 145 1 l 166 -26 q 119 48 119 5 l 119 79 q 218 200 144 200 m 262 100 l 271 100 q 301 126 301 121 l 301 135 q 292 144 301 144 q 262 100 279 139 m 245 70 l 245 66 l 249 57 q 301 92 281 61 l 301 100 l 296 100 q 245 70 256 70 z "},"/":{"ha":967,"x_min":-1,"x_max":963,"o":"m 869 1162 l 880 1162 q 890 1152 890 1160 l 885 1089 q 895 1079 895 1088 q 947 1095 906 1079 q 952 1089 947 1089 l 947 1079 l 963 1053 q 771 773 963 1037 q 87 -279 407 269 l 71 -279 l 71 -274 q 77 -233 71 -270 l 71 -222 q 77 -201 77 -214 q 9 -243 54 -201 l 4 -243 l 4 -238 l 24 -207 l 24 -201 l 20 -191 q 45 -170 35 -191 l 35 -170 q -1 -197 11 -197 l -1 -191 l 30 -109 q 9 -93 9 -100 q 434 571 149 109 l 600 814 q 792 1068 759 1068 l 787 1079 l 787 1089 q 869 1162 838 1162 m 564 617 q 652 747 626 688 l 662 747 l 662 762 q 585 659 633 741 q 564 617 571 659 m 528 581 l 528 571 q 553 597 534 571 l 553 607 q 528 581 547 607 m 222 32 l 227 32 q 237 42 237 32 l 237 47 q 222 32 230 47 m 113 37 q 108 21 113 31 l 108 16 l 113 16 q 118 32 113 22 l 118 37 l 113 37 m 211 26 q 118 -140 118 -124 l 123 -140 q 222 21 222 -4 l 222 26 l 211 26 m 35 -87 l 35 -93 l 40 -93 q 71 -41 46 -72 l 66 -41 q 35 -87 57 -42 m 40 -160 l 56 -160 l 56 -150 l 50 -150 q 40 -160 40 -151 z "},":":{"ha":378,"x_min":29,"x_max":345,"o":"m 178 648 q 345 587 345 629 l 345 574 l 314 581 q 252 500 257 529 l 264 500 q 290 512 279 512 q 308 506 301 506 q 339 543 331 543 l 345 543 q 191 419 304 419 l 159 419 q 79 494 79 419 q 172 648 79 564 l 178 648 m 191 524 l 191 494 q 215 549 197 494 q 264 593 240 593 l 264 605 q 191 524 213 605 m 165 351 l 197 351 q 290 264 286 304 l 290 245 q 209 109 238 109 q 140 97 165 97 q 29 196 29 133 q 165 351 29 298 m 203 202 l 203 196 l 215 196 q 240 221 224 196 l 240 233 l 234 233 q 203 202 217 229 m 159 215 l 153 184 q 165 196 165 184 l 165 215 l 159 215 z "},";":{"ha":378,"x_min":5,"x_max":340,"o":"m 308 640 q 340 612 328 633 l 340 599 q 248 475 340 505 l 239 475 q 152 557 152 496 q 202 617 152 585 q 308 640 226 629 m 303 627 q 308 604 308 621 l 298 599 q 317 576 307 578 l 321 576 l 321 599 q 308 627 321 623 l 303 627 m 252 571 l 252 548 q 267 534 252 542 q 285 581 267 564 q 280 594 280 589 q 252 571 261 588 m 294 562 l 294 553 l 298 553 q 308 562 308 553 l 294 562 m 248 420 q 257 410 250 410 l 252 401 l 252 388 q 303 342 303 388 q 83 85 303 197 l 74 85 l 74 94 q 92 98 76 94 l 92 103 l 87 103 q 41 94 54 94 l 37 103 l 37 113 q 83 131 37 118 l 83 140 l 51 135 l 41 135 q 5 149 7 135 q 37 163 37 155 q 18 176 18 163 q 115 199 37 199 q 152 232 152 228 q 119 342 129 262 q 248 420 119 391 m 170 355 l 170 351 q 179 360 179 351 l 179 365 q 170 355 170 363 m 156 259 q 161 241 161 251 q 170 250 170 241 l 170 259 l 156 259 z "},"<":{"ha":876,"x_min":64,"x_max":806,"o":"m 744 916 l 744 909 l 738 897 l 744 897 q 800 916 759 897 l 806 903 q 793 890 793 901 q 800 872 800 879 q 422 669 728 819 l 422 662 l 435 662 l 651 767 l 651 755 q 515 669 608 739 q 349 570 388 613 l 651 427 l 768 366 l 768 359 q 732 347 768 347 q 781 298 781 305 q 774 292 774 298 q 806 242 806 264 l 793 236 l 781 236 q 744 254 757 254 q 732 242 744 242 l 726 242 q 188 496 458 385 q 64 564 72 543 l 64 570 q 472 798 83 602 q 744 916 711 916 m 707 792 q 676 767 707 783 l 670 767 l 670 773 q 707 792 676 792 z "},"=":{"ha":804,"x_min":14,"x_max":794,"o":"m 522 636 l 541 632 l 648 632 q 783 625 728 632 l 783 617 l 757 621 q 749 614 749 620 q 790 602 749 602 l 794 602 l 794 595 q 775 572 775 595 l 757 576 l 667 576 q 675 569 669 569 l 720 569 l 738 565 l 738 557 l 701 562 l 675 562 q 660 565 667 562 l 637 554 l 623 554 l 600 557 q 581 554 594 554 l 578 554 l 566 562 l 559 562 l 559 554 q 458 550 490 550 l 436 550 l 436 557 l 496 557 q 488 565 496 565 l 462 565 l 439 562 q 436 565 436 562 l 410 562 l 339 562 l 339 557 q 387 554 385 554 q 410 557 407 557 q 421 554 417 554 l 421 547 l 335 547 l 313 543 q 309 547 309 543 l 290 543 l 123 543 q 108 547 114 543 q 93 543 101 543 l 48 543 q 37 554 43 543 q 66 587 50 578 l 96 587 q 100 584 100 587 q 104 587 104 584 l 130 584 l 178 584 q 182 580 182 584 l 190 584 l 290 584 l 290 587 q 250 591 250 587 l 227 587 l 216 587 l 193 591 q 190 587 190 591 l 145 591 l 89 591 q 59 599 85 591 l 26 599 q 14 610 20 599 q 56 629 22 629 q 115 625 77 629 q 156 629 123 625 l 201 625 q 361 632 320 629 q 372 629 366 632 q 444 632 413 632 l 511 632 q 522 636 522 632 m 44 617 l 44 614 l 89 610 l 96 614 q 100 610 100 614 q 134 614 114 614 l 134 617 q 63 621 77 617 q 44 617 56 617 m 618 617 l 618 614 q 652 610 632 614 l 656 617 l 618 617 m 663 617 l 660 610 l 734 610 l 734 614 q 663 617 684 617 m 313 606 l 313 602 l 361 602 l 361 606 l 313 606 m 738 599 l 738 595 l 753 591 q 742 599 753 599 l 738 599 m 757 599 l 757 591 l 772 591 q 764 599 772 599 l 757 599 m 667 595 l 667 591 l 715 591 l 715 595 l 667 595 m 235 557 l 235 554 l 320 554 l 320 557 q 287 562 307 557 q 235 557 263 557 m 197 557 l 197 554 l 216 554 l 216 557 l 197 557 m 656 453 l 656 450 l 663 453 q 715 450 695 450 l 720 450 q 727 442 727 448 l 727 438 l 690 442 l 645 442 q 544 438 613 442 l 544 435 q 734 420 654 435 l 734 412 l 708 416 l 708 405 q 749 390 718 405 l 753 390 l 753 382 q 734 375 734 382 l 734 371 q 89 349 679 363 l 81 353 l 59 349 l 33 349 q 26 356 26 349 l 26 360 q 56 375 26 364 l 56 378 q 26 393 26 385 l 37 393 l 37 401 l 26 416 q 66 435 26 426 q 78 431 71 435 q 175 435 140 435 l 201 435 q 216 438 210 435 l 223 435 q 305 442 305 438 l 313 438 q 369 446 365 442 q 380 442 373 446 q 656 453 640 453 m 548 397 q 555 390 549 390 q 633 393 604 393 l 633 397 l 548 397 m 380 393 q 387 386 381 386 l 402 386 q 410 393 410 386 l 380 393 m 484 393 l 484 390 l 511 390 l 511 393 l 484 393 m 514 378 l 514 375 l 555 375 l 574 378 l 574 382 l 555 378 l 536 382 l 514 378 z "},">":{"ha":882,"x_min":29,"x_max":817,"o":"m 123 922 q 779 594 395 812 q 817 563 806 586 l 817 557 q 634 469 768 511 q 142 229 245 288 l 123 229 q 117 241 123 241 l 86 222 l 73 222 q 60 235 60 222 l 60 241 q 130 336 92 304 q 92 349 92 336 l 92 355 q 521 563 207 418 l 521 569 q 300 695 486 598 q 205 764 300 702 l 212 764 q 408 670 233 764 q 439 657 418 670 l 446 657 l 446 664 q 60 871 145 812 l 60 878 l 73 897 q 60 909 60 897 l 60 916 l 123 897 l 123 922 m 142 802 l 149 802 q 205 764 204 777 l 186 764 q 142 796 142 790 l 142 802 m 29 279 l 48 279 q 35 267 48 267 l 29 267 l 29 279 z "},"?":{"ha":920,"x_min":34,"x_max":896,"o":"m 696 1163 q 862 1103 862 1135 q 896 972 896 1069 q 862 904 874 904 q 858 917 862 909 q 879 947 859 930 l 879 955 l 870 955 q 824 870 824 887 q 858 904 831 870 l 862 904 l 862 896 q 518 568 813 798 q 420 488 420 495 q 340 254 378 374 l 331 250 l 331 254 q 340 280 340 269 l 340 301 q 331 310 340 310 q 272 144 331 296 q 203 -26 227 2 l 199 -26 l 199 4 q 161 72 161 44 q 340 568 272 456 q 374 603 340 603 l 429 632 l 429 641 l 399 641 q 471 684 414 663 q 629 810 528 717 q 730 959 730 880 q 734 998 734 959 q 663 1057 713 1057 l 616 1057 q 374 904 528 1052 q 357 913 363 913 l 357 917 l 395 964 l 387 968 q 293 887 385 961 q 289 870 293 878 l 293 861 q 255 840 293 846 q 238 823 255 833 l 233 832 q 293 921 267 860 l 293 930 l 289 938 l 267 925 l 263 925 q 250 938 257 925 q 412 1078 295 994 q 535 1129 473 1118 q 696 1163 641 1163 m 802 1133 q 875 1002 867 1050 l 879 1002 l 879 1006 q 807 1133 879 1102 l 802 1133 m 772 1108 l 772 1103 q 824 1019 801 1069 l 828 1019 l 828 1044 q 772 1108 798 1108 m 314 934 q 340 959 320 934 l 340 964 l 336 964 q 314 934 314 951 m 225 908 q 233 900 233 907 q 182 853 193 854 q 178 857 182 857 q 174 853 178 853 l 174 861 q 225 904 210 904 l 225 908 m 633 739 l 641 734 l 650 747 l 650 751 l 646 751 q 633 739 640 751 m 556 688 l 556 684 l 560 684 q 599 709 582 684 l 594 709 l 556 688 m 475 645 q 450 624 475 640 l 458 620 q 484 637 484 628 q 475 645 484 645 m 348 344 l 348 339 l 357 339 l 357 352 q 348 344 348 351 m 340 322 l 340 310 l 344 310 q 348 322 344 314 l 340 322 m 331 250 l 336 241 l 336 237 q 327 229 336 229 l 323 237 l 323 241 q 331 250 324 250 m 289 136 q 297 127 297 134 l 293 106 l 284 106 q 280 132 284 109 l 289 136 m 157 -47 q 220 -73 194 -47 l 220 -77 l 191 -119 q 225 -161 191 -127 q 272 -191 225 -167 q 280 -208 272 -198 q 157 -281 253 -246 l 140 -285 q 34 -174 34 -262 q 55 -119 40 -174 q 157 -47 111 -47 m 157 -140 l 157 -144 q 182 -178 157 -170 l 182 -174 q 157 -140 163 -140 m 199 -170 l 199 -174 q 229 -191 206 -191 l 238 -178 q 199 -170 227 -178 m 123 -187 l 123 -200 q 136 -213 123 -206 l 140 -213 l 140 -204 q 123 -187 140 -197 m 64 -191 l 64 -196 l 72 -225 l 77 -225 l 77 -213 l 72 -191 l 64 -191 m 98 -230 l 98 -238 q 119 -251 98 -248 l 119 -247 q 98 -230 119 -241 z "},"@":{"ha":1648,"x_min":62,"x_max":1582,"o":"m 1052 1162 l 1063 1162 q 1413 1022 1295 1125 q 1582 754 1582 907 q 1209 172 1582 479 q 1052 66 1186 172 q 988 50 1033 55 q 848 131 939 50 l 842 131 q 633 61 727 61 q 574 79 599 61 l 510 79 l 481 73 l 481 79 q 464 73 470 73 q 446 79 452 79 l 446 90 l 469 90 l 469 96 q 353 259 353 185 l 353 271 q 446 550 353 429 q 627 719 530 657 q 988 836 834 836 l 1058 836 q 1139 806 1139 831 l 1139 777 q 1157 766 1157 777 l 1151 754 l 1168 743 l 1198 748 l 1198 743 q 1000 323 1122 566 q 970 235 970 257 q 994 212 970 230 q 1104 271 1104 231 q 1250 363 1166 271 l 1250 387 l 1232 387 l 1232 393 q 1407 597 1369 509 q 1419 684 1413 609 q 1337 894 1419 792 q 1267 958 1322 941 q 1046 1022 1110 1022 q 505 829 739 1022 q 213 347 213 606 l 219 334 l 208 248 q 341 8 220 133 q 429 -50 403 -23 q 539 -79 522 -79 l 604 -79 q 703 -73 634 -79 l 703 -85 q 580 -108 637 -91 l 528 -108 q 609 -132 528 -122 q 883 -56 781 -132 l 889 -56 l 889 -67 l 930 -67 q 947 -96 943 -67 l 964 -96 q 1046 -9 998 -82 l 1052 -9 l 1052 -3 l 1040 -3 l 1040 3 q 1075 20 1046 20 q 1093 -3 1075 12 q 1052 -62 1082 -29 l 1052 -79 l 1063 -73 l 1069 -73 l 1069 -85 q 761 -254 890 -254 q 633 -283 692 -283 q 300 -207 359 -231 q 155 -38 217 -164 q 62 218 62 111 q 190 701 62 449 q 365 876 275 808 q 516 993 372 901 q 621 1051 527 993 q 720 1086 664 1057 l 732 1080 q 877 1126 732 1102 q 1052 1162 877 1141 m 1046 1133 l 1046 1126 l 1075 1126 l 1075 1133 l 1046 1133 m 1337 1034 q 1407 981 1337 1012 q 1337 1034 1380 1034 m 1198 1016 l 1198 1010 l 1232 999 l 1232 1004 q 1221 1016 1232 1016 l 1198 1016 m 1314 987 q 1326 975 1316 975 l 1331 975 q 1320 987 1331 987 l 1314 987 m 1442 964 l 1442 958 q 1466 928 1453 931 l 1466 935 q 1442 964 1450 963 m 1349 905 l 1349 888 l 1360 888 l 1360 894 q 1349 905 1360 905 m 1466 836 q 1489 719 1489 768 l 1489 678 l 1500 678 l 1506 719 l 1506 730 q 1477 836 1506 776 l 1466 836 m 1168 812 q 1180 801 1180 810 l 1168 795 q 1157 806 1157 795 l 1168 812 m 510 393 q 609 235 510 296 l 615 235 l 627 241 l 638 235 q 865 294 804 282 q 1011 661 964 519 l 1023 661 l 1023 655 l 1017 614 l 1029 614 l 1075 713 l 1075 725 l 1046 701 l 1040 701 l 1040 713 l 1046 754 l 1040 754 q 586 532 857 722 q 510 393 510 460 m 1203 358 l 1203 352 q 1174 323 1203 345 l 1162 323 l 1162 329 q 1203 358 1180 358 m 481 347 l 481 340 q 574 201 481 253 q 604 195 584 195 l 609 195 l 609 206 q 539 277 539 212 q 493 347 532 277 l 481 347 m 423 340 l 423 300 l 440 300 l 440 334 q 423 340 434 334 m 388 311 l 388 294 q 417 235 388 249 l 423 235 l 423 248 q 388 311 423 275 m 1192 271 l 1215 271 q 1238 294 1224 271 l 1238 300 q 1192 271 1209 300 m 394 218 l 394 206 q 411 189 394 198 l 411 201 q 406 218 406 212 l 394 218 m 435 201 l 435 183 q 452 178 441 183 l 452 183 q 446 201 446 195 l 435 201 m 475 195 l 475 183 q 510 160 475 172 l 510 172 q 487 195 510 180 l 475 195 m 178 131 l 178 107 q 208 20 178 79 l 224 20 q 190 131 224 50 l 178 131 m 918 119 l 918 107 q 941 102 931 107 l 941 107 q 930 119 941 119 l 918 119 m 300 20 q 347 -44 300 -18 l 365 -44 l 365 -38 q 307 20 365 -33 l 300 20 m 260 -15 q 254 -38 260 -38 q 271 -62 262 -62 l 289 -62 q 260 -15 289 -30 m 196 -38 q 295 -143 196 -66 l 300 -143 q 201 -38 300 -140 l 196 -38 m 1000 -33 q 976 -56 1000 -41 l 970 -56 l 970 -50 q 1000 -33 970 -37 m 388 -62 q 487 -108 388 -85 l 487 -102 q 388 -62 446 -62 m 330 -96 q 440 -143 330 -114 l 446 -132 q 330 -96 397 -114 m 237 -132 l 237 -137 q 283 -172 238 -147 l 289 -172 l 289 -166 q 237 -132 281 -166 m 469 -137 l 469 -149 l 498 -155 l 528 -155 q 469 -137 528 -142 m 825 -143 l 825 -149 l 848 -149 l 848 -137 q 825 -143 838 -143 m 359 -143 l 359 -149 q 370 -161 361 -161 l 382 -161 l 382 -149 l 359 -143 m 458 -178 q 498 -201 458 -187 l 505 -190 q 469 -178 486 -178 l 458 -178 z "},"A":{"ha":801,"x_min":-328,"x_max":1055,"o":"m 1025 1162 l 1029 1162 l 1029 1158 q 1025 1140 1029 1155 q 1055 1092 1038 1111 l 1055 1088 q 964 861 1023 987 l 833 577 q 863 555 863 560 q 833 547 853 547 l 833 542 l 837 533 q 772 463 788 515 q 340 -279 473 -97 l 335 -279 l 335 -243 q 466 5 393 -155 l 488 40 l 488 49 q 422 -52 474 49 q 374 -139 410 -61 q 331 -217 370 -139 q 309 -252 316 -217 q 287 -274 297 -274 l 265 -270 l 265 -283 q 261 -279 261 -283 l 252 -283 q 239 -279 243 -279 q 374 -16 297 -138 l 462 145 q 518 254 462 154 q 562 337 518 262 q 632 498 632 462 l 627 498 q 405 468 405 498 q 25 158 151 248 l 21 158 l 21 162 q 39 180 25 180 l 39 184 q 12 193 31 184 q -9 167 12 179 l -18 167 l -18 171 q -14 176 -18 176 l -18 184 l -18 193 l -5 219 l -27 215 l -31 215 l 3 280 l 56 323 l 213 468 l 213 481 q 195 486 203 481 q 191 481 191 486 l 170 486 l 104 486 q 43 490 80 486 q 39 486 39 490 q 12 490 35 486 q -328 516 -328 490 q -254 551 -288 551 l -254 547 q -224 551 -248 551 l -224 555 l -237 555 l -237 564 l -232 564 q -71 568 -198 564 l -66 577 l -88 581 l -136 581 l -136 590 q -93 603 -134 590 l -84 599 q -66 603 -81 599 l -58 599 l -49 603 q -40 599 -40 603 l 3 603 l 100 603 l 100 590 l 109 590 q 117 603 117 590 l 121 603 q 152 590 121 590 l 186 590 q 209 594 201 590 l 235 590 l 287 590 l 317 594 l 317 599 l 304 599 l 304 603 q 313 612 306 612 l 348 612 q 431 647 399 612 q 435 642 431 642 q 453 660 435 654 q 523 721 453 673 q 706 878 531 739 q 1025 1162 939 1076 m 776 791 q 614 642 614 649 l 614 629 q 632 625 622 625 l 645 625 l 675 629 l 675 625 q 749 703 726 625 q 785 787 785 762 l 776 791 m 579 603 q 597 599 597 603 q 610 603 606 603 q 688 608 618 603 l 688 616 l 680 616 q 579 603 579 616 m 182 608 l 226 608 l 226 599 l 182 599 l 182 608 m 331 603 l 331 599 l 353 594 l 353 603 l 331 603 m -58 577 l -58 572 l -27 572 l -27 577 l -58 577 m -97 533 l -97 524 l -79 524 l -79 529 l -97 533 m -71 529 l -71 524 l -23 524 l -23 529 l -71 529 m -18 529 l -18 520 l 113 520 l 113 524 q -18 529 50 524 m 532 520 l 471 520 q 479 511 472 511 l 488 511 q 527 516 503 511 l 536 511 q 557 516 543 516 l 553 524 l 532 520 m 584 520 l 584 516 q 641 520 605 520 l 641 524 l 597 524 q 584 520 589 520 m 7 503 l 7 498 q 91 494 59 498 q 121 498 108 498 l 121 507 l 52 507 l 7 503 m 143 503 q 152 494 144 494 l 165 494 q 156 503 165 503 l 143 503 m -31 215 l -31 210 q -40 201 -31 201 l -40 206 q -31 215 -39 215 m -31 132 l -23 132 l -23 127 q -31 119 -23 119 q -40 127 -40 119 l -31 132 m 283 -231 q 278 -243 283 -235 l 296 -243 l 296 -239 q 287 -231 296 -231 l 283 -231 z "},"B":{"ha":883,"x_min":-251,"x_max":1021,"o":"m 674 1160 q 911 1086 848 1140 q 1021 932 1021 1021 l 1021 912 q 956 734 1002 787 l 823 630 q 753 576 753 597 q 838 442 838 458 q 610 140 838 288 q 392 2 536 100 q 293 -22 363 -18 l 293 -28 l 298 -28 l 323 -22 l 323 -28 q 174 -67 270 -67 q -107 -151 76 -112 q -212 -285 -144 -218 l -221 -285 l -221 -280 q -182 -205 -199 -222 q -162 -161 -162 -176 l -162 -151 q -172 -146 -172 -151 l -182 -151 l -191 -151 l -191 -141 l -197 -141 q -246 -156 -208 -150 q -251 -141 -251 -146 q 195 655 -76 114 q 313 907 313 888 q 308 927 308 916 q 338 957 315 927 l 338 967 q 111 863 227 939 l 100 863 q 81 878 100 870 q 1 819 38 854 l -9 838 q 6 843 1 843 l 6 858 q -28 833 1 858 l -33 843 q 36 888 3 888 q 51 883 45 883 l 41 897 l 41 903 q 56 907 56 903 l 66 903 l 71 903 l 66 912 q 174 987 174 979 l 174 991 l 170 991 l 159 987 q 150 996 159 996 q 135 991 140 991 l 135 1002 q 288 1086 220 1042 q 674 1160 528 1160 m 818 1080 l 951 1006 l 956 1016 q 818 1080 956 1063 m 333 591 l 333 581 q 353 576 344 581 q 575 645 546 645 q 689 720 667 696 q 724 754 695 720 q 823 848 752 754 l 827 878 l 838 878 q 847 863 838 863 q 872 912 872 891 q 838 967 872 943 l 827 967 l 827 942 l 818 942 q 694 1006 818 1006 q 610 1002 677 1006 l 610 1016 l 595 1016 q 526 987 526 1010 l 402 749 q 363 660 384 740 q 333 591 333 619 m 937 962 l 937 952 q 961 903 954 903 l 961 912 q 937 962 950 962 m 21 878 l 21 868 l 26 868 q 41 873 36 873 l 41 878 l 21 878 m 338 858 q 323 833 338 849 l 323 823 q 342 843 336 843 l 342 858 l 338 858 m 283 759 l 283 739 l 288 739 l 288 759 l 283 759 m 264 724 q 254 700 264 715 l 258 700 q 273 724 270 700 l 264 724 m 243 675 q 229 660 243 660 l 229 655 l 239 655 l 249 670 l 249 675 l 243 675 m 214 630 l 214 606 l 219 606 l 224 630 l 214 630 m 719 566 l 719 551 q 739 541 726 551 q 748 551 748 541 l 728 566 l 719 566 m 308 546 l 308 536 l 328 536 l 328 546 l 308 546 m 629 482 q 664 457 644 457 l 664 462 q 644 482 664 470 l 629 482 m -9 2 l -3 2 q 283 111 51 2 q 441 195 294 111 l 575 289 q 659 403 617 303 l 659 422 q 526 472 618 472 l 496 472 q 224 413 309 413 q -9 2 0 28 m 342 457 l 342 452 l 363 452 l 363 457 l 342 457 m 798 452 l 798 383 q 812 398 805 383 l 812 437 q 798 452 812 444 m 1 121 l 1 116 q 26 165 12 116 q 1 121 1 146 m 105 -52 q 96 -43 96 -52 q 140 -22 102 -22 l 140 -18 l 125 -18 q 36 -52 42 -45 l 66 -52 l 66 -62 q -14 -82 9 -72 q -53 -72 -32 -72 q -78 -112 -78 -86 q -53 -121 -62 -121 q 111 -62 -13 -102 q 249 -13 111 -50 q 402 62 273 8 q 447 96 447 90 l 447 106 q 135 -33 190 -26 q 105 -52 135 -36 m -18 91 l -18 86 q -9 96 -9 86 l -9 101 q -18 91 -18 100 m 209 22 q 145 -3 181 -3 l 145 -13 l 150 -13 q 219 12 201 12 q 209 22 219 22 m -38 -47 l -28 -47 q -14 -43 -19 -43 l -14 -37 l -28 -37 q -38 -47 -38 -39 m -162 -117 q -172 -102 -162 -102 q -182 -112 -182 -103 l -182 -127 q -152 -136 -168 -127 q -122 -92 -131 -136 l -132 -87 q -162 -117 -135 -87 z "},"C":{"ha":911,"x_min":-24,"x_max":1506,"o":"m 1204 1161 l 1204 1154 q 1190 1141 1204 1141 l 1170 1141 l 1170 1154 l 1204 1161 m 1335 1147 l 1362 1147 l 1403 1141 q 1430 1147 1415 1147 l 1430 1134 l 1417 1134 l 1417 1120 q 1458 1093 1430 1120 l 1506 1093 l 1506 1079 l 1492 1086 q 1328 1051 1492 1074 q 1238 1003 1328 1033 q 1252 989 1240 989 l 1266 989 l 1314 996 q 950 873 1309 983 q 820 818 940 859 q 210 132 210 488 q 292 -66 221 -66 q 340 -87 292 -78 q 676 36 422 -81 q 861 119 758 84 l 868 119 q 882 77 882 81 q 703 -39 719 -39 l 703 -46 l 724 -46 l 806 -12 l 875 36 l 888 36 l 895 2 q 662 -163 820 -83 q 326 -279 574 -231 l 292 -273 l 230 -273 q 223 -266 223 -273 l 210 -273 q 11 -121 11 -242 q -24 77 -3 1 q -17 104 -17 90 l -17 125 l -3 125 l -3 77 l 18 77 l 11 146 l 18 194 l 3 201 l 3 180 l -10 180 l -10 201 q 3 214 -8 214 q 11 208 3 208 l 18 221 l 11 269 q 278 681 111 534 q 340 749 290 681 q 368 770 350 749 l 381 770 l 381 749 l 368 756 l 360 743 l 360 736 l 381 736 q 401 763 381 746 l 401 777 l 388 777 q 538 886 472 870 q 731 1003 648 969 l 779 996 l 793 996 q 1128 1134 820 996 l 1197 1126 q 1307 1134 1237 1126 q 1335 1126 1319 1126 l 1335 1147 m 1280 1086 l 1280 1079 q 1355 1093 1345 1093 l 1355 1099 l 1307 1099 q 1280 1086 1291 1086 m 1335 1010 l 1355 1010 l 1355 996 l 1335 996 l 1335 1010 m 258 612 q 134 448 141 486 l 141 448 q 271 606 235 532 l 258 612 m 113 441 l 113 414 l 134 414 q 127 441 127 425 l 113 441 m 210 441 q 182 386 182 395 q 216 434 216 406 l 216 441 l 210 441 m 86 194 l 86 180 l 93 180 q 113 228 93 198 l 113 235 q 86 194 86 228 m 86 104 l 86 91 q 100 77 88 77 l 100 104 l 86 104 m 182 22 l 182 16 q 210 -33 182 -21 l 210 -26 l 196 22 l 182 22 m 24 16 l 24 9 q 52 -53 24 -44 l 52 -46 q 24 16 52 6 m 134 16 l 134 -5 q 161 -60 142 -56 l 168 -60 q 134 16 158 16 m 73 -74 q 113 -156 73 -125 q 120 -149 113 -149 q 79 -74 96 -74 l 73 -74 m 203 -74 l 203 -87 q 278 -142 232 -142 l 285 -128 l 210 -74 l 203 -74 m 134 -108 l 134 -121 q 161 -156 147 -153 l 175 -156 q 134 -108 146 -108 m 38 -115 l 38 -128 q 58 -156 48 -156 l 58 -136 q 38 -115 58 -125 z "},"D":{"ha":1069,"x_min":-106,"x_max":1143,"o":"m 836 1163 q 859 1146 836 1154 q 865 1152 865 1146 q 1023 1084 1023 1116 q 1143 833 1143 950 q 865 340 1143 642 q 609 146 770 278 q 223 -64 422 16 q 200 -69 203 -69 q 195 -64 200 -64 q 75 -92 144 -92 q 24 -189 35 -189 q 13 -177 13 -189 l 13 -172 l 18 -160 l 7 -155 q -61 -194 7 -172 q -84 -279 -84 -258 l -101 -279 q -84 -229 -101 -250 l -84 -194 l -106 -172 l -106 -166 q -33 33 -33 26 q 126 334 35 141 q 262 567 149 357 q 461 896 319 648 q 456 919 456 906 l 444 919 q 252 840 366 879 q 75 709 165 787 l 52 709 q 41 726 41 709 l 30 726 l 7 709 l 1 720 l 1 726 l 81 805 l 81 817 l 75 817 q 1 771 53 817 l -10 771 l -10 777 q 132 902 -2 798 q 240 987 240 977 q 496 1089 363 1055 q 688 1146 496 1103 q 836 1163 749 1158 m 1023 1032 l 1023 1027 q 1035 1015 1025 1015 l 1035 1021 q 1023 1032 1035 1032 m 944 1027 q 978 1010 950 1010 q 944 1027 972 1027 m 245 186 q 325 215 260 186 q 336 192 325 192 q 626 357 503 254 q 632 374 632 368 l 626 374 q 365 232 520 295 q 342 220 365 220 q 558 362 372 252 q 597 391 585 362 q 688 442 648 391 l 694 442 l 694 448 l 677 448 l 683 459 q 728 442 702 459 q 956 783 956 630 q 870 1004 938 1004 q 814 1010 840 1010 l 791 1010 q 694 964 694 1010 q 467 595 525 712 q 240 186 240 223 l 245 186 m 1069 981 l 1069 976 q 1103 890 1069 936 l 1103 896 q 1069 981 1088 981 m 944 953 q 972 817 972 846 l 978 817 q 989 828 989 817 l 989 840 q 950 953 989 912 l 944 953 m 1006 936 l 1006 930 q 1018 862 1006 901 l 1023 862 l 1023 907 l 1018 936 l 1006 936 m 558 811 l 558 805 q 581 828 575 809 l 575 828 q 558 811 567 828 m 1001 612 l 1006 612 q 1035 675 1035 632 l 1035 714 q 1001 612 1021 714 m 796 431 l 796 425 l 802 425 q 819 442 810 425 l 819 453 q 796 431 810 453 m 762 408 l 762 397 q 779 402 773 402 l 779 414 q 762 408 768 408 m 195 113 l 206 106 q 325 152 240 106 l 325 163 l 308 163 q 195 113 195 134 m 155 27 l 155 22 l 172 22 q 195 27 182 27 l 195 39 q 155 27 172 27 m 143 -58 l 143 -64 l 161 -64 q 178 -58 172 -58 l 178 -52 l 161 -52 q 143 -58 149 -58 z "},"E":{"ha":752,"x_min":-201,"x_max":1676,"o":"m 803 1165 q 825 1160 812 1160 q 854 1165 844 1160 q 904 1160 884 1160 l 910 1160 l 944 1165 q 966 1160 954 1160 q 989 1165 979 1160 q 1034 1160 1020 1160 l 1074 1165 l 1084 1160 q 1096 1165 1096 1160 q 1152 1160 1145 1160 q 1603 1154 1206 1160 l 1603 1148 l 1615 1154 q 1676 1148 1665 1148 l 1676 1137 l 1671 1137 q 1666 1143 1666 1137 l 1654 1137 q 1649 1143 1649 1137 l 1637 1137 l 1626 1143 q 1586 1131 1586 1139 q 1592 1114 1592 1120 l 1649 1114 q 1659 1092 1649 1105 q 1603 1064 1629 1084 q 1569 1069 1599 1064 q 1552 1064 1558 1064 q 1547 1069 1547 1064 l 1508 1064 l 1423 1064 q 1412 1053 1412 1062 q 1451 1047 1434 1047 l 1451 1041 q 1434 1024 1451 1033 l 1389 1024 q 1327 1019 1366 1024 q 1299 1024 1318 1024 q 1282 1019 1288 1019 l 1282 1024 q 1259 1019 1272 1019 l 1259 1007 l 1333 1007 l 1333 996 q 1011 979 1127 990 q 994 985 1006 979 q 577 968 701 968 q 498 867 548 968 l 487 867 l 487 872 q 498 900 498 890 q 357 675 480 900 l 363 663 q 380 669 374 669 q 774 641 380 656 q 831 629 774 633 q 820 618 831 618 l 791 618 l 791 607 q 837 602 831 602 l 837 590 l 764 590 l 735 585 l 735 573 q 774 551 774 573 q 803 539 774 539 l 803 528 q 662 511 726 511 l 560 511 l 526 506 q 498 511 517 511 q 363 489 420 489 l 340 494 l 296 483 q 279 489 284 489 q 211 387 249 471 q 81 111 81 141 l 109 105 l 172 105 q 250 100 215 105 q 329 105 277 105 l 340 100 q 363 105 351 105 l 397 100 q 403 105 403 100 l 679 88 l 679 77 l 645 71 q 633 83 645 83 q 459 49 633 53 l 459 43 l 481 43 l 493 49 q 521 38 521 43 l 532 43 l 538 43 q 543 38 543 43 l 555 43 l 645 38 q 662 43 651 38 q 713 32 672 38 q 752 38 735 38 l 752 26 q 730 -7 733 26 q 667 -13 667 -7 q 650 -7 656 -7 q 589 -19 589 -11 q 538 -47 589 -47 l 408 -47 q 403 -41 403 -47 l 391 -47 l 380 -47 q 374 -41 374 -47 l 363 -47 q 2 -53 106 -53 q -116 -278 -20 -74 l -122 -278 l -127 -267 q -37 -92 -49 -96 q -54 -69 -45 -69 l -60 -69 q -99 -137 -60 -90 l -105 -137 q -88 -58 -88 -79 q -94 -64 -94 -58 q -178 -30 -178 -47 l -178 -7 l -167 9 l -167 21 q -201 38 -201 26 q -127 83 -188 71 q 92 528 -115 123 q 329 957 329 947 l 329 979 l 318 996 l 307 990 l 301 990 l 301 996 q 363 1030 301 1008 q 414 1080 373 1065 l 419 1109 l 391 1114 q 374 1109 380 1109 l 369 1120 l 453 1148 q 498 1154 484 1154 q 521 1148 511 1154 l 707 1160 l 718 1154 q 803 1165 789 1161 m 645 1114 l 645 1109 l 673 1103 l 684 1103 q 707 1109 697 1103 q 730 1103 717 1103 l 741 1103 l 741 1114 q 730 1120 730 1114 q 645 1114 695 1114 m 747 1109 l 764 1109 l 764 1120 l 758 1120 q 747 1109 747 1118 m 774 1120 l 769 1109 l 774 1109 q 825 1114 805 1114 l 825 1120 l 774 1120 m 346 1120 l 363 1120 l 363 1109 l 346 1109 l 346 1120 m 459 1097 l 459 1092 l 476 1092 q 487 1103 487 1092 l 476 1109 l 470 1109 q 459 1097 459 1107 m 859 1047 l 859 1041 l 899 1041 l 899 1047 l 859 1047 m 764 1041 l 764 1036 l 786 1036 l 786 1041 l 764 1041 m 1084 1019 q 1101 1002 1084 1015 l 1164 1013 q 1186 1002 1186 1008 q 1237 1007 1207 1007 l 1237 1013 l 1198 1019 l 1118 1013 l 1084 1019 m 791 1013 l 791 1002 l 825 1002 q 814 1013 825 1013 l 791 1013 m 949 1013 l 949 1007 l 972 1007 l 972 1013 l 949 1013 m 713 1007 l 713 1002 l 758 1002 l 758 1007 l 713 1007 m 470 833 l 470 821 q 465 804 465 810 l 453 804 l 453 810 q 470 833 462 833 m -15 212 l -15 207 q -3 218 -3 207 l -3 224 q -15 212 -15 222 m -26 201 q -60 122 -60 134 l -43 122 q -15 201 -15 184 l -26 201 m 87 9 l 87 -2 l 98 -2 l 132 -7 q 160 9 160 0 l 87 9 m 165 4 l 165 -2 l 194 -2 l 194 4 l 165 4 z "},"F":{"ha":711,"x_min":-256,"x_max":1667,"o":"m 681 1165 q 729 1143 701 1143 q 1061 1138 951 1138 l 1099 1143 q 1265 1127 1158 1133 q 1335 1133 1331 1133 q 1560 1117 1442 1127 q 1597 1122 1581 1122 q 1645 1106 1645 1116 q 1619 1069 1645 1101 l 1619 1042 l 1629 1042 l 1629 1036 l 1624 1025 q 1667 1010 1667 1025 q 1662 1004 1662 1010 q 1109 988 1444 994 l 1109 994 l 1099 988 l 938 988 l 938 983 q 1029 977 1001 977 q 1040 967 1040 976 l 1029 962 q 884 967 1015 962 l 858 962 q 815 967 837 967 l 767 967 q 660 844 731 967 q 585 694 613 772 q 606 683 606 689 l 617 688 q 622 683 622 688 l 633 688 l 671 688 q 675 683 675 688 l 686 688 l 697 688 q 719 683 709 688 q 740 688 728 688 q 772 661 750 688 q 842 667 838 667 q 858 661 852 661 l 858 656 q 783 650 808 656 q 767 656 772 656 l 767 646 l 793 646 l 831 650 q 880 629 831 642 l 890 635 l 906 635 l 906 624 l 863 624 q 810 618 838 624 l 777 624 q 654 608 745 624 q 665 597 656 597 q 767 592 682 597 l 788 597 q 821 592 796 592 q 810 581 821 581 l 734 581 q 719 565 727 581 q 724 559 724 565 l 713 554 q 703 570 713 570 l 675 570 l 675 559 l 692 559 l 692 549 l 686 549 q 595 538 638 549 l 585 543 q 494 533 522 533 q 467 495 494 513 l 461 495 l 461 511 q 215 35 400 420 q 108 -180 204 32 q 65 -250 72 -250 q 54 -239 54 -250 q 81 -185 72 -197 q 76 -169 76 -174 l 71 -169 q 43 -191 71 -191 l 43 -180 l 38 -147 q 54 -99 54 -112 l 54 -78 q 1 -115 21 -110 l -5 -104 l -5 -94 q 38 -30 38 -46 l 33 -30 q 12 -14 12 -30 q 274 485 116 162 l 279 506 l 237 506 q 194 511 214 506 q 151 506 173 506 q 97 511 125 506 l 49 506 q -79 522 -47 510 l -149 522 q -176 554 -159 522 q -197 570 -197 554 l -192 581 q -214 613 -199 581 q -186 629 -214 625 l -186 640 q -203 650 -203 640 l -240 646 l -245 646 q -256 656 -256 646 q -245 667 -255 667 q -230 661 -235 661 q -127 694 -230 694 q -106 688 -116 694 l -74 694 q -53 688 -53 694 l 1 694 l 38 694 q 215 688 115 694 q 231 694 221 688 q 279 688 260 688 l 370 688 q 536 972 408 722 l 579 1053 l 579 1058 l 574 1084 q 627 1143 627 1092 q 681 1165 661 1143 m 1474 1058 l 1474 1053 q 1549 1042 1531 1042 l 1554 1053 l 1554 1058 l 1474 1058 m 799 1053 l 799 1047 l 821 1047 l 821 1053 l 799 1053 m 756 994 l 756 983 q 874 977 836 977 l 884 977 q 895 988 895 977 l 884 994 l 756 994 m 1061 977 q 1088 967 1079 967 l 1088 962 l 1045 962 l 1045 967 q 1061 977 1045 977 m -106 635 l -138 635 l -138 624 l -117 624 q -101 618 -101 624 l -74 624 l -5 624 q -31 640 -5 633 q -106 635 -77 635 m -133 554 l -133 543 l -85 538 l -58 543 l -58 554 l -133 554 m 6 549 l 6 543 q 17 538 17 543 q 33 543 27 543 l 33 549 l 6 549 m 49 549 l 49 543 l 76 538 l 156 538 q 167 549 167 538 l 156 549 q 151 543 151 549 l 124 549 l 49 549 m 231 24 l 231 13 q 194 -51 203 -51 l 194 -40 q 231 24 222 24 m 145 -147 l 145 -158 q 135 -169 145 -169 l 135 -158 q 145 -147 136 -147 m 130 -180 l 130 -191 q 108 -228 117 -228 l 108 -222 q 130 -180 115 -182 m 102 -239 l 102 -250 q 81 -281 88 -281 l 81 -276 q 102 -239 88 -239 z "},"G":{"ha":974,"x_min":-439,"x_max":1545,"o":"m 1468 1160 q 1491 1155 1478 1155 l 1527 1160 l 1527 1149 l 1509 1149 l 1509 1143 q 1545 1095 1545 1124 l 1533 1095 l 1515 1107 q 1485 1077 1506 1107 q 1474 1083 1474 1077 q 1324 1029 1364 1083 q 717 797 1031 958 q 467 595 616 751 l 467 576 l 496 576 q 502 570 502 576 l 514 576 l 520 576 q 526 570 526 576 l 538 576 l 640 576 q 734 570 673 576 l 747 576 q 925 541 925 551 q 937 553 937 541 l 967 547 l 985 547 q 1038 523 985 534 l 1038 511 l 1008 517 l 979 511 l 979 499 l 1038 493 l 1038 475 l 997 481 q 913 398 997 473 q 800 225 913 386 q 418 -281 551 -125 l 413 -281 q 395 -270 395 -275 l 275 -281 q 103 -138 275 -267 q 31 112 31 -24 q 25 148 25 112 q 79 398 25 265 l 79 404 q 61 398 61 404 l 31 404 l -344 380 l -350 392 l -350 398 q -302 416 -302 398 q -332 422 -332 416 l -362 416 l -392 416 q -427 433 -422 416 q -285 463 -285 448 l -320 463 q -326 481 -320 470 q -320 505 -320 492 l -344 505 l -344 511 q -332 523 -342 523 q -314 517 -321 517 q -309 541 -309 528 l -290 541 l -290 535 l -296 523 l -285 523 l -260 541 l -237 541 q -172 547 -212 541 q -165 541 -165 547 l -136 547 l -5 547 q 222 589 222 547 q 490 833 360 756 q 920 1042 762 1017 q 1468 1160 1043 1101 m 1348 1131 l 1348 1125 l 1384 1125 l 1420 1131 l 1420 1137 l 1414 1137 q 1348 1131 1381 1131 m 1265 1113 l 1265 1107 l 1289 1107 q 1307 1113 1300 1113 l 1307 1125 q 1265 1113 1293 1113 m 1312 1125 l 1312 1113 q 1337 1119 1323 1119 l 1337 1125 l 1312 1125 m 842 433 l 865 433 l 865 446 l 854 446 q 842 433 842 444 m 210 172 q 359 -121 210 -20 l 723 374 q 734 398 723 383 l 734 404 q 651 416 659 412 q 645 410 645 416 q 526 416 565 416 l 347 416 q 210 172 258 416 m -427 398 l -410 398 l -410 386 q -433 380 -423 386 l -439 392 l -427 398 m 85 279 l 85 267 l 91 267 q 121 345 91 281 l 115 356 q 121 374 121 368 l 115 374 q 85 279 101 374 m 580 70 l 580 64 l 585 64 q 640 130 585 78 q 741 296 741 281 q 580 70 691 247 m 723 207 q 526 -67 585 28 l 526 -73 l 532 -73 q 728 201 690 138 l 728 207 l 723 207 m 73 106 q 79 16 79 31 q 91 28 91 16 l 91 88 l 85 118 q 73 106 73 116 m 138 -25 l 138 -43 l 157 -43 q 138 -25 157 -35 m 443 -186 l 448 -186 q 514 -91 475 -160 l 508 -91 q 443 -186 443 -165 m 305 -102 l 305 -115 q 330 -144 317 -142 q 341 -132 341 -144 l 341 -121 q 305 -102 333 -121 z "},"H":{"ha":912,"x_min":-229,"x_max":1052,"o":"m 475 1163 l 485 1163 l 485 1149 l 490 1149 l 505 1158 l 509 1158 l 509 1154 q 500 1125 500 1138 l 505 1116 l 514 1120 l 524 1120 l 524 1111 l 533 1111 l 533 1116 q 528 1135 533 1126 q 547 1158 537 1156 l 547 1154 q 543 1135 547 1143 q 547 1116 547 1126 l 524 1078 q 528 1063 528 1068 l 437 878 l 428 878 q 447 930 428 886 l 447 935 l 442 935 q 347 749 403 867 l 347 744 q 399 839 371 762 q 423 868 419 868 l 423 863 q 366 739 423 852 l 366 734 l 371 734 q 418 810 397 794 l 418 801 q 385 730 385 745 l 385 720 q 404 715 396 720 l 414 720 l 423 715 q 442 720 426 715 q 485 715 468 715 q 490 720 490 715 l 514 715 l 533 715 q 714 711 600 715 q 766 758 753 711 q 895 1001 836 905 l 895 1010 l 904 1010 l 904 1001 l 909 1001 q 1009 1144 957 1083 l 1009 1135 l 995 1111 l 995 1106 l 1038 1149 l 1052 1149 q 1023 1087 1052 1130 l 1023 1078 l 1033 1078 q 1042 1092 1033 1092 q 1047 1078 1047 1082 q 1023 1015 1047 1075 l 1042 1029 l 1052 1025 q 895 682 933 802 q 595 -52 795 454 q 557 -123 589 -52 q 475 -242 531 -123 l 466 -247 l 461 -247 l 461 -242 l 480 -209 q 471 -199 480 -199 l 466 -199 q 395 -285 425 -255 q 376 -266 387 -285 q 538 149 444 -140 l 538 153 l 533 153 q 509 106 526 117 l 509 111 q 675 563 604 339 q 623 572 623 568 l 614 568 l 595 568 q 485 563 549 568 q 342 577 458 571 q 275 525 296 577 q 37 87 109 161 q -24 10 3 87 q -58 -28 -52 -28 q -62 -23 -58 -23 q 14 115 14 97 l 9 139 l -1 139 q -58 30 -52 30 q -67 44 -67 30 q -53 120 -58 120 l -58 130 q 138 572 -35 199 q 133 577 138 577 q 119 582 123 582 q -10 577 85 582 l -53 582 q -58 577 -58 582 q -224 591 -172 591 l -229 601 q -215 610 -215 601 l -191 606 l -158 606 q 33 610 -87 606 l 33 615 q -196 634 -131 625 l -215 634 l -220 659 l -191 659 l -191 654 l -196 644 l -177 644 l -182 654 l -172 659 l -163 659 l -163 649 l -153 649 l -153 659 l -139 659 l -115 663 l -115 668 l -153 682 l -153 692 l -149 692 q -144 687 -144 692 l -134 692 l -62 692 q 4 687 -37 692 q 33 692 12 692 l 42 687 q 75 696 66 696 l 71 706 l 71 711 l 104 711 l 104 706 l 95 692 l 147 692 l 147 701 l 133 701 l 133 711 l 161 711 l 161 706 l 157 696 l 180 692 l 185 692 q 195 701 195 692 l 185 701 l 185 711 q 266 810 224 711 q 475 1163 412 1092 m 966 1063 q 947 1020 947 1023 l 947 1015 l 952 1015 q 971 1063 952 1021 l 966 1063 m 490 1025 q 461 972 490 1015 l 452 944 q 495 1015 458 944 l 495 1025 l 490 1025 m 938 1010 q 933 996 938 1006 l 933 991 l 938 991 q 943 1006 938 997 l 943 1010 l 938 1010 m 1009 991 l 1009 987 l 1014 987 l 1019 1006 q 1009 991 1009 1006 m 861 920 l 861 916 l 866 916 q 876 935 866 923 l 876 939 q 861 920 869 939 m 914 873 q 909 859 914 867 l 909 854 l 914 854 q 919 868 914 859 l 919 873 l 914 873 m 804 796 l 804 791 l 809 791 q 833 844 833 836 q 804 796 826 843 m 833 791 q 847 815 844 791 q 833 791 836 815 m 871 787 q 861 768 871 779 l 861 763 q 876 782 869 763 l 876 787 l 871 787 m 614 582 l 647 582 l 671 587 l 671 596 q 614 582 614 594 m 95 220 l 104 220 l 261 549 l 266 568 q 138 311 255 568 q 95 220 104 252 m 766 492 q 709 349 709 355 q 771 477 727 366 l 776 487 l 766 492 m 795 492 q 785 473 795 484 l 785 468 l 795 468 l 800 487 l 800 492 l 795 492 m -20 168 q -39 130 -20 160 l -39 111 l -34 111 q -15 163 -15 155 l -15 168 l -20 168 m 633 87 q 661 144 647 87 l 656 144 q 633 87 647 144 m 509 106 l 509 101 q 495 73 505 73 l 495 77 q 509 106 500 106 m 628 82 l 595 5 l 595 -4 l 600 -4 q 633 73 600 5 l 633 82 l 628 82 m 490 63 l 490 58 q 466 5 478 5 l 466 15 q 490 63 481 63 m 433 -204 l 442 -204 q 528 20 519 -19 q 433 -204 505 -14 m 456 -18 l 456 -28 q 447 -37 456 -37 l 447 -28 q 456 -18 448 -18 m 566 -52 q 562 -66 566 -56 l 571 -66 l 571 -52 l 566 -52 m 428 -94 l 428 -104 q 418 -113 428 -113 l 418 -104 q 428 -94 420 -94 z "},"I":{"ha":384,"x_min":-127,"x_max":519,"o":"m 444 1158 l 456 1158 l 450 1102 l 462 1102 l 506 1158 l 506 1152 q 406 870 482 1031 l 406 864 l 412 864 q 494 1046 483 1042 l 519 1046 l 519 1039 q 506 983 506 998 l 512 970 l 111 -14 q -20 -220 61 -156 q -77 -264 -20 -250 q -96 -283 -77 -273 l -108 -283 q -83 -208 -108 -249 l -83 -189 q -96 -176 -83 -176 q -115 -220 -115 -212 l -127 -220 q -26 62 -71 1 q 425 1127 148 540 q 444 1158 439 1127 m 161 250 q 149 212 149 216 q 174 250 157 212 l 161 250 m -45 -214 l -45 -220 l -39 -220 q -7 -170 -39 -213 l -20 -170 q -45 -214 -45 -180 z "},"J":{"ha":625,"x_min":-296,"x_max":2116,"o":"m 228 1159 l 259 1159 q 271 1140 271 1159 q 475 1122 467 1128 q 481 1128 481 1122 q 616 1122 574 1122 l 740 1122 q 753 1134 753 1122 l 715 1134 l 715 1146 l 795 1146 l 795 1134 l 765 1134 l 765 1122 l 931 1122 q 987 1116 954 1122 q 1042 1140 1042 1124 l 1135 1140 q 1197 1146 1195 1140 q 1283 1140 1249 1140 l 1628 1140 l 1666 1134 l 1678 1140 q 2048 1109 2001 1126 l 2085 1122 l 2085 1109 l 1962 1091 l 1962 1084 q 1980 1072 1980 1084 q 1962 1054 1980 1063 q 1943 1060 1950 1060 q 1919 1048 1943 1048 l 1919 1042 q 1931 1029 1921 1029 l 1943 1029 q 2036 1023 1982 1029 q 2079 1029 2060 1029 q 2116 992 2116 998 q 2079 980 2096 980 l 2024 980 q 1968 962 1991 980 l 1881 962 q 1857 968 1868 962 l 1845 962 q 1764 968 1792 968 q 1740 962 1740 968 l 1678 968 l 1209 968 q 1184 962 1195 968 q 1160 968 1173 968 l 944 968 q 895 962 918 968 q 845 968 871 968 l 722 968 q 555 647 649 884 q 339 153 555 627 l 166 -211 q 191 -279 191 -271 q 136 -205 181 -279 l 123 -205 l 117 -235 q 136 -279 136 -258 l 136 -285 l 111 -267 l 68 -267 q -56 -26 68 -231 q -296 560 -224 346 l -296 578 q -284 560 -284 578 l -278 560 q -266 572 -266 560 l -284 640 l -284 647 l -272 647 l -123 338 l -117 338 l -117 345 q -204 585 -204 569 l -204 597 q -37 264 -157 526 q 104 12 90 24 q 543 962 302 477 q 530 974 530 962 l 518 968 l 481 968 q 475 974 475 968 q 456 968 463 968 l 444 974 q 438 968 438 974 l 395 974 l 339 974 q 327 992 339 992 l 321 992 q 130 1010 299 992 l 130 1017 l 136 1029 l 123 1029 l 123 1036 q 166 1066 123 1042 l 178 1066 l 191 1060 q 197 1097 191 1065 q 136 1109 182 1103 l 136 1122 l 178 1122 q 228 1159 201 1122 m 395 1153 l 518 1153 q 530 1140 530 1151 l 395 1140 l 395 1153 m 635 1146 l 654 1146 l 654 1134 l 635 1134 l 635 1146 m 827 1146 l 882 1146 l 882 1134 l 827 1134 l 827 1146 m 1024 1146 l 1024 1140 q 1012 1128 1024 1128 l 944 1128 l 944 1140 l 993 1140 l 1024 1146 m 216 1091 l 216 1084 l 290 1084 l 290 1091 l 216 1091 m 351 431 l 345 406 l 345 400 l 351 400 l 357 425 l 357 431 l 351 431 m 327 369 q 166 -1 267 243 q 333 363 220 66 l 333 369 l 327 369 z "},"K":{"ha":776,"x_min":-166,"x_max":1044,"o":"m 469 1158 q 487 1145 487 1152 q 478 1110 478 1114 l 478 1106 q 530 1158 483 1106 l 535 1158 l 552 1137 q 509 1032 543 1098 q 500 1010 509 1021 l 505 989 l 374 753 q 378 749 378 753 q 543 845 398 749 q 748 949 673 922 q 779 971 748 965 q 1036 1097 890 1044 l 1040 1088 q 831 967 894 1009 q 931 1010 841 967 q 1023 1041 1007 1041 l 1023 1036 l 1018 1027 q 1027 1019 1027 1026 q 1023 1015 1023 1019 l 1044 1015 q 979 967 1044 1006 q 709 819 951 945 l 709 814 l 713 814 l 744 823 l 748 814 l 300 566 q 287 553 294 566 q 431 292 294 528 q 595 14 595 30 q 526 122 590 14 l 522 122 l 522 118 q 552 61 536 77 l 548 52 q 591 -22 554 52 q 713 -231 690 -201 q 726 -256 713 -241 l 726 -261 l 722 -261 l 687 -222 q 683 -227 683 -222 l 674 -222 l 670 -222 q 661 -235 670 -235 q 687 -279 661 -239 l 678 -283 q 635 -243 678 -267 q 600 -209 635 -238 q 539 -126 568 -153 l 539 -135 q 618 -274 618 -259 l 613 -274 q 444 -13 518 -168 q 195 410 351 166 l 178 410 q 21 113 131 327 q -44 26 -22 96 q -96 -47 -44 9 q -140 -139 -128 -134 l -144 -139 q -136 -104 -144 -136 q -140 -92 -136 -100 l -136 -65 l -136 -61 l -140 -61 l -149 -65 q -166 -52 -166 -58 q -149 -17 -149 -34 l -149 -13 q -162 -4 -162 -13 q -31 279 -162 38 q 3 340 -24 298 q 21 370 3 348 q 56 453 21 380 q 64 444 64 452 q 60 431 60 436 l 69 431 q 121 532 69 441 q 113 540 121 540 q 108 536 113 536 l 108 553 q 125 570 108 560 q 130 562 125 562 q 195 671 157 580 l 186 675 q 174 658 178 658 l 178 649 q 169 640 178 640 l 165 640 l 165 644 q 208 701 180 699 q 217 710 217 701 l 217 714 q 204 719 204 714 q 221 745 214 745 l 221 723 l 230 723 l 235 753 l 226 753 q 239 779 229 779 l 243 779 l 243 775 l 235 762 l 235 758 l 239 758 q 309 876 309 851 l 309 884 l 300 884 l 300 892 q 321 941 321 920 q 343 962 339 962 l 339 971 q 361 1010 361 1000 l 370 1010 l 370 1002 l 374 1002 q 378 1015 374 1015 l 374 1023 q 439 1119 410 1119 q 469 1158 465 1158 m 796 849 l 800 849 l 800 845 q 770 823 800 840 l 753 823 l 753 832 q 796 849 782 840 m 256 819 l 269 819 q 260 810 269 810 l 256 810 l 256 819 m 687 806 l 687 802 l 696 802 q 701 814 696 806 l 696 814 q 687 806 687 813 m 165 640 l 165 636 q 156 614 156 625 l 147 614 l 147 623 q 165 640 147 629 m 108 536 l 108 532 q 95 518 108 525 l 95 523 q 108 536 95 529 m 378 349 l 378 340 q 431 239 394 322 q 487 135 435 239 l 496 135 l 496 140 q 382 349 496 155 l 378 349 m 330 318 l 330 309 q 500 5 438 81 l 500 14 q 330 318 363 272 m 374 300 l 374 292 q 382 266 382 277 q 391 275 391 266 q 374 300 379 300 m 387 261 q 452 131 403 235 l 460 135 q 391 261 401 255 l 387 261 m -75 122 l -75 118 l -71 118 l -44 174 l -44 179 q -75 122 -75 149 m 469 109 l 469 100 q 513 31 494 46 l 513 39 l 469 109 m 452 43 l 452 39 q 505 -47 480 -25 l 509 -47 q 452 43 484 9 m 517 18 q 552 -43 517 -1 l 552 -39 l 526 18 l 517 18 m 595 14 q 709 -174 612 -1 l 705 -174 q 595 14 595 -8 m 574 -139 l 574 -144 q 583 -152 575 -152 l 583 -148 q 574 -139 583 -139 m 635 -170 q 656 -191 635 -181 l 661 -182 q 644 -161 644 -177 q 635 -170 635 -162 m 713 -182 q 731 -204 720 -183 l 726 -204 q 713 -191 720 -204 l 713 -182 m 674 -204 l 674 -209 q 683 -218 675 -218 l 683 -204 l 674 -204 z "},"L":{"ha":477,"x_min":-56,"x_max":1968,"o":"m 673 1163 q 667 1106 667 1117 l 678 1111 q 688 1101 688 1109 q 678 1059 678 1063 l 667 1059 l 663 1095 l 657 1095 q 626 1023 626 1054 l 626 1017 q 642 1013 631 1017 q 647 1033 647 1021 l 657 1033 q 475 596 632 948 q 350 331 392 397 q 314 269 335 277 q 309 273 314 273 q 283 221 309 246 q 277 201 277 212 l 277 195 l 288 195 q 277 185 288 185 l 267 190 q 215 81 267 174 l 215 65 l 231 65 l 231 60 q 210 50 222 60 l 215 39 l 215 29 l 205 29 l 205 39 l 178 3 q 174 -18 174 -6 l 174 -28 l 184 -28 l 184 -39 q 168 -54 184 -46 l 163 -54 l 168 -44 l 163 -44 q 137 -91 147 -44 q 184 -112 137 -100 q 189 -106 189 -112 l 225 -112 q 366 -106 239 -112 q 459 -112 438 -112 l 470 -106 q 491 -112 479 -112 l 511 -112 q 558 -106 530 -112 q 564 -112 564 -106 l 616 -106 l 683 -106 q 688 -112 688 -106 q 704 -106 699 -106 q 922 -96 821 -106 q 928 -101 928 -96 l 1146 -85 l 1156 -91 q 1177 -85 1166 -85 q 1183 -91 1183 -85 q 1198 -85 1193 -85 q 1286 -80 1216 -85 l 1286 -85 q 1635 -54 1363 -75 l 1635 -64 q 1625 -80 1625 -64 l 1609 -80 l 1584 -85 l 1584 -80 q 1349 -101 1427 -101 l 1339 -101 q 1318 -106 1327 -101 q 1313 -101 1313 -106 q 1047 -117 1236 -112 l 1047 -127 l 1053 -127 q 1339 -117 1200 -127 l 1339 -127 q 1276 -138 1318 -127 q 1245 -132 1249 -132 l 1193 -138 q 1208 -148 1193 -148 q 1224 -143 1214 -148 q 1240 -148 1230 -143 q 1479 -127 1337 -143 l 1479 -122 l 1453 -127 q 1432 -122 1441 -127 l 1401 -127 l 1349 -127 l 1349 -117 l 1391 -117 l 1442 -112 l 1442 -117 l 1453 -112 q 1458 -117 1458 -112 l 1485 -112 l 1520 -112 q 1526 -117 1526 -112 q 1594 -106 1550 -106 l 1619 -106 q 1630 -122 1630 -106 l 1693 -117 l 1693 -122 q 1807 -106 1745 -106 l 1812 -117 q 1802 -127 1812 -127 l 1791 -127 q 1771 -122 1780 -127 q 1703 -138 1720 -138 l 1630 -138 l 1630 -143 q 1640 -153 1632 -153 q 1786 -138 1735 -148 q 1807 -143 1795 -143 q 1750 -179 1782 -179 q 1037 -231 1146 -231 l 1037 -226 l 1027 -231 l 969 -231 l 918 -237 l 918 -241 l 1068 -241 q 1146 -237 1095 -241 l 1152 -247 q 928 -268 1110 -255 l 928 -262 q 922 -268 922 -262 q 782 -273 826 -273 l 725 -273 l 694 -278 q 688 -273 688 -278 l 652 -278 l 517 -278 q 511 -273 511 -278 l 501 -278 l 459 -278 q 449 -268 449 -278 q 454 -262 454 -268 l 491 -268 q 538 -262 509 -268 l 548 -268 q 585 -262 568 -262 q 574 -252 585 -252 q 553 -257 565 -257 l 553 -247 l 579 -247 l 579 -241 q 454 -231 524 -231 l 454 -226 l 444 -231 l 387 -231 q 246 -226 319 -231 l 178 -237 q 48 -226 66 -226 q 17 -237 31 -237 q -19 -221 -2 -221 l -19 -216 l -3 -184 l -9 -174 q 7 -138 -9 -161 l -3 -132 l -24 -132 q -45 -163 -24 -151 l -56 -163 q -19 -91 -41 -122 l -14 -91 q 1 -117 1 -91 l 12 -117 q 22 -106 22 -117 l 17 -44 q 121 164 41 -26 q 147 248 147 204 q 137 258 137 248 q 189 351 156 266 q 543 1111 356 681 l 548 1111 q 553 1090 553 1102 l 564 1090 q 600 1153 587 1153 l 605 1142 q 564 1038 605 1129 l 585 1023 q 663 1163 633 1066 l 673 1163 m 511 1013 l 511 997 q 532 1017 519 997 l 527 1017 q 511 1013 517 1013 m 459 898 l 459 861 l 465 861 q 480 892 465 873 l 480 918 q 511 981 498 920 l 511 986 q 475 913 496 978 q 459 898 469 898 m 433 830 l 433 814 l 439 814 q 454 856 454 846 q 433 830 447 856 m 69 112 l 75 112 l 75 107 q 64 96 75 96 l 59 107 l 69 112 m 199 18 l 210 14 q 184 -28 196 -28 l 184 -23 q 199 18 184 -17 m 1874 -91 q 1906 -101 1906 -96 l 1916 -96 l 1921 -96 l 1921 -106 l 1880 -106 l 1853 -112 l 1849 -101 l 1849 -96 q 1874 -91 1866 -96 m 1952 -122 l 1958 -122 q 1968 -132 1968 -123 l 1952 -132 l 1952 -122 m 1042 -148 l 1089 -148 l 1084 -138 q 1078 -143 1078 -138 l 1053 -138 q 1042 -148 1042 -139 m 907 -148 l 907 -153 l 938 -153 q 922 -143 938 -143 q 907 -148 912 -148 m 1006 -143 l 1006 -148 l 1031 -148 l 1031 -143 l 1006 -143 m 631 -153 l 558 -153 l 558 -159 l 616 -159 l 616 -163 l 626 -159 l 761 -159 q 751 -148 761 -148 q 667 -153 721 -148 q 663 -148 663 -153 l 631 -153 m 766 -148 l 766 -153 q 829 -159 792 -153 q 844 -153 839 -153 l 844 -148 l 766 -148 m 860 -148 l 860 -153 l 881 -153 l 881 -148 l 860 -148 m 1 -190 l 1 -195 q 12 -205 3 -205 l 12 -190 l 1 -190 m 1599 -205 l 1599 -210 q 1329 -237 1599 -231 l 1302 -241 l 1302 -237 l 1292 -241 l 1266 -241 l 1266 -231 q 1599 -205 1323 -231 m 1635 -205 l 1662 -205 l 1662 -216 l 1635 -216 l 1635 -205 m 585 -237 l 585 -241 l 652 -241 q 657 -247 657 -241 q 694 -241 664 -241 l 694 -237 l 626 -237 q 605 -231 614 -237 q 585 -237 596 -237 m 1156 -237 l 1240 -237 l 1240 -247 l 1219 -247 q 1214 -241 1214 -247 q 1162 -252 1201 -247 l 1156 -241 l 1156 -237 m 496 -247 l 511 -247 l 511 -257 l 496 -257 l 496 -247 m 90 -257 l 116 -262 l 283 -262 l 283 -273 l 85 -273 l 85 -268 l 90 -257 m 303 -262 l 324 -262 l 324 -273 l 303 -273 l 303 -262 z "},"M":{"ha":920,"x_min":-130,"x_max":1033,"o":"m 404 1163 l 404 1156 q 386 1126 395 1135 q 401 1061 395 1109 q 427 903 410 1061 q 461 606 446 808 l 469 606 q 867 952 640 744 q 1002 1054 975 1047 l 1006 1046 q 976 1020 985 1034 q 983 1013 983 1019 l 976 1002 l 976 998 q 991 990 982 998 q 1017 1017 991 996 l 1029 1017 q 1033 979 1033 983 q 709 298 935 743 l 536 -93 q 457 -232 510 -93 l 427 -285 l 423 -277 q 476 -161 475 -177 l 469 -157 q 457 -180 463 -180 l 454 -172 q 498 -59 454 -166 l 495 -59 q 438 -165 475 -70 l 435 -165 l 438 -172 l 438 -180 q 431 -187 438 -187 q 423 -180 423 -187 q 472 -66 423 -170 q 513 68 472 -54 q 690 467 513 108 l 837 783 q 841 798 841 790 l 837 798 q 472 471 669 642 l 469 464 q 472 430 472 444 l 454 422 q 461 385 457 413 l 450 385 q 438 430 448 430 l 420 430 l 416 411 q 427 321 416 365 l 420 317 q 401 407 411 326 l 393 407 l 389 381 l 389 370 l 386 370 l 359 392 l 359 396 l 374 414 l 374 441 q 371 456 374 450 q 374 460 371 460 l 371 479 l 371 482 q 337 851 355 762 q 340 854 337 854 q 337 885 337 869 l 333 885 q 130 433 179 553 q 107 399 111 399 l 107 411 q 156 531 126 445 l 149 531 q -28 121 32 252 q -73 80 -59 99 q -77 83 -73 83 q -39 193 -39 182 l -39 197 l -43 197 q -111 58 -90 109 l -122 50 l -130 50 l -130 54 q 9 370 -81 138 l 9 389 l 6 389 q -58 223 6 380 q -73 200 -67 200 q -77 212 -77 208 l -73 231 q -84 245 -83 231 q 119 696 -35 349 q 333 1095 237 960 l 337 1095 l 333 1088 l 333 1080 l 345 1080 q 382 1137 351 1080 q 404 1163 401 1163 m 243 825 l 243 817 q 330 990 260 828 l 330 1005 q 243 825 282 927 m 912 768 l 920 768 q 995 960 980 906 q 912 768 966 913 m 867 900 l 867 896 q 878 907 873 896 l 878 911 q 867 900 873 911 m 781 776 l 785 776 q 871 851 853 833 l 871 862 l 781 776 m 807 847 l 807 840 q 818 844 814 844 l 818 851 q 807 847 811 847 m 751 791 l 754 791 q 781 813 781 806 l 781 817 l 777 817 q 751 791 771 817 m 197 802 l 175 745 l 175 742 l 179 742 q 201 798 179 748 l 201 802 l 197 802 m 412 791 l 412 783 q 420 565 412 693 l 427 565 q 420 779 420 729 q 416 791 416 787 l 412 791 m 732 779 l 732 772 q 751 787 749 779 l 747 787 q 732 779 738 779 m 216 776 l 216 761 l 220 761 l 224 776 l 216 776 m 593 682 l 593 678 l 596 678 q 690 764 605 678 l 690 768 q 593 682 646 739 m 513 580 l 513 569 l 559 606 q 724 764 636 666 l 720 764 q 513 580 613 665 m 720 720 l 724 720 q 766 761 766 749 l 762 761 q 720 720 757 761 m 85 538 q 175 738 101 545 q 85 538 149 712 m 570 659 l 570 655 l 574 655 q 593 674 578 655 l 589 674 q 570 659 572 667 m 378 659 l 378 610 q 386 516 378 557 l 393 516 q 382 640 389 589 l 386 640 q 382 659 382 646 l 378 659 m 562 655 q 544 637 562 653 l 544 629 q 570 648 563 648 q 562 655 570 655 m 818 603 q 810 580 818 596 l 818 580 q 822 599 818 593 l 822 603 l 818 603 m 472 538 l 472 531 q 510 565 482 531 l 510 572 q 472 538 472 542 m 164 565 l 156 543 l 156 538 l 160 538 q 172 562 160 544 l 164 565 m 386 452 l 386 445 q 393 437 387 437 l 397 437 l 397 460 l 393 460 q 386 452 386 458 m 454 452 l 454 448 l 457 430 l 461 430 l 461 445 q 454 452 461 452 m 107 396 l 107 389 q 100 366 100 376 l 92 366 q 107 396 99 396 m 611 264 q 532 73 554 137 l 532 68 q 570 151 539 68 q 615 260 576 154 l 615 264 l 611 264 m 487 -108 q 479 -134 479 -132 q 495 -108 495 -128 l 487 -108 z "},"N":{"ha":1007,"x_min":-110,"x_max":1297,"o":"m 1262 1162 q 1272 1152 1272 1160 l 1272 1142 q 1182 997 1272 1126 q 953 568 1044 764 l 953 563 l 958 563 q 1067 772 966 564 l 1097 817 q 1112 798 1105 798 q 1242 1037 1223 1019 l 1247 1037 q 1252 1032 1247 1032 q 1292 1082 1279 1078 l 1297 1082 l 1297 1077 q 1207 927 1297 1057 q 848 254 960 500 q 947 429 857 254 q 983 469 951 429 l 983 458 q 663 -150 789 142 q 604 -195 639 -183 q 574 -230 595 -218 q 568 -225 574 -225 q 604 -160 568 -220 l 598 -150 q 604 -135 604 -140 q 578 -115 602 -122 q 553 -135 578 -122 q 513 24 527 -106 l 519 24 l 513 35 q 519 39 513 39 q 498 194 509 94 q 504 199 498 199 l 498 219 q 474 723 498 451 q 304 389 304 414 l 289 389 l 289 399 l 284 399 l 279 374 l 289 378 l 289 374 q 184 159 197 170 l 180 159 l 170 164 q -50 -275 144 134 l -65 -285 q -75 -275 -75 -285 q -25 -170 -25 -181 l -35 -170 q -70 -215 -64 -215 l -75 -205 q -15 -56 -15 -68 l -30 -35 l 40 119 l 30 124 q -100 -145 -39 1 l -105 -145 l -110 -135 q 104 279 -31 56 q 474 982 393 844 q 509 1022 503 1022 q 513 1007 513 1013 q 553 1037 539 1037 l 553 1032 q 524 952 524 966 q 528 947 528 952 l 538 952 l 559 952 q 578 857 574 918 l 589 852 l 589 867 l 598 867 l 598 863 q 638 209 622 621 l 633 199 q 644 104 644 159 l 644 79 l 653 79 q 943 678 760 336 l 947 678 l 943 653 q 1162 1022 1101 911 q 1252 1157 1211 1060 l 1262 1162 m 1107 1002 l 1112 1002 l 1112 992 q 977 738 1080 908 l 977 743 q 1067 927 977 758 q 1107 1002 1100 1002 m 534 927 l 534 897 q 544 887 535 887 l 544 927 l 534 927 m 538 863 l 534 838 l 534 808 q 544 798 535 798 q 549 863 544 801 l 538 863 m 583 848 l 583 833 q 618 204 604 307 q 614 199 614 204 l 623 199 l 623 254 l 618 304 l 623 304 l 618 314 l 618 329 q 614 393 618 361 q 618 408 614 399 q 589 848 614 566 l 583 848 m 429 827 q 294 583 420 804 q 199 363 199 374 q 439 827 348 624 l 429 827 m 464 778 q 389 598 397 631 l 389 593 q 474 778 474 749 l 464 778 m 538 732 l 544 688 q 559 214 544 593 l 568 214 q 564 414 568 229 l 559 433 q 564 439 559 439 l 559 463 l 559 503 q 549 732 559 585 l 538 732 m 968 723 l 968 713 q 953 693 960 693 l 953 703 q 968 723 960 723 m 1093 668 q 1097 663 1093 663 q 1057 603 1097 644 l 1057 613 q 1093 668 1077 659 m 568 653 l 568 633 l 574 633 l 574 653 l 568 653 m 574 623 l 574 528 l 578 498 q 574 493 578 493 l 578 469 l 578 349 l 589 349 q 578 623 589 410 l 574 623 m 932 518 l 932 513 l 947 513 l 943 524 l 947 548 q 932 518 932 543 m 314 454 l 314 448 q 324 458 324 448 l 324 463 q 314 454 314 462 m 269 414 q 284 439 281 414 q 269 414 273 439 m 534 414 l 534 289 q 538 239 538 245 l 544 239 l 544 259 q 538 414 538 351 l 534 414 m 250 384 q 239 359 250 375 l 239 353 l 244 353 q 254 378 244 362 l 254 384 l 250 384 m 165 349 l 159 323 q 170 338 170 323 l 170 349 l 165 349 m 189 349 q 184 334 189 343 l 184 329 l 189 329 q 195 344 189 334 l 195 349 l 189 349 m 229 338 l 229 334 l 239 334 l 239 349 q 229 338 229 347 m 149 314 l 104 214 l 115 214 l 155 309 l 155 314 l 149 314 m 214 314 q 199 283 214 302 l 199 274 q 219 309 210 274 l 219 314 l 214 314 m 189 269 l 180 239 l 180 234 l 184 234 q 195 259 184 243 l 195 269 l 189 269 m 159 209 q 155 189 159 198 l 155 184 l 159 184 q 165 199 159 189 l 165 209 l 159 209 m 618 189 l 618 139 l 623 139 l 623 189 l 618 189 m 564 179 l 564 159 q 574 39 564 151 l 578 39 l 578 60 q 568 179 578 68 l 564 179 m 623 69 l 623 54 q 633 64 633 54 l 623 69 m 574 29 l 583 -75 l 593 -75 q 583 29 583 5 l 574 29 z "},"O":{"ha":1086,"x_min":-5,"x_max":1385,"o":"m 1280 1158 q 1367 1103 1328 1158 l 1312 1103 q 1107 1053 1233 1103 l 1107 1047 l 1114 1047 q 1373 1059 1291 1059 l 1385 1059 l 1385 1047 l 1361 1047 q 1355 1053 1355 1047 l 1021 1004 q 959 985 1021 996 l 959 973 l 1052 991 l 1058 991 l 1058 979 q 644 819 644 870 q 353 503 441 649 q 217 132 217 262 q 353 -66 217 -1 q 397 -72 378 -72 q 804 293 669 37 q 866 571 842 410 l 879 571 l 866 454 q 897 546 885 454 q 891 595 891 570 l 891 614 l 903 614 q 909 484 909 521 q 879 317 909 436 q 959 522 913 348 q 996 688 981 688 q 1002 682 996 682 q 990 608 996 676 l 990 602 l 996 602 q 1027 756 1021 671 q 1015 793 1015 782 l 1027 800 q 1064 701 1045 800 q 860 71 1064 456 q 452 -239 699 -166 q 242 -276 343 -276 q -5 95 -5 -208 q 273 720 -5 439 q 650 1004 363 819 q 1280 1158 968 1158 m 978 1059 l 978 1053 q 1034 1047 1029 1053 q 1095 1072 1084 1072 l 1095 1084 l 978 1059 m 199 571 q 415 787 334 700 q 489 861 489 833 q 217 602 363 788 q 199 571 199 587 m 211 256 q 273 392 218 256 q 551 763 340 543 l 551 769 q 322 522 342 614 q 211 256 267 458 m 137 404 l 137 398 l 143 398 q 279 614 279 587 q 137 404 191 538 m 947 355 l 947 349 l 953 349 q 1021 602 1021 545 q 947 355 980 534 m 174 546 l 174 540 q 186 553 186 540 l 186 559 q 174 546 174 557 m 124 472 q 32 157 32 256 q 75 -97 44 -40 l 81 -97 l 81 -84 q 62 45 62 -45 q 81 268 62 145 l 75 280 q 131 466 94 361 l 131 472 l 124 472 m 193 212 l 193 206 q 205 218 205 206 l 205 224 q 193 212 193 223 m 804 175 l 804 169 l 810 169 q 836 218 836 210 q 804 175 821 215 m 131 212 q 100 89 112 157 q 137 -97 112 -38 l 143 -97 l 143 -84 q 124 21 124 -2 l 131 33 q 124 58 124 44 q 131 83 124 72 q 124 101 124 94 q 137 206 137 199 l 137 212 l 131 212 m 594 -22 l 594 -28 q 724 101 615 -28 l 724 107 l 718 107 q 594 -22 594 -8 m 768 27 q 650 -97 768 19 l 656 -97 q 774 21 739 -23 l 780 21 l 780 27 l 768 27 m 180 -66 l 180 -72 q 242 -134 193 -134 l 260 -134 l 260 -127 l 180 -66 m 304 -165 l 378 -165 l 409 -159 l 409 -153 l 316 -153 q 304 -165 304 -155 m 193 -159 l 193 -165 q 248 -195 217 -195 l 260 -195 l 260 -189 q 193 -159 252 -189 z "},"P":{"ha":808,"x_min":-193,"x_max":1042,"o":"m 880 1162 l 880 1157 l 890 1162 l 913 1162 l 909 1138 q 1042 985 1042 1071 q 975 790 1019 829 q 852 671 933 720 l 846 680 q 937 776 923 747 l 932 776 q 718 614 787 636 q 260 404 330 404 q 103 89 243 404 q 94 79 103 79 l 94 89 l 122 156 l 122 161 l 117 161 q -35 -135 33 -13 q -106 -278 -35 -147 l -117 -278 l -117 -269 q -83 -182 -83 -203 q -97 -168 -97 -182 q -87 -140 -87 -153 l -87 -135 q -136 -221 -102 -146 q -183 -283 -154 -222 l -188 -283 q -193 -278 -188 -278 q -50 3 -110 -130 l -50 13 q -121 -125 -70 -4 l -126 -125 q -136 -116 -136 -125 q -131 -97 -131 -108 l -140 -97 q -97 -6 -132 -50 l -97 -16 q -121 -83 -121 -62 q -54 60 -54 24 l -64 60 q -83 27 -64 39 l -83 37 l 103 418 l 103 422 q 98 427 98 422 q 41 413 79 418 l 41 422 q 146 504 146 445 q 365 909 222 655 l 365 913 q 155 790 356 913 l 151 790 q 341 924 161 808 l 346 933 l 341 933 q 103 781 210 854 l 98 781 l 94 790 q 260 913 109 820 q 275 918 269 918 l 275 924 l 270 924 q 56 795 225 915 q 36 776 56 787 l 26 776 l 26 785 q 880 1162 487 1162 m 808 1080 l 808 1076 l 846 1076 l 846 1086 l 832 1086 l 808 1080 m 728 1066 l 728 1061 l 742 1061 q 756 1066 751 1066 l 756 1071 l 751 1071 l 728 1066 m 947 1066 l 947 1057 q 961 1042 947 1050 l 961 1057 q 951 1066 961 1066 l 947 1066 m 832 1052 q 880 1028 832 1040 l 880 1033 q 846 1057 880 1048 q 832 1052 838 1052 m 327 551 q 332 547 332 551 q 389 575 370 547 q 661 704 441 575 q 866 913 809 789 l 866 947 q 756 1028 866 1009 q 566 981 586 1012 q 479 833 551 970 q 327 551 327 578 m 279 928 l 294 928 l 294 938 l 289 938 q 279 928 279 936 m 351 785 l 351 771 q 394 852 368 779 q 351 785 390 852 m 389 728 l 389 723 l 394 723 q 427 795 427 781 q 389 728 419 795 m 355 471 l 355 466 l 365 466 q 794 694 491 507 l 827 728 l 818 728 q 422 499 597 585 q 355 471 422 494 m 365 675 l 365 671 l 370 671 q 389 718 370 680 q 365 675 365 698 m 355 666 q 351 652 355 661 l 351 647 l 355 647 q 360 661 355 652 l 360 666 l 355 666 m 341 637 q 332 618 341 630 l 332 614 q 346 633 339 614 l 346 637 l 341 637 m 303 556 q 294 547 303 547 l 294 532 l 298 532 q 308 551 298 540 l 308 556 l 303 556 m 265 427 l 265 418 l 294 422 q 279 432 294 432 q 265 427 270 427 m 132 189 l 132 184 q 141 194 141 184 l 141 199 q 132 189 132 197 m 122 170 l 122 165 q 132 175 132 165 l 132 180 q 122 170 122 178 m -50 89 l -54 70 q -40 89 -47 70 l -50 89 m -31 -20 l -31 -30 l -26 -30 l -21 -6 q -31 -20 -31 -6 z "},"Q":{"ha":910,"x_min":-5,"x_max":1086,"o":"m 990 1162 q 1046 1152 997 1162 l 1046 1147 q 949 1116 1046 1137 l 944 1106 l 949 1106 q 1061 1126 1044 1126 q 1086 1111 1086 1120 q 939 1055 1086 1097 q 396 745 603 920 q 157 345 157 528 l 157 340 l 163 304 l 157 304 l 147 309 q 142 294 142 299 q 254 111 142 168 l 294 111 l 294 101 l 315 101 q 381 121 381 105 l 391 117 l 396 117 q 406 127 406 117 l 406 137 l 401 137 q 355 127 389 137 q 340 137 355 137 q 310 132 314 132 q 218 177 250 146 q 178 269 178 241 l 188 269 q 340 152 212 152 q 396 172 378 152 q 371 279 396 178 l 381 284 l 386 284 l 396 279 q 412 294 396 286 l 412 284 l 416 284 l 416 299 l 427 299 l 441 289 l 447 289 l 457 319 l 462 319 l 472 314 l 472 324 l 482 324 q 513 233 500 233 l 518 233 q 746 532 658 385 q 762 614 756 548 l 772 614 l 772 608 l 766 598 l 777 598 q 817 786 805 625 l 827 786 l 827 781 q 833 715 827 778 l 853 715 l 858 741 l 858 766 l 868 766 q 873 730 868 751 l 883 735 l 888 735 q 899 680 895 690 q 893 675 899 675 l 899 649 l 899 608 q 731 248 889 492 q 594 96 650 146 l 594 76 l 670 -31 l 670 -41 q 660 -46 660 -41 q 762 -173 660 -60 q 797 -239 797 -223 l 827 -239 q 863 -269 827 -248 q 848 -279 863 -279 q 812 -259 814 -279 l 762 -275 q 589 -147 741 -275 q 477 5 477 -12 q 315 -31 455 5 q 61 86 168 -31 q 26 187 26 149 q -5 248 -5 229 q 56 502 -5 348 q 345 878 71 585 q 584 1040 427 947 l 589 1040 l 569 1019 l 578 1019 q 960 1157 699 1092 l 990 1162 m 827 1101 l 827 1090 q 868 1111 855 1090 l 863 1111 q 827 1101 843 1101 m 772 1076 l 772 1070 l 787 1070 q 823 1086 787 1082 l 823 1090 l 812 1090 q 772 1076 778 1076 m 553 888 l 559 888 l 686 964 l 675 964 q 553 888 563 908 m 812 817 l 823 817 l 823 802 l 812 802 l 812 817 m 355 751 l 310 695 l 310 685 l 315 685 q 366 751 315 691 l 355 751 m 868 695 q 807 456 868 625 l 817 456 q 878 618 878 554 q 873 634 878 624 l 878 665 l 878 669 l 873 695 l 868 695 m 244 649 l 244 639 q 279 680 250 639 l 279 685 q 244 649 272 685 m 198 578 l 198 573 q 208 583 208 573 l 208 588 q 198 578 198 587 m 173 532 l 173 528 q 183 538 183 528 l 183 543 q 173 532 173 541 m 716 467 q 564 258 716 449 l 574 258 q 706 421 690 350 q 726 461 711 421 l 716 467 m 41 385 l 41 380 l 46 380 q 71 456 46 387 q 41 385 56 454 m 132 360 l 142 360 q 153 416 142 369 q 132 360 138 416 m 787 391 l 787 385 q 807 416 807 395 q 787 391 800 416 m 777 380 l 772 360 q 787 380 779 360 l 777 380 m 107 264 l 107 213 q 127 142 107 191 l 142 142 l 142 167 q 117 274 117 215 q 107 264 107 272 m 675 274 q 655 243 675 269 l 655 238 l 660 238 q 680 274 660 245 l 675 274 m 81 248 l 77 223 l 77 203 q 87 193 78 193 l 92 203 l 92 248 l 81 248 m 92 142 q 132 86 92 106 l 132 96 l 97 142 l 92 142 m 147 117 q 168 91 161 92 l 173 91 q 183 101 183 91 q 163 121 175 101 q 147 117 153 117 m 218 101 l 214 91 q 249 66 214 85 l 275 66 l 300 71 l 300 81 q 218 101 284 81 m 371 66 l 376 66 l 412 76 l 412 86 q 371 66 371 76 m 218 30 l 218 25 q 254 9 222 9 q 304 20 267 9 l 304 25 l 279 30 l 234 25 q 218 30 224 30 m 492 20 q 549 -66 528 -66 l 553 -66 l 553 -61 q 498 20 524 -11 l 492 20 m 701 -173 l 701 -183 q 716 -198 701 -191 l 721 -198 l 721 -193 q 701 -173 718 -178 z "},"R":{"ha":866,"x_min":-54,"x_max":1240,"o":"m 420 1162 l 425 1162 l 420 1152 l 420 1131 q 485 1162 485 1143 l 515 1157 q 656 1162 591 1162 l 661 1162 q 898 1051 760 1162 q 933 966 925 1004 l 933 915 q 878 759 916 811 q 777 633 856 739 l 772 633 l 772 644 l 787 663 l 777 663 q 374 432 600 511 q 264 417 318 417 q 525 195 335 334 q 767 39 545 186 q 1210 -212 951 -75 l 1210 -218 l 1190 -218 q 1139 -192 1139 -199 l 1129 -197 l 1119 -197 q 1114 -192 1114 -197 q 1084 -227 1095 -197 q 1114 -248 1114 -237 q 1094 -258 1102 -258 l 1069 -252 l 1069 -258 q 1084 -268 1069 -268 l 1084 -283 l 1079 -283 q 852 -152 1068 -283 q 480 85 700 -75 q 213 281 408 118 l 198 281 q 123 64 169 236 q 22 -52 113 24 l 12 -52 l 2 -36 l 2 -31 q 17 14 2 -19 l 17 19 l 12 19 q -49 -26 10 5 l -54 -26 l -54 -16 q 193 669 123 507 q 314 985 314 945 q 193 915 286 985 l 183 915 l 188 925 l 188 935 q 62 844 160 935 l 57 844 l 57 850 l 123 925 l 133 940 l 133 945 l 123 945 l 62 895 q 52 905 52 895 q 283 1081 146 1009 q 410 1157 410 1113 l 420 1162 m 878 1021 l 878 1016 q 888 1006 879 1006 l 888 1010 q 878 1021 888 1021 m 289 538 l 294 538 q 385 568 384 555 q 379 583 379 578 q 636 713 572 648 q 717 800 642 713 l 722 800 l 722 794 q 711 769 711 778 l 717 769 q 782 880 782 819 l 782 910 q 767 920 767 910 q 792 945 792 925 q 691 996 792 972 q 515 1016 610 1016 q 420 840 467 1016 q 289 538 399 818 m 349 966 l 349 960 q 364 975 356 960 l 364 981 q 349 966 357 981 m 354 870 l 359 870 q 374 900 374 875 q 354 870 366 900 m 827 850 l 827 840 q 842 854 834 840 l 842 860 l 838 860 q 827 850 827 858 m 283 513 l 283 507 l 294 507 q 309 513 303 513 l 309 507 q 455 557 431 529 l 450 557 q 283 513 339 531 m 264 462 l 269 462 l 359 482 l 354 492 q 264 462 264 480 m 465 150 l 465 140 q 560 79 543 79 q 541 104 541 93 l 465 150 m 611 39 q 641 19 616 19 l 646 19 l 646 24 q 616 39 634 24 l 611 39 m 938 -142 q 1059 -212 977 -178 l 1064 -202 q 948 -142 1001 -165 l 938 -142 m 1215 -222 l 1230 -222 q 1240 -233 1240 -224 q 1230 -248 1230 -233 l 1220 -248 l 1225 -237 l 1225 -233 l 1215 -233 l 1215 -222 z "},"S":{"ha":806,"x_min":-243,"x_max":1009,"o":"m 998 1160 l 1009 1160 l 1009 1149 q 758 1058 947 1133 l 758 1053 l 768 1053 q 843 1063 832 1063 l 848 1053 q 645 972 662 972 l 645 962 l 661 962 q 747 989 674 972 l 747 983 q 511 871 740 975 q 313 758 342 789 l 313 753 q 340 726 315 739 q 570 758 498 758 l 608 758 q 677 748 653 758 q 699 753 687 753 l 720 753 q 800 726 720 726 l 806 715 q 789 710 795 710 q 848 667 789 699 l 859 630 l 859 593 q 693 389 838 513 q 500 229 682 389 q 244 4 309 47 l 244 9 l 260 31 l 260 36 l 169 -33 l 169 -44 q 217 -17 201 -17 q -87 -237 41 -161 l -98 -231 q -189 -279 -144 -261 q -237 -248 -236 -256 q -120 -146 -120 -153 l -120 -130 l -125 -130 q -232 -194 -153 -130 q -243 -183 -243 -194 q 298 234 -30 -13 q 624 523 499 404 l 635 571 l 635 582 q 597 608 635 593 q 276 534 475 608 l 271 534 l 271 545 q 319 571 293 545 l 319 576 q 228 566 250 566 q 201 598 213 566 q 116 656 163 598 q 399 967 116 833 q 635 1085 416 989 q 998 1160 861 1160 m 420 854 l 431 854 q 640 951 441 854 l 640 962 q 420 854 602 962 m 239 732 l 239 715 l 255 715 l 255 721 q 244 732 255 732 l 239 732 m 191 689 l 191 667 q 217 646 193 656 l 217 652 q 201 689 201 675 l 191 689 m 239 689 l 239 684 q 309 646 269 646 l 313 646 l 313 656 q 250 689 262 689 l 239 689 m 736 673 l 731 662 q 800 625 744 662 l 800 630 q 741 673 800 673 l 736 673 m 715 641 l 715 635 q 785 587 727 635 l 789 587 l 789 598 q 720 641 777 625 l 715 641 m 699 582 l 699 571 q 709 560 701 560 l 715 560 l 715 571 q 704 582 715 582 l 699 582 m 752 576 l 752 566 q 763 555 754 555 l 763 566 q 752 576 763 576 m -98 -98 l -98 -109 l -72 -109 q 148 58 84 -1 l 142 58 q -93 -98 135 58 l -98 -98 m -189 -231 q -178 -242 -188 -242 q 201 36 -117 -226 l 191 36 q -130 -194 63 -48 q -189 -231 -176 -231 m 132 -65 l 137 -65 q 164 -44 161 -55 l 159 -44 q 132 -65 134 -54 z "},"T":{"ha":783,"x_min":-39,"x_max":2153,"o":"m 1495 1158 l 1514 1153 q 1586 1158 1556 1158 l 1596 1158 q 1605 1143 1605 1158 l 1735 1143 q 1812 1139 1763 1143 l 1822 1143 l 1851 1139 q 1899 1143 1874 1139 l 1918 1139 q 1980 1143 1950 1143 l 1985 1143 q 2005 1139 1996 1143 q 2019 1143 2013 1143 l 2019 1139 l 2028 1143 l 2053 1143 q 2077 1139 2068 1143 l 2106 1143 l 2129 1143 l 2153 1139 l 2153 1129 l 1985 1129 q 1957 1105 1957 1114 l 1995 1095 l 1995 1086 l 1961 1086 q 1908 1062 1908 1069 l 1918 1062 l 1918 1047 l 1913 1047 q 1908 1052 1908 1047 l 1899 1047 l 1822 1047 q 1678 1033 1777 1033 l 1668 1033 q 1678 1023 1670 1023 l 1735 1023 q 1769 1014 1769 1022 q 1773 1019 1773 1014 l 1832 1014 l 1846 1014 l 1846 1004 l 1735 1004 q 1683 1000 1715 1004 l 1673 1004 q 1596 1000 1624 1000 l 1552 1000 q 1533 994 1541 1000 q 1529 1000 1529 994 q 1177 989 1432 994 q 1163 985 1168 985 q 1139 989 1155 989 l 1130 989 l 1101 985 q 1096 989 1096 985 l 1062 985 l 956 985 q 937 980 945 985 l 928 985 q 846 865 889 985 q 557 264 803 803 q 514 163 557 258 q 461 66 514 135 l 466 57 q 437 -20 450 48 l 433 -20 l 433 -10 l 428 -10 l 428 -29 q 418 -68 418 -29 l 413 -68 l 404 -63 l 317 -251 q 298 -275 308 -273 l 293 -275 q 283 -265 283 -275 l 341 -164 l 341 -150 q 327 -145 336 -150 q 250 -279 277 -259 l 245 -279 q 235 -270 235 -279 l 212 -275 l 201 -275 l 201 -256 l 212 -260 l 221 -241 l 216 -217 l 235 -169 q 221 -150 223 -169 q 452 374 399 261 q 663 841 452 386 q 721 966 663 869 q 697 980 721 974 l 514 970 l 505 975 q -34 951 363 966 l -39 961 q -29 970 -37 970 l -5 970 q 67 975 19 970 l 67 985 q -5 1038 67 1021 l -5 1052 q 216 1072 111 1072 l 216 1081 q 192 1090 192 1081 l 192 1100 l 260 1100 q 279 1105 270 1100 q 298 1100 287 1100 l 312 1100 l 312 1105 l 264 1110 l 250 1110 q 235 1105 235 1110 l 212 1110 l 173 1110 q 43 1100 56 1100 l 33 1115 q 125 1129 48 1129 l 428 1129 q 447 1134 439 1129 l 456 1129 q 668 1139 645 1134 q 682 1134 673 1139 q 961 1143 769 1139 q 971 1153 963 1153 l 976 1153 l 990 1143 l 1009 1143 q 1043 1139 1037 1143 q 1091 1143 1068 1143 q 1322 1148 1166 1143 l 1331 1153 q 1346 1148 1341 1148 q 1351 1153 1351 1148 l 1370 1148 q 1495 1158 1423 1148 m 322 1110 l 322 1100 q 336 1105 331 1105 l 336 1110 l 322 1110 m 735 1100 l 649 1100 q 629 1095 638 1100 q 625 1100 625 1095 q 447 1086 515 1095 l 447 1090 l 437 1086 l 389 1086 l 394 1076 l 418 1081 q 788 1095 515 1081 l 793 1105 l 735 1100 m 33 1033 q 48 1028 39 1033 q 62 1033 57 1033 l 62 1028 q 120 1042 103 1042 l 120 1047 l 91 1047 q 33 1033 33 1045 m 1600 1028 l 1600 1023 l 1644 1023 l 1644 1028 l 1600 1028 m 572 1000 l 332 1000 q 139 985 300 1000 q 149 975 141 975 l 163 975 q 283 980 212 975 l 302 975 q 437 989 342 983 l 471 985 q 548 994 541 989 q 567 989 556 989 l 576 994 q 581 989 581 994 q 596 994 587 989 l 629 989 q 697 994 671 994 l 697 1000 l 677 1004 q 659 1000 667 1004 q 615 1004 633 1004 q 601 1000 610 1004 q 596 1004 596 1000 l 572 1000 m 856 961 q 831 908 844 925 l 831 899 q 865 961 848 899 l 856 961 m 822 879 q 817 865 822 874 l 817 860 l 822 860 q 827 874 822 865 l 827 879 l 822 879 m 803 841 l 803 831 l 812 831 q 817 850 812 842 l 812 850 q 803 841 803 849 m 755 740 q 750 720 755 729 l 760 720 l 760 740 l 755 740 m 697 620 q 692 600 697 609 l 697 600 q 707 610 707 600 q 697 620 707 620 m 634 480 l 634 466 q 644 475 644 466 l 644 480 l 634 480 m 620 446 l 615 427 q 625 441 625 427 l 625 446 l 620 446 m 351 -92 l 346 -121 q 360 -92 354 -121 l 351 -92 m 385 -121 l 394 -121 l 389 -145 l 380 -145 l 385 -121 z "},"U":{"ha":815,"x_min":-5,"x_max":1039,"o":"m 1039 1162 l 1039 1151 q 1002 1072 1006 1072 l 997 1072 l 986 1078 q 918 940 918 956 l 939 966 l 944 966 l 944 961 l 902 850 q 970 935 933 850 l 997 961 l 1007 961 l 817 566 l 817 560 l 823 560 q 907 698 846 610 l 907 687 q 764 408 827 550 q 559 12 648 196 q 353 -231 469 -128 q 242 -278 288 -245 l 237 -278 l 237 -267 q 258 -252 258 -267 l 258 -246 l 221 -252 q 42 -178 103 -233 q -5 7 10 -132 q 0 22 0 17 q -5 39 0 28 q 58 328 -5 164 q 195 687 71 425 l 337 945 l 353 945 l 348 956 q 411 1067 381 994 l 422 1067 l 422 1056 q 443 1082 443 1063 q 475 1072 452 1082 q 279 703 279 720 l 279 698 l 285 698 q 490 1061 431 971 l 496 1061 l 496 1051 l 485 1035 l 485 1030 q 490 1008 485 1018 q 332 682 340 713 l 337 682 l 406 777 l 406 766 q 116 28 130 279 q 216 -67 155 -67 q 411 49 281 -67 q 574 318 519 175 q 796 777 743 650 q 817 803 810 803 l 817 793 l 823 793 l 823 798 q 817 819 817 807 q 912 966 848 901 q 1002 1099 970 1099 q 1039 1162 1030 1162 m 511 1099 l 511 1082 l 501 1082 l 501 1088 q 511 1099 503 1099 m 944 761 l 944 750 q 928 729 936 729 l 928 740 q 944 761 936 761 m 269 682 l 269 677 l 279 677 l 279 692 q 269 682 269 690 m 264 671 q 258 655 264 666 l 269 655 l 269 671 l 264 671 m 321 666 q 311 634 311 637 q 327 661 320 634 l 327 666 l 321 666 m 221 571 q 264 650 228 571 l 258 650 q 221 571 221 604 m 253 592 q 227 518 227 523 l 237 518 q 258 587 258 569 l 258 592 l 253 592 m 728 545 q 712 508 728 534 l 712 503 l 717 503 q 733 524 717 524 l 733 545 l 728 545 m 701 492 q 686 455 686 461 l 686 450 l 691 450 q 707 487 691 455 l 707 492 l 701 492 m 669 429 l 665 408 q 675 423 675 408 l 675 429 l 669 429 m 638 355 l 638 349 q 648 360 648 349 l 648 366 q 638 355 638 363 m 549 165 q 622 313 562 165 l 622 318 q 549 165 614 315 m 121 250 q 100 181 100 208 q 132 244 115 181 l 121 250 m 522 165 q 549 202 528 165 l 549 212 q 522 165 532 212 m 264 -77 l 274 -77 l 290 -67 l 290 -77 q 437 39 359 -77 l 443 60 q 264 -67 306 -67 l 264 -77 m 63 28 l 63 17 l 68 -20 l 74 -20 l 74 7 l 68 28 l 63 28 m 79 -52 l 79 -62 q 121 -120 94 -105 l 121 -115 q 79 -52 100 -71 m 137 -77 l 137 -83 q 174 -109 153 -109 q 137 -77 161 -86 m 269 -115 l 269 -120 l 285 -120 q 311 -109 302 -109 l 311 -104 l 306 -104 q 269 -115 290 -115 m 74 -109 l 74 -115 q 84 -136 84 -127 l 100 -136 q 79 -109 90 -112 l 74 -109 m 158 -136 l 158 -141 q 216 -151 201 -151 l 242 -146 l 242 -141 l 190 -136 l 158 -136 m 74 -157 l 74 -162 q 179 -204 146 -204 l 190 -204 l 190 -199 q 79 -157 102 -157 l 74 -157 m 227 -162 l 227 -168 l 248 -168 l 248 -162 l 227 -162 m 363 -189 l 337 -210 l 348 -210 q 369 -189 356 -210 l 363 -189 m 211 -231 q 205 -225 205 -231 q 190 -231 195 -231 l 190 -236 l 216 -236 q 316 -194 283 -236 l 311 -194 q 211 -231 230 -231 z "},"V":{"ha":749,"x_min":-140,"x_max":1171,"o":"m 1148 1160 q 1158 1150 1158 1158 q 947 940 1004 1022 l 952 940 q 1078 1066 958 940 q 1158 1127 1084 1066 l 1158 1122 l 1166 1127 l 1171 1127 l 1171 1118 l 1097 1034 l 1101 1034 q 1124 1053 1122 1053 l 1129 1053 l 1129 1048 l 541 413 q 532 394 541 406 l 541 394 q 611 469 541 406 q 802 665 723 591 q 1097 973 806 683 l 1097 968 q 224 49 709 552 l -56 -273 l -61 -264 q -28 -213 -50 -239 l -28 -208 l -103 -283 l -108 -283 q -140 -255 -140 -260 q -103 -203 -133 -239 q -108 -184 -103 -193 q -71 -59 -89 -149 q 219 721 70 391 q 271 838 261 804 l 275 838 l 284 833 q 340 954 329 941 l 345 954 l 345 945 q 336 917 345 932 q 340 903 336 912 q 298 786 313 810 l 298 777 l 303 777 l 392 991 l 401 991 l 401 987 q 392 949 392 957 q 401 940 401 948 l 387 903 l 397 899 q 406 917 397 917 l 406 907 l 392 857 q 397 842 397 847 q 112 109 200 397 l 117 109 q 705 753 335 377 q 1027 1103 758 807 q 1078 1150 1066 1147 q 1087 1141 1087 1149 q 915 959 915 980 q 1050 1095 1008 1042 l 1055 1095 q 1069 1090 1064 1090 l 1148 1160 m 1055 996 q 1045 987 1055 987 l 1045 978 q 1064 996 1053 978 l 1055 996 m 425 907 l 425 899 q 397 852 404 852 l 397 861 q 425 907 418 907 m 373 861 l 233 530 l 233 525 l 242 525 q 378 842 359 809 l 378 861 l 373 861 m 737 726 l 737 721 q 765 749 744 721 l 761 749 q 737 726 754 749 m 695 684 q 677 660 677 663 l 681 660 l 700 684 l 695 684 m 214 478 q 163 352 172 368 l 163 338 l 168 338 l 219 473 l 219 478 l 214 478 m 471 399 l 476 399 q 499 422 482 399 l 494 422 l 471 399 m 159 413 q 149 380 149 383 q 163 408 159 380 l 163 413 l 159 413 m 135 352 l 98 240 l 98 235 l 102 235 q 140 347 102 246 l 140 352 l 135 352 m 303 221 l 303 212 q 429 347 372 275 l 429 352 q 308 221 423 352 l 303 221 m 117 240 q 41 44 117 216 l 41 35 q 125 240 57 35 l 117 240 m 266 175 l 275 175 q 289 189 275 189 l 289 198 q 266 175 283 198 m 23 109 l 23 104 l 28 104 q 46 151 36 139 l 46 156 q 23 109 37 156 m 242 151 q 200 96 200 109 q 252 146 245 146 l 252 151 l 242 151 m 18 100 l 14 77 q 23 91 23 77 l 23 100 l 18 100 m 172 67 l 182 67 q 196 91 182 75 l 191 91 q 172 67 182 89 m 130 25 l 130 20 l 140 20 q 144 35 140 26 l 140 35 q 130 25 130 33 m 79 -35 l 79 -40 q 93 -26 85 -40 l 93 -22 q 79 -35 86 -22 m -28 -199 l -28 -203 l -19 -203 l -5 -184 l -5 -180 q -28 -199 -22 -199 z "},"W":{"ha":1075,"x_min":-201,"x_max":1516,"o":"m 1516 1160 q 1492 1136 1516 1154 l 1487 1136 l 1487 1141 q 1516 1160 1497 1160 m 1477 1131 l 1482 1131 q 1381 1017 1449 1088 l 1381 1011 q 1477 1078 1446 1052 l 1477 1074 q 1291 859 1358 947 l 1243 810 l 1238 810 l 1238 815 q 1267 854 1238 821 l 1262 854 q 1100 663 1194 792 l 1105 663 q 1166 739 1112 663 l 1205 772 l 1210 772 q 1080 605 1080 618 q 1444 1002 1357 928 l 1472 1026 l 1477 1026 l 1477 1017 q 1291 810 1381 925 q 693 26 968 448 q 555 -184 555 -179 q 526 -217 546 -184 l 531 -241 l 522 -246 q 483 -227 506 -246 l 483 -232 l 488 -241 q 473 -279 483 -279 q 454 -174 460 -279 q 445 -117 448 -174 l 450 -117 q 431 156 431 -43 l 426 165 q 431 170 426 170 l 426 218 l 426 357 l 416 357 q 53 -12 410 357 l -177 -222 l -182 -222 l -182 -217 q -124 -155 -182 -208 l -124 -151 l -134 -151 q -168 -174 -159 -174 q -201 -146 -189 -166 q -153 -7 -177 -146 q -81 194 -125 58 l -81 203 l -86 203 q -191 -74 -124 122 l -201 -74 l -201 -69 q 38 481 -170 82 l 277 954 q 363 1074 332 1074 l 368 1064 q 292 916 321 994 q 301 906 301 914 q 282 863 282 869 l 282 854 l 287 854 q 397 1055 334 965 l 401 1055 l 392 1036 l 397 1006 q 249 734 357 951 q 105 437 196 645 l 105 433 l 110 433 q 435 1040 110 452 l 445 1040 l 445 1036 q 210 595 427 993 l 210 586 l 215 586 q 263 672 215 596 l 273 672 l 273 667 q -28 75 90 351 l -24 75 q 177 285 -18 75 q 536 614 338 439 l 545 614 q 497 567 545 610 l 497 562 l 536 586 q 555 414 547 586 l 555 385 q 559 366 555 374 q 555 342 555 358 l 559 309 q 555 304 559 304 l 559 256 l 559 222 q 564 117 559 189 q 722 337 590 137 q 1076 758 1034 721 l 1076 753 q 1038 701 1045 717 l 1042 701 q 1162 863 1104 761 q 1387 1112 1234 935 l 1406 1126 l 1411 1126 l 1420 1122 q 1362 1074 1420 1108 l 1243 930 l 1243 926 q 1276 945 1276 926 q 1286 959 1276 959 l 1291 959 l 1301 954 q 1329 987 1316 987 q 1377 1045 1329 1010 q 1477 1131 1381 1064 m 1315 921 l 1315 911 l 1320 911 q 1348 945 1326 911 l 1348 949 q 1315 921 1315 926 m 1272 873 l 1272 863 l 1276 863 q 1305 901 1305 882 l 1301 901 q 1272 873 1294 901 m 1210 873 l 1205 854 l 1215 854 l 1219 873 l 1210 873 m 239 810 q 182 691 191 724 q 224 777 197 691 q 244 806 233 777 l 244 810 l 239 810 m 1119 806 l 1119 801 q 1109 791 1119 791 l 1109 796 q 1119 806 1111 806 m 296 734 l 306 734 l 306 730 q 277 686 288 688 l 277 696 q 296 734 296 723 m 569 79 l 578 79 q 1033 686 768 359 l 1033 696 q 793 399 967 625 q 569 79 649 212 m 966 471 l 966 467 q 1066 586 1002 496 l 1066 591 q 966 471 1057 587 m 492 548 l 492 543 l 507 543 l 507 553 q 492 548 498 548 m 531 505 l 531 495 l 541 437 l 545 437 l 536 505 l 531 505 m 928 423 l 928 418 q 966 462 955 439 l 961 462 q 928 423 955 462 m 541 404 l 541 361 l 545 361 l 545 404 l 541 404 m 541 342 l 541 294 l 545 294 l 545 342 l 541 342 m 502 294 l 502 227 q 511 98 507 111 l 516 98 l 516 103 l 511 113 q 516 117 511 117 l 511 136 q 507 294 507 267 l 502 294 m 541 275 l 541 208 q 550 199 542 199 l 550 275 l 541 275 m 263 246 q 244 222 263 237 l 244 218 q 273 246 269 231 l 263 246 m 707 136 q 660 65 670 75 l 660 60 l 665 60 q 713 136 696 92 l 707 136 m 459 122 l 459 75 l 464 75 l 464 122 l 459 122 m -38 -60 l -33 -60 q 134 103 19 -19 l 129 103 q -38 -60 -36 -53 m 511 89 l 511 65 l 516 65 l 516 89 l 511 89 m 511 50 l 511 3 l 516 -21 l 522 -21 l 522 -7 l 516 50 l 511 50 m -86 -41 l -77 -41 q -9 36 -77 -31 l -9 41 l -14 41 q -86 -41 -71 -8 m 522 -121 l 522 -151 l 526 -151 l 531 -126 l 531 -121 l 522 -121 m 502 -146 l 502 -174 q 511 -165 511 -174 q 507 -146 507 -156 l 502 -146 m 478 -155 l 478 -208 q 488 -217 479 -217 l 488 -155 l 478 -155 z "},"X":{"ha":916,"x_min":-372,"x_max":1556,"o":"m 1510 1162 q 1551 1156 1529 1156 l 1556 1156 l 1556 1152 q 1510 1131 1556 1139 l 1510 1120 q 1556 1131 1543 1131 q 1515 1064 1532 1064 l 1510 1064 l 1510 1074 l 1489 1074 q 1407 1038 1458 1054 l 1407 1028 l 1412 1018 q 1309 971 1318 971 l 1309 961 q 1417 992 1369 982 l 1417 987 q 1268 895 1379 950 q 646 463 1122 805 q 553 406 646 455 q 471 288 486 355 q 311 -52 471 280 q 163 -216 254 -172 q 121 -278 163 -232 l 111 -278 l 111 -273 q 173 -144 173 -180 l 168 -144 q 116 -206 162 -144 l 96 -175 q 209 87 96 -165 q 255 195 255 163 q -161 -113 16 12 q -290 -170 -263 -170 l -316 -165 q -372 -196 -366 -196 l -372 -191 q -249 -98 -333 -149 l -249 -87 q -326 -129 -279 -96 l -331 -119 q -285 -57 -285 -63 l -290 -57 q -321 -67 -299 -57 l -326 -57 l 337 421 q 446 581 381 421 q 703 1038 616 938 q 774 1136 767 1135 l 774 1126 q 692 977 701 1002 q 769 1084 707 985 l 826 1120 l 831 1120 l 831 1116 q 733 951 733 971 l 743 946 q 846 1100 765 995 l 846 1090 q 682 787 740 907 q 759 899 692 787 l 769 899 l 769 889 q 635 652 682 750 l 635 632 q 1196 1008 852 783 q 1510 1162 1422 1162 m 1479 1152 l 1468 1136 l 1479 1136 q 1489 1146 1489 1136 l 1479 1152 m 1371 1090 l 1381 1090 q 1432 1120 1432 1114 q 1428 1126 1428 1120 q 1371 1090 1407 1120 m 1371 1054 l 1381 1054 q 1458 1090 1394 1054 l 1458 1095 l 1448 1095 q 1371 1054 1371 1060 m 1232 1008 l 1242 1008 q 1335 1064 1326 1064 l 1335 1069 l 1330 1069 q 1232 1008 1254 1034 m 1129 951 l 1129 941 q 1165 956 1155 956 l 1165 966 q 1129 951 1139 951 m 641 612 l 646 612 q 1103 925 784 699 l 1103 930 q 641 612 715 675 m 692 879 l 703 879 q 713 905 703 888 l 707 905 q 692 879 696 905 m 656 498 l 661 498 q 1016 740 803 589 q 1258 899 1245 899 l 1258 905 l 1247 905 q 954 714 1137 846 q 656 498 753 580 m 682 869 q 651 807 682 863 l 651 802 q 692 869 675 822 l 682 869 m 224 319 l 224 313 l 229 313 q 368 416 326 378 l 368 421 q 224 319 360 421 m 163 272 l 168 272 q 193 288 184 288 l 193 298 q 163 272 163 279 m -54 118 l -54 113 q -43 123 -43 113 l -43 128 q -54 118 -54 127 m -172 31 l -167 31 q -90 87 -115 54 l -95 87 q -172 31 -172 35 z "},"Y":{"ha":705,"x_min":-292,"x_max":1217,"o":"m 448 1163 l 456 1163 q 465 1142 456 1152 q 460 1058 460 1069 l 460 1045 l 465 1045 l 486 1155 l 494 1155 l 494 1134 q 490 1129 494 1129 l 494 1121 q 490 1117 494 1117 q 494 1104 494 1109 l 498 1104 l 503 1155 l 511 1155 q 515 1129 511 1136 q 511 1125 515 1125 q 515 1117 511 1117 q 481 591 497 980 l 481 583 l 477 562 l 481 562 q 818 886 492 562 q 1112 1129 994 1043 l 1112 1125 q 1070 1075 1095 1111 q 1032 1041 1040 1041 l 1037 1033 q 587 591 747 760 l 591 591 l 948 919 q 1074 1024 1044 1006 l 1079 1024 q 1032 974 1079 1019 l 1032 970 l 1125 1041 l 1129 1041 q 1032 957 1101 1008 l 1037 949 q 948 852 988 910 q 944 856 948 856 q 894 806 929 825 q 721 646 886 806 l 721 642 l 730 642 q 688 600 730 636 q 684 604 684 600 q 583 503 672 604 l 583 498 q 600 490 600 498 q 393 288 600 483 q -53 -145 26 -105 q -137 -224 -123 -220 q -145 -216 -145 -224 q -128 -199 -138 -216 l -128 -195 q -200 -237 -182 -237 q -212 -233 -208 -233 q -271 -279 -212 -237 l -292 -279 l -292 -275 q -225 -216 -227 -224 l -233 -216 q -271 -237 -259 -237 l -275 -229 q -99 -65 -250 -229 l -103 -65 q -187 -140 -180 -140 q -191 -136 -187 -136 q 158 221 -191 -128 q 334 402 331 401 q 351 435 342 413 q 347 439 351 439 q 385 932 355 513 l 393 932 l 393 928 q 385 772 393 895 l 385 764 l 389 764 q 448 1163 410 923 m 1213 1138 l 1217 1138 q 1209 1129 1217 1129 l 1205 1129 q 1213 1138 1206 1138 m 1192 1121 l 1196 1121 q 1104 1041 1195 1114 l 1100 1041 l 1100 1045 q 1192 1121 1101 1051 m 1095 1041 l 1095 1037 q 1087 1029 1095 1029 l 1083 1029 q 1095 1041 1083 1034 m 1007 953 l 1011 953 q 1024 957 1019 957 l 1024 966 l 1020 966 q 1007 953 1014 966 m 734 621 l 734 616 q 671 553 734 613 l 667 553 q 734 621 693 594 m 570 578 l 566 570 q 578 574 574 574 l 578 578 l 570 578 m 532 536 l 536 536 q 557 557 542 536 l 553 557 q 532 536 547 557 m 562 481 l 566 481 q 583 486 573 486 l 578 494 q 562 481 562 488 m 536 456 l 536 452 l 541 452 q 553 465 547 452 l 553 469 l 549 469 q 536 456 543 469 m 78 32 q 61 11 78 26 l 61 7 l 65 7 q 82 28 65 12 l 82 32 l 78 32 m 23 -27 l 27 -27 q 40 -14 33 -27 l 36 -14 q 23 -27 30 -14 z "},"Z":{"ha":760,"x_min":-153,"x_max":1632,"o":"m 1223 1162 q 1255 1119 1223 1149 q 1042 939 1232 1092 q 495 333 647 553 l 128 -113 l 128 -119 l 134 -119 q 1148 -44 939 -44 l 1159 -39 q 1164 -44 1164 -39 q 1430 -33 1337 -33 l 1430 -44 l 1409 -44 q 1276 -50 1364 -44 l 1276 -60 l 1377 -60 q 1398 -55 1389 -60 q 1419 -60 1407 -60 q 1573 -65 1437 -60 l 1573 -76 l 1520 -81 q 1499 -76 1508 -81 q 1493 -81 1493 -76 q 1461 -76 1489 -81 q 1393 -81 1459 -76 q 1403 -92 1394 -92 l 1440 -92 q 1461 -87 1453 -92 q 1531 -113 1485 -87 l 1557 -113 l 1557 -119 q 1457 -140 1557 -134 l 1457 -145 l 1510 -145 q 1520 -156 1520 -146 l 1520 -161 q 670 -230 1348 -161 l 670 -241 q 713 -235 699 -235 q 1047 -220 795 -235 l 1047 -224 l 1058 -220 l 1069 -220 q 1313 -203 1141 -220 l 1324 -209 q 1499 -198 1387 -198 l 1557 -198 l 1589 -193 q 1616 -198 1598 -198 l 1632 -198 l 1632 -209 l 1626 -209 q 1579 -214 1607 -209 l 1568 -209 q 1552 -214 1558 -214 l 1552 -209 l 1541 -214 l 1504 -214 l 1472 -220 l 1461 -214 q 628 -262 859 -262 q 612 -267 617 -267 l 612 -262 l 601 -267 l 564 -267 q 197 -273 432 -267 q 182 -267 187 -267 q 155 -273 173 -273 q 81 -267 147 -273 l 70 -273 l 59 -267 q 1 -273 23 -273 l -37 -267 l -79 -267 l -79 -252 l -127 -252 q -137 -241 -137 -252 q -127 -230 -127 -241 l -153 -198 q -95 -129 -137 -149 q 824 912 71 100 q 904 1002 892 972 l 867 1008 l 686 1008 q 282 1002 542 1008 l 272 997 q 250 1002 262 1002 l 214 1002 l 214 1013 l 235 1013 q 883 1055 275 1029 l 883 1066 l 856 1061 l 819 1061 q 814 1066 814 1061 l 803 1061 l 484 1045 q 463 1050 475 1050 q 415 1045 434 1045 l 415 1050 l 405 1045 l 218 1045 q 208 1055 208 1045 l 208 1061 l 250 1061 q 368 1066 288 1061 l 368 1072 l 293 1072 q 272 1077 281 1072 q 250 1072 262 1072 l 218 1072 l 192 1077 l 192 1087 l 235 1087 l 229 1098 l 229 1103 l 293 1103 l 319 1109 l 319 1114 l 277 1114 l 277 1124 l 330 1124 q 437 1130 377 1124 q 473 1124 458 1124 l 473 1114 l 399 1114 l 362 1109 l 362 1103 l 383 1103 q 490 1109 418 1103 l 484 1119 l 484 1124 q 1180 1156 603 1141 l 1196 1156 l 1223 1162 m 920 1066 l 920 1061 l 957 1061 l 957 1066 l 920 1066 m 1063 1045 l 1063 1040 l 1074 1040 q 1090 1045 1084 1045 l 1090 1050 l 1084 1050 q 1063 1045 1075 1045 m 1127 1050 l 1127 1034 l 1138 1034 q 1154 1050 1145 1034 l 1127 1050 m 1000 933 q 1015 928 1005 933 q 1101 1008 1015 937 l 1101 1013 q 1000 933 1065 1013 m 968 965 l 968 960 l 979 960 l 1026 1002 l 1026 1008 l 1021 1008 l 968 965 m 867 891 l 878 891 q 973 987 878 905 l 979 997 l 973 997 q 867 891 867 904 m 782 811 l 782 800 q 861 880 861 871 l 861 886 q 787 811 852 884 l 782 811 m 861 -71 l 835 -71 l 835 -81 l 861 -76 l 888 -76 q 1005 -71 925 -76 l 1005 -65 l 941 -65 l 904 -71 l 893 -65 l 861 -71 m 601 -92 l 601 -97 l 617 -97 q 829 -81 791 -81 l 829 -76 q 803 -71 812 -76 l 601 -92 m 490 -102 l 490 -108 l 522 -108 q 596 -97 532 -108 l 596 -92 l 591 -92 l 490 -102 m 378 -177 l 378 -182 l 410 -182 q 1154 -113 513 -182 l 1154 -108 l 1138 -108 q 378 -177 618 -140 m 293 -129 l 298 -129 l 325 -124 l 325 -119 l 304 -119 q 293 -129 293 -120 m 272 -230 l 272 -235 l 309 -235 q 1042 -172 454 -235 l 1042 -177 l 1053 -172 q 1313 -151 1213 -166 l 1313 -145 l 1302 -145 q 277 -230 1028 -161 l 272 -230 z "},"[":{"ha":514,"x_min":-163,"x_max":661,"o":"m 277 1165 l 283 1165 q 293 1144 283 1144 l 366 1144 q 661 1107 635 1144 q 561 1055 610 1055 q 456 1029 561 1033 l 387 1029 l 387 1023 l 408 1018 q 414 1023 414 1018 l 440 1018 l 461 1018 l 461 1008 l 456 1008 q 345 1013 437 1008 q 267 777 331 991 l 256 772 l 245 777 q 136 378 183 596 q 57 16 83 153 l 57 11 l 62 11 q 151 373 125 235 l 162 373 l 162 368 q 31 -152 73 -20 q 57 -162 57 -157 q 73 -157 62 -162 q 199 -162 146 -162 l 224 -162 q 235 -173 235 -164 l 220 -183 l 183 -183 q 99 -178 153 -183 l 88 -183 l 57 -178 l 26 -178 q 15 -189 15 -180 l 125 -189 l 188 -194 l 188 -204 l 125 -204 q 136 -215 127 -215 l 245 -215 l 245 -225 l 224 -225 q 220 -220 220 -225 q 193 -231 203 -231 l 193 -236 q 209 -246 209 -236 l 209 -252 l 183 -257 l 183 -267 l 214 -273 l 214 -283 l 99 -283 q 31 -288 65 -283 q -12 -283 10 -283 l -43 -288 q -95 -283 -71 -283 l -132 -283 q -163 -267 -159 -283 q -137 -252 -146 -252 l -137 -231 q -158 -220 -158 -231 q -95 -89 -111 -220 l 209 1023 q 214 1034 214 1023 l 199 1060 l 199 1065 q 241 1113 199 1071 l 235 1139 q 277 1165 245 1139 m 235 1002 l 230 981 q 245 1002 238 981 l 235 1002 m 172 457 l 183 457 l 178 431 l 167 431 l 172 457 m 41 216 q 31 168 41 193 l 31 163 l 36 163 q 46 205 46 197 l 46 216 l 41 216 m 26 142 q 5 74 8 75 q 9 58 9 64 l 15 58 l 31 137 l 31 142 l 26 142 m -1 53 q -37 -104 -1 41 l -37 -110 q 9 53 -22 -110 l -1 53 m 73 -204 l 73 -210 l 94 -210 l 94 -204 l 73 -204 z "},"\\":{"ha":386,"x_min":-236,"x_max":684,"o":"m -137 1166 q -58 1063 -58 1096 q 100 845 -12 1029 q 615 49 260 616 q 674 -41 655 6 q 659 -45 665 -45 q 684 -130 659 -65 l 684 -134 l 679 -134 l 650 -110 l 640 -110 q 665 -130 650 -130 l 659 -140 l 659 -144 l 679 -174 l 679 -179 l 674 -179 q 615 -140 628 -140 l 610 -149 l 615 -159 l 610 -179 q 615 -214 615 -199 l 605 -214 q 491 -26 564 -157 q 273 316 460 15 l 26 682 q -113 875 -3 715 q -236 1067 -236 1034 l -221 1078 l -226 1087 q -216 1097 -224 1097 q -172 1082 -185 1082 l -162 1107 q -172 1157 -162 1120 q -137 1166 -146 1166 m 51 776 l 120 672 q 135 647 135 656 l 145 647 l 145 652 l 61 776 l 51 776 m 155 632 l 155 623 q 174 603 155 614 l 180 603 l 180 608 q 155 632 180 614 m 456 98 l 456 93 q 467 83 458 83 l 471 83 q 456 98 471 90 m 471 78 l 471 73 q 566 -80 471 50 q 570 -75 566 -75 q 471 78 490 73 m 615 14 q 644 -35 639 -16 l 650 -35 l 650 -31 q 620 14 629 13 l 615 14 m 644 -248 l 650 -258 l 650 -268 q 635 -253 642 -268 l 644 -248 m 650 -268 q 659 -278 659 -269 l 659 -283 q 650 -273 650 -283 l 650 -268 z "},"]":{"ha":514,"x_min":-235,"x_max":585,"o":"m 141 1166 l 151 1166 q 188 1140 176 1140 l 183 1114 q 224 1067 224 1075 l 224 1062 q 209 1031 209 1042 q 486 27 245 928 q 554 -203 539 -191 q 580 -219 580 -210 q 559 -224 571 -224 l 559 -245 q 585 -266 574 -245 l 570 -276 l 528 -276 q 460 -281 494 -276 q 423 -276 439 -276 q 397 -281 406 -276 q 324 -276 353 -276 l 209 -276 l 209 -266 l 240 -260 l 240 -250 l 214 -245 l 214 -239 l 224 -224 l 214 -219 l 178 -219 l 178 -208 l 292 -208 l 292 -198 l 235 -198 l 235 -187 l 282 -182 l 282 -177 l 203 -177 q 188 -161 196 -177 l 199 -156 l 224 -156 q 350 -151 277 -156 l 361 -156 q 392 -135 392 -145 q 261 377 350 -33 l 272 377 q 355 32 272 353 l 361 32 l 361 43 q 172 774 240 642 q 120 895 151 774 q 73 1015 89 1014 q -37 1010 5 1010 l -37 1020 l -26 1020 l 5 1025 l 16 1020 q 37 1025 24 1025 l 37 1031 l -47 1031 q -162 1062 -94 1031 q -235 1114 -197 1062 q 58 1145 -178 1145 l 131 1145 q 141 1166 141 1145 m 178 1004 q 193 983 185 983 l 193 989 q 188 1004 188 999 l 178 1004 m 240 460 l 251 460 l 256 435 l 245 435 l 240 460 m 376 220 l 376 205 l 381 178 l 387 178 l 387 189 l 381 220 l 376 220 m 392 142 l 408 64 l 413 64 q 418 74 413 74 l 397 142 l 392 142 m 413 58 q 460 -104 446 -104 l 460 -98 q 423 58 423 39 l 413 58 m 288 -182 l 408 -182 q 397 -172 408 -172 l 366 -172 l 334 -177 q 309 -172 326 -172 l 298 -172 q 288 -182 288 -174 z "},"^":{"ha":531,"x_min":19,"x_max":511,"o":"m 366 1160 q 438 972 401 1095 q 481 848 481 850 l 476 848 q 511 720 511 753 q 502 711 511 711 l 498 711 l 498 715 l 502 724 l 502 728 l 498 728 l 498 720 q 489 732 489 720 l 481 732 l 481 728 q 489 685 489 689 l 481 681 q 464 698 481 695 q 455 711 464 711 l 442 711 l 442 703 l 438 703 q 421 736 429 703 l 421 749 q 408 770 418 749 q 412 783 412 779 q 391 809 407 783 l 391 813 q 395 818 391 818 l 382 844 l 387 852 q 323 989 371 864 q 53 703 312 988 q 32 724 47 703 l 36 732 q 19 745 19 739 q 41 783 41 767 l 41 788 l 32 788 l 23 783 l 19 792 l 19 801 q 224 1031 166 956 q 335 1138 253 1065 q 366 1160 335 1156 m 156 839 l 156 835 l 160 835 q 310 1010 310 993 q 156 839 298 1008 m 117 839 l 121 839 q 156 878 128 839 l 156 886 q 117 839 130 866 z "},"_":{"ha":1063,"x_min":7,"x_max":1048,"o":"m 990 -295 l 990 -302 l 977 -302 l 952 -305 l 952 -309 l 1042 -309 q 1048 -316 1048 -310 q 990 -330 1031 -326 q 987 -326 990 -326 l 983 -333 l 983 -336 l 1004 -343 l 1004 -350 l 1000 -350 q 997 -347 997 -350 q 969 -350 994 -350 q 977 -357 970 -357 q 1025 -353 1006 -353 l 1028 -353 q 1035 -361 1035 -355 q 818 -391 1007 -374 l 818 -385 q 859 -378 831 -385 l 859 -374 l 856 -374 q 514 -419 686 -391 l 514 -426 l 511 -426 q 493 -422 499 -426 q 455 -433 463 -426 l 425 -433 q 369 -444 420 -440 l 100 -492 q 86 -478 86 -488 l 69 -481 l 62 -481 q 38 -471 50 -481 q 7 -475 19 -475 l 7 -464 q 76 -440 54 -455 l 93 -437 l 93 -440 l 317 -402 l 317 -399 l 304 -399 l 90 -429 q 73 -419 90 -420 l 73 -412 q 514 -340 87 -412 q 990 -295 823 -295 m 997 -295 l 1031 -295 l 1031 -302 l 997 -302 l 997 -295 m 959 -323 l 959 -330 q 1007 -316 1007 -321 l 983 -316 q 959 -323 975 -323 m 445 -364 l 445 -368 l 455 -368 q 704 -330 640 -336 l 704 -326 l 701 -326 q 445 -364 532 -347 m 500 -378 l 500 -381 l 511 -381 q 755 -347 526 -381 l 755 -340 l 500 -378 m 283 -388 l 283 -391 l 290 -391 q 431 -371 298 -391 l 431 -368 l 421 -368 l 283 -388 m 894 -371 l 869 -371 l 869 -378 l 901 -374 l 901 -368 l 894 -371 m 338 -406 l 338 -409 l 345 -409 q 486 -385 426 -399 l 486 -381 l 483 -381 q 338 -406 347 -406 m 224 -399 l 224 -402 l 228 -402 q 266 -391 266 -399 l 262 -391 q 224 -399 258 -391 z "},"`":{"ha":570,"x_min":2,"x_max":554,"o":"m 184 1158 l 189 1158 q 349 958 211 1143 l 541 725 q 554 711 547 725 l 554 707 q 395 770 442 734 l 267 839 q 248 852 248 848 l 253 852 q 290 834 267 852 l 294 834 q 157 916 231 884 q 221 866 209 881 l 212 866 q 61 966 123 937 q 2 994 8 994 l 2 1003 q 102 962 52 989 l 102 971 q 71 999 92 971 l 79 1013 q 25 1067 71 1013 l 25 1072 l 166 962 l 166 971 q 75 1058 75 1054 l 79 1058 q 107 1040 102 1040 l 107 1044 q 61 1099 107 1047 l 61 1103 l 130 1044 l 130 1053 l 121 1053 l 121 1067 l 125 1067 l 139 1058 l 148 1058 q 134 1090 148 1073 l 134 1103 l 148 1095 l 153 1095 l 153 1099 l 139 1117 l 148 1117 l 258 1008 l 258 1013 l 161 1135 q 184 1158 161 1140 m 116 1122 l 121 1122 q 134 1108 127 1122 l 130 1108 q 116 1122 123 1108 m 221 866 l 230 866 q 239 857 239 865 l 230 857 q 221 866 221 857 z "},"a":{"ha":652,"x_min":-366,"x_max":835,"o":"m 808 971 l 812 971 l 812 968 q 808 952 812 966 q 835 911 820 927 l 835 907 q 755 710 806 820 l 642 464 q 668 445 668 449 q 642 437 659 437 l 642 433 l 646 426 q 589 365 603 410 q 214 -279 330 -121 l 210 -279 l 210 -249 q 323 -33 260 -172 l 342 -3 l 342 5 q 286 -82 330 5 q 243 -158 275 -90 q 206 -226 239 -158 q 187 -256 193 -226 q 168 -275 177 -275 l 149 -271 l 149 -283 q 145 -279 145 -283 l 138 -283 q 126 -279 130 -279 q 243 -52 176 -157 l 319 88 q 369 183 319 96 q 407 255 369 190 q 467 395 467 363 l 463 395 q 271 369 271 395 q -59 100 50 178 l -63 100 l -63 104 q -48 119 -59 119 l -48 123 q -71 130 -54 123 q -90 107 -71 118 l -97 107 l -97 111 q -94 115 -97 115 l -97 123 l -97 130 l -86 153 l -105 149 l -109 149 l -78 206 l -33 244 l 104 369 l 104 380 q 88 384 95 380 q 85 380 85 384 l 66 384 l 9 384 q -44 388 -12 384 q -48 384 -48 388 q -71 388 -51 384 q -366 410 -366 388 q -302 441 -331 441 l -302 437 q -275 441 -297 441 l -275 445 l -287 445 l -287 452 l -283 452 q -142 456 -253 452 l -139 464 l -158 467 l -199 467 l -199 475 q -161 486 -197 475 l -154 482 q -139 486 -152 482 l -132 482 l -123 486 q -116 482 -116 486 l -78 486 l 5 486 l 5 475 l 13 475 q 20 486 20 475 l 24 486 q 51 475 24 475 l 81 475 q 100 479 94 475 l 123 475 l 168 475 l 195 479 l 195 482 l 183 482 l 183 486 q 191 494 184 494 l 221 494 q 293 524 264 494 q 297 520 293 520 q 312 536 297 530 q 372 589 312 547 q 532 725 380 604 q 808 971 734 897 m 592 649 q 452 520 452 526 l 452 509 q 467 505 458 505 l 479 505 l 505 509 l 505 505 q 570 574 549 505 q 600 646 600 624 l 592 649 m 422 486 q 437 482 437 486 q 448 486 444 486 q 517 490 455 486 l 517 498 l 509 498 q 422 486 422 498 m 77 490 l 115 490 l 115 482 l 77 482 l 77 490 m 206 486 l 206 482 l 224 479 l 224 486 l 206 486 m -132 464 l -132 460 l -105 460 l -105 464 l -132 464 m -165 426 l -165 418 l -151 418 l -151 422 l -165 426 m -142 422 l -142 418 l -101 418 l -101 422 l -142 422 m -97 422 l -97 414 l 16 414 l 16 418 q -97 422 -37 418 m 380 414 l 327 414 q 335 407 328 407 l 342 407 q 376 410 356 407 l 384 407 q 403 410 390 410 l 399 418 l 380 414 m 426 414 l 426 410 q 475 414 444 414 l 475 418 l 437 418 q 426 414 430 414 m -75 399 l -75 395 q -3 391 -30 395 q 24 395 12 395 l 24 403 l -37 403 l -75 399 m 43 399 q 51 391 44 391 l 62 391 q 54 399 62 399 l 43 399 m -109 149 l -109 145 q -116 138 -109 138 l -116 142 q -109 149 -115 149 m -109 77 l -101 77 l -101 73 q -109 66 -101 66 q -116 73 -116 66 l -109 77 m 164 -237 q 161 -249 164 -241 l 176 -249 l 176 -245 q 168 -237 176 -237 l 164 -237 z "},"b":{"ha":791,"x_min":-107,"x_max":859,"o":"m 595 976 q 776 919 728 960 q 859 803 859 870 l 859 788 q 810 652 845 692 l 708 574 q 656 532 656 548 q 720 431 720 443 q 547 201 720 313 q 381 96 491 171 q 306 78 359 81 l 306 74 l 310 74 l 329 78 l 329 74 q 216 44 289 44 q 2 -20 141 10 q -77 -121 -26 -71 l -85 -121 l -85 -117 q -54 -61 -68 -74 q -39 -28 -39 -39 l -39 -20 q -47 -16 -47 -20 l -54 -20 l -62 -20 l -62 -12 l -66 -12 q -103 -24 -74 -19 q -107 -12 -107 -16 q 231 592 26 182 q 321 784 321 769 q 317 799 317 791 q 340 821 323 799 l 340 829 q 167 750 256 808 l 159 750 q 144 762 159 755 q 85 716 113 743 l 77 731 q 88 735 84 735 l 88 747 q 62 728 85 747 l 58 735 q 111 769 85 769 q 122 765 118 765 l 115 777 l 115 780 q 125 784 125 780 l 134 780 l 137 780 l 134 788 q 216 844 216 838 l 216 848 l 212 848 l 205 844 q 197 852 205 852 q 186 848 190 848 l 186 855 q 302 919 251 886 q 595 976 485 976 m 705 916 l 806 859 l 810 867 q 705 916 810 902 m 336 543 l 336 536 q 351 532 345 536 q 520 585 498 585 q 606 642 590 624 q 633 667 612 642 q 708 739 654 667 l 712 762 l 720 762 q 727 750 720 750 q 745 788 745 772 q 720 829 745 810 l 712 829 l 712 810 l 705 810 q 610 859 705 859 q 547 855 597 859 l 547 867 l 535 867 q 483 844 483 861 l 389 664 q 359 596 375 657 q 336 543 336 565 m 794 825 l 794 818 q 813 780 808 780 l 813 788 q 794 825 805 825 m 100 762 l 100 754 l 103 754 q 115 758 111 758 l 115 762 l 100 762 m 340 747 q 329 728 340 740 l 329 720 q 344 735 338 735 l 344 747 l 340 747 m 298 671 l 298 656 l 302 656 l 302 671 l 298 671 m 283 645 q 276 626 283 638 l 280 626 q 291 645 288 626 l 283 645 m 269 608 q 257 596 269 596 l 257 592 l 264 592 l 272 604 l 272 608 l 269 608 m 246 574 l 246 555 l 250 555 l 254 574 l 246 574 m 629 525 l 629 513 q 644 506 635 513 q 652 513 652 506 l 637 525 l 629 525 m 317 510 l 317 503 l 332 503 l 332 510 l 317 510 m 562 461 q 588 442 573 442 l 588 446 q 573 461 588 452 l 562 461 m 77 96 l 81 96 q 298 179 122 96 q 419 243 307 179 l 520 315 q 584 401 552 326 l 584 416 q 483 454 553 454 l 460 454 q 254 408 317 408 q 77 96 83 116 m 344 442 l 344 438 l 359 438 l 359 442 l 344 442 m 689 438 l 689 386 q 701 397 694 386 l 701 427 q 689 438 701 433 m 85 186 l 85 183 q 103 220 93 183 q 85 186 85 205 m 163 55 q 156 62 156 55 q 190 78 161 78 l 190 81 l 178 81 q 111 55 115 61 l 134 55 l 134 47 q 73 33 91 40 q 43 40 60 40 q 24 10 24 30 q 43 3 37 3 q 167 47 73 18 q 272 85 167 57 q 389 142 291 101 q 422 168 422 163 l 422 176 q 186 71 227 75 q 163 55 186 68 m 69 164 l 69 160 q 77 168 77 160 l 77 172 q 69 164 69 170 m 242 111 q 193 93 221 93 l 193 85 l 197 85 q 250 104 237 104 q 242 111 250 111 m 54 59 l 62 59 q 73 62 69 62 l 73 66 l 62 66 q 54 59 54 65 m -39 6 q -47 18 -39 18 q -54 10 -54 16 l -54 -1 q -32 -9 -44 -1 q -9 25 -16 -9 l -17 29 q -39 6 -19 29 z "},"c":{"ha":676,"x_min":-7,"x_max":1037,"o":"m 831 983 l 831 978 q 822 969 831 969 l 808 969 l 808 978 l 831 983 m 920 973 l 939 973 l 966 969 q 985 973 975 973 l 985 964 l 976 964 l 976 955 q 1004 936 985 955 l 1037 936 l 1037 926 l 1027 931 q 916 908 1027 923 q 854 876 916 895 q 864 866 856 866 l 873 866 l 906 871 q 658 786 903 861 q 569 749 651 777 q 153 281 153 524 q 208 145 160 145 q 241 131 208 138 q 471 215 298 135 q 597 271 527 248 l 602 271 q 611 243 611 246 q 490 164 500 164 l 490 159 l 503 159 l 559 182 l 606 215 l 616 215 l 621 192 q 461 79 569 134 q 232 0 401 33 l 208 5 l 166 5 q 161 9 161 5 l 153 5 q 17 108 17 25 q -7 243 7 191 q -2 262 -2 252 l -2 276 l 7 276 l 7 243 l 21 243 l 17 290 l 21 323 l 12 328 l 12 313 l 3 313 l 3 328 q 12 337 4 337 q 17 332 12 332 l 21 342 l 17 374 q 199 655 85 555 q 241 702 208 655 q 260 716 248 702 l 269 716 l 269 702 l 260 707 l 255 697 l 255 692 l 269 692 q 283 711 269 700 l 283 721 l 274 721 q 377 795 332 784 q 508 876 452 852 l 541 871 l 550 871 q 779 964 569 871 l 826 960 q 901 964 853 960 q 920 960 909 960 l 920 973 m 882 931 l 882 926 q 934 936 928 936 l 934 941 l 901 941 q 882 931 890 931 m 920 880 l 934 880 l 934 871 l 920 871 l 920 880 m 185 608 q 101 496 105 522 l 106 496 q 195 604 170 554 l 185 608 m 87 492 l 87 473 l 101 473 q 96 492 96 481 l 87 492 m 153 492 q 134 454 134 460 q 157 487 157 468 l 157 492 l 153 492 m 68 323 l 68 313 l 73 313 q 87 347 73 326 l 87 351 q 68 323 68 347 m 68 262 l 68 253 q 77 243 70 243 l 77 262 l 68 262 m 134 206 l 134 201 q 153 168 134 176 l 153 173 l 143 206 l 134 206 m 26 201 l 26 197 q 45 155 26 161 l 45 159 q 26 201 45 195 m 101 201 l 101 187 q 119 150 106 153 l 124 150 q 101 201 117 201 m 59 140 q 87 84 59 105 q 92 89 87 89 q 64 140 75 140 l 59 140 m 148 140 l 148 131 q 199 94 168 94 l 204 103 l 153 140 l 148 140 m 101 117 l 101 108 q 119 84 110 86 l 129 84 q 101 117 109 117 m 35 113 l 35 103 q 50 84 42 84 l 50 98 q 35 113 50 105 z "},"d":{"ha":882,"x_min":0,"x_max":978,"o":"m 738 972 q 755 960 738 966 q 760 964 760 960 q 885 911 885 936 q 978 715 978 806 q 760 328 978 565 q 560 177 686 280 q 258 12 414 75 q 240 8 242 8 q 235 12 240 12 q 142 -9 197 -9 q 102 -85 111 -85 q 94 -77 94 -85 l 94 -72 l 98 -63 l 89 -58 q 35 -90 89 -72 q 18 -157 18 -140 l 5 -157 q 18 -117 5 -133 l 18 -90 l 0 -72 l 0 -68 q 58 88 58 83 q 182 323 111 172 q 289 506 200 342 q 445 764 334 570 q 440 782 440 772 l 431 782 q 280 720 370 751 q 142 617 212 678 l 125 617 q 115 631 115 617 l 106 631 l 89 617 l 85 626 l 85 631 l 146 692 l 146 702 l 142 702 q 85 666 125 702 l 75 666 l 75 671 q 186 768 81 687 q 271 835 271 827 q 471 915 368 888 q 623 960 471 926 q 738 972 670 968 m 885 871 l 885 866 q 894 857 886 857 l 894 862 q 885 871 894 871 m 823 866 q 849 852 827 852 q 823 866 845 866 m 275 208 q 338 231 288 208 q 347 212 338 212 q 574 342 477 261 q 578 355 578 350 l 574 355 q 369 243 491 293 q 351 235 369 235 q 520 346 374 259 q 551 368 542 346 q 623 408 591 368 l 627 408 l 627 412 l 614 412 l 618 422 q 654 408 633 422 q 831 675 831 555 q 765 848 818 848 q 720 852 741 852 l 703 852 q 627 817 627 852 q 449 528 494 620 q 271 208 271 237 l 275 208 m 920 831 l 920 826 q 947 760 920 795 l 947 764 q 920 831 935 831 m 823 808 q 845 702 845 724 l 849 702 q 858 711 858 702 l 858 720 q 827 808 858 777 l 823 808 m 871 795 l 871 791 q 880 737 871 768 l 885 737 l 885 772 l 880 795 l 871 795 m 520 697 l 520 692 q 538 711 534 696 l 534 711 q 520 697 527 711 m 867 542 l 871 542 q 894 591 894 557 l 894 622 q 867 542 883 622 m 707 399 l 707 395 l 711 395 q 725 408 718 395 l 725 417 q 707 399 718 417 m 680 382 l 680 372 q 694 377 689 377 l 694 386 q 680 382 685 382 m 235 151 l 245 146 q 338 182 271 146 l 338 191 l 325 191 q 235 151 235 167 m 205 83 l 205 79 l 218 79 q 235 83 226 83 l 235 92 q 205 83 218 83 m 195 17 l 195 12 l 209 12 q 222 17 218 17 l 222 22 l 209 22 q 195 17 200 17 z "},"e":{"ha":720,"x_min":-106,"x_max":1382,"o":"m 690 968 q 707 963 697 963 q 730 968 722 963 q 770 963 754 963 l 774 963 l 802 968 q 819 963 809 963 q 837 968 829 963 q 873 963 862 963 l 904 968 l 913 963 q 922 968 922 963 q 966 963 961 963 q 1324 959 1009 963 l 1324 954 l 1333 959 q 1382 954 1373 954 l 1382 945 l 1378 945 q 1373 949 1373 945 l 1364 945 q 1360 949 1360 945 l 1351 945 l 1342 949 q 1311 941 1311 947 q 1315 927 1315 932 l 1360 927 q 1369 909 1360 920 q 1324 887 1344 903 q 1297 892 1321 887 q 1284 887 1289 887 q 1280 892 1280 887 l 1249 887 l 1181 887 q 1173 878 1173 886 q 1204 873 1190 873 l 1204 869 q 1190 856 1204 863 l 1154 856 q 1105 851 1136 856 q 1083 856 1098 856 q 1069 851 1074 851 l 1069 856 q 1052 851 1062 851 l 1052 842 l 1109 842 l 1109 833 q 855 820 947 829 q 842 825 850 820 q 511 811 609 811 q 448 731 488 811 l 439 731 l 439 735 q 448 758 448 750 q 336 579 434 758 l 341 570 q 355 574 350 574 q 667 552 355 564 q 712 543 667 546 q 703 534 712 534 l 681 534 l 681 525 q 716 521 713 521 l 716 512 l 659 512 l 636 507 l 636 498 q 667 481 667 498 q 690 471 667 471 l 690 463 q 578 449 629 449 l 498 449 l 471 445 q 448 449 463 449 q 341 431 387 431 l 323 436 l 288 427 q 274 431 279 431 q 220 351 251 417 q 117 132 117 155 l 140 127 l 189 127 q 252 123 224 127 q 314 127 273 127 l 323 123 q 341 127 331 127 l 368 123 q 372 127 372 123 l 591 114 l 591 105 l 564 100 q 555 110 564 110 q 417 83 555 86 l 417 78 l 435 78 l 444 83 q 466 74 466 78 l 475 78 l 479 78 q 484 74 484 78 l 493 78 l 564 74 q 578 78 569 74 q 618 69 586 74 q 650 74 636 74 l 650 65 q 631 38 635 65 q 583 34 583 38 q 569 38 574 38 q 520 29 520 35 q 479 7 520 7 l 377 7 q 372 12 372 7 l 363 7 l 355 7 q 350 12 350 7 l 341 7 q 55 2 138 2 q -39 -176 37 -14 l -43 -176 l -47 -168 q 24 -29 15 -32 q 10 -11 17 -11 l 6 -11 q -25 -64 6 -26 l -30 -64 q -16 -2 -16 -18 q -21 -7 -21 -2 q -88 20 -88 7 l -88 38 l -79 52 l -79 60 q -106 74 -106 65 q -47 110 -96 100 q 127 463 -38 142 q 314 802 314 794 l 314 820 l 305 833 l 296 829 l 292 829 l 292 833 q 341 861 292 843 q 381 901 349 888 l 386 923 l 363 927 q 350 923 355 923 l 346 932 l 412 954 q 448 959 437 959 q 466 954 458 959 l 614 963 l 623 959 q 690 968 679 964 m 564 927 l 564 923 l 587 918 l 596 918 q 614 923 606 918 q 631 918 621 918 l 640 918 l 640 927 q 631 932 631 927 q 564 927 604 927 m 645 923 l 659 923 l 659 932 l 654 932 q 645 923 645 930 m 667 932 l 663 923 l 667 923 q 707 927 692 927 l 707 932 l 667 932 m 328 932 l 341 932 l 341 923 l 328 923 l 328 932 m 417 914 l 417 909 l 431 909 q 439 918 439 909 l 431 923 l 426 923 q 417 914 417 922 m 734 873 l 734 869 l 766 869 l 766 873 l 734 873 m 659 869 l 659 865 l 676 865 l 676 869 l 659 869 m 913 851 q 926 838 913 848 l 976 847 q 994 838 994 844 q 1034 842 1010 842 l 1034 847 l 1002 851 l 940 847 l 913 851 m 681 847 l 681 838 l 707 838 q 699 847 707 847 l 681 847 m 806 847 l 806 842 l 824 842 l 824 847 l 806 847 m 618 842 l 618 838 l 654 838 l 654 842 l 618 842 m 426 704 l 426 695 q 422 682 422 686 l 412 682 l 412 686 q 426 704 419 704 m 41 212 l 41 208 q 51 217 51 208 l 51 221 q 41 212 41 220 m 33 203 q 6 141 6 150 l 20 141 q 41 203 41 191 l 33 203 m 122 52 l 122 43 l 131 43 l 158 38 q 180 52 180 44 l 122 52 m 184 47 l 184 43 l 207 43 l 207 47 l 184 47 z "},"f":{"ha":686,"x_min":-214,"x_max":1376,"o":"m 561 991 q 601 972 578 972 q 876 968 785 968 l 907 972 q 1044 960 955 964 q 1101 964 1099 964 q 1287 951 1190 960 q 1318 955 1305 955 q 1358 942 1358 950 q 1336 911 1358 937 l 1336 888 l 1345 888 l 1345 884 l 1340 876 q 1376 862 1376 876 q 1371 858 1371 862 q 916 844 1192 849 l 916 849 l 907 844 l 774 844 l 774 840 q 849 836 825 836 q 858 827 858 834 l 849 823 q 729 827 838 823 l 707 823 q 672 827 690 827 l 632 827 q 543 725 603 827 q 481 601 505 666 q 499 592 499 597 l 508 597 q 513 592 513 597 l 522 597 l 552 597 q 557 592 557 597 l 566 597 l 574 597 q 592 592 585 597 q 610 597 600 597 q 636 574 618 597 q 694 578 691 578 q 707 574 703 574 l 707 570 q 645 566 666 570 q 632 570 637 570 l 632 561 l 654 561 l 685 566 q 725 548 685 559 l 734 552 l 747 552 l 747 543 l 711 543 q 667 539 690 543 l 641 543 q 539 530 614 543 q 548 522 541 522 q 632 517 562 522 l 650 522 q 676 517 656 517 q 667 508 676 508 l 606 508 q 592 494 599 508 q 597 490 597 494 l 588 486 q 579 499 588 499 l 557 499 l 557 490 l 570 490 l 570 481 l 566 481 q 490 473 526 481 l 481 477 q 406 468 430 468 q 384 437 406 452 l 380 437 l 380 450 q 176 56 329 374 q 87 -121 167 54 q 52 -178 58 -178 q 43 -170 43 -178 q 65 -125 58 -135 q 61 -112 61 -117 l 56 -112 q 35 -130 56 -130 l 35 -121 l 30 -94 q 43 -54 43 -65 l 43 -37 q -1 -68 16 -63 l -5 -59 l -5 -50 q 30 3 30 -10 l 26 3 q 7 16 7 3 q 224 429 94 162 l 229 446 l 194 446 q 158 450 176 446 q 123 446 141 446 q 79 450 102 446 l 39 446 q -68 459 -41 450 l -125 459 q -147 486 -133 459 q -165 499 -165 486 l -161 508 q -178 534 -166 508 q -156 548 -178 545 l -156 557 q -170 566 -170 557 l -200 561 l -205 561 q -214 570 -214 561 q -205 578 -212 578 q -191 574 -196 574 q -107 601 -191 601 q -90 597 -98 601 l -63 601 q -45 597 -45 601 l -1 601 l 30 601 q 176 597 94 601 q 189 601 180 597 q 229 597 213 597 l 304 597 q 441 831 335 625 l 477 897 l 477 902 l 473 924 q 517 972 517 930 q 561 991 544 972 m 1217 902 l 1217 897 q 1278 888 1263 888 l 1282 897 l 1282 902 l 1217 902 m 659 897 l 659 893 l 676 893 l 676 897 l 659 897 m 623 849 l 623 840 q 720 836 690 836 l 729 836 q 739 844 739 836 l 729 849 l 623 849 m 876 836 q 898 827 890 827 l 898 823 l 862 823 l 862 827 q 876 836 862 836 m -90 552 l -116 552 l -116 543 l -98 543 q -85 539 -85 543 l -63 543 l -5 543 q -28 557 -5 551 q -90 552 -65 552 m -112 486 l -112 477 l -72 473 l -50 477 l -50 486 l -112 486 m 3 481 l 3 477 q 12 473 12 477 q 26 477 21 477 l 26 481 l 3 481 m 39 481 l 39 477 l 61 473 l 127 473 q 136 481 136 473 l 127 481 q 123 477 123 481 l 100 481 l 39 481 m 189 47 l 189 39 q 158 -14 165 -14 l 158 -5 q 189 47 182 47 m 119 -94 l 119 -103 q 110 -112 119 -112 l 110 -103 q 119 -94 111 -94 m 105 -121 l 105 -130 q 87 -161 95 -161 l 87 -156 q 105 -121 93 -123 m 83 -170 l 83 -178 q 65 -205 71 -205 l 65 -200 q 83 -170 71 -170 z "},"g":{"ha":724,"x_min":-276,"x_max":1075,"o":"m 1022 973 q 1038 969 1029 969 l 1063 973 l 1063 965 l 1050 965 l 1050 961 q 1075 928 1075 947 l 1067 928 l 1055 937 q 1034 916 1048 937 q 1026 920 1026 916 q 925 884 952 920 q 511 726 725 835 q 340 587 442 694 l 340 575 l 361 575 q 365 571 365 575 l 373 575 l 377 575 q 381 571 381 575 l 389 575 l 458 575 q 523 571 481 575 l 531 575 q 653 551 653 558 q 661 559 661 551 l 682 555 l 694 555 q 730 539 694 546 l 730 531 l 710 535 l 690 531 l 690 523 l 730 519 l 730 507 l 702 511 q 645 454 702 505 q 568 336 645 446 q 308 -9 398 98 l 304 -9 q 292 -1 292 -5 l 211 -9 q 93 89 211 1 q 45 259 45 167 q 41 283 41 259 q 77 454 41 363 l 77 458 q 64 454 64 458 l 45 458 l -211 441 l -215 450 l -215 454 q -182 466 -182 454 q -203 470 -203 466 l -223 466 l -243 466 q -268 478 -264 466 q -170 498 -170 488 l -195 498 q -199 511 -195 503 q -195 527 -195 517 l -211 527 l -211 531 q -203 539 -210 539 q -191 535 -195 535 q -186 551 -186 542 l -174 551 l -174 547 l -178 539 l -170 539 l -155 551 l -138 551 q -94 555 -121 551 q -90 551 -90 555 l -69 555 l 20 555 q 174 583 174 555 q 357 750 268 698 q 649 892 542 875 q 1022 973 733 932 m 941 953 l 941 949 l 965 949 l 989 953 l 989 957 l 985 957 q 941 953 964 953 m 884 941 l 884 937 l 901 937 q 913 941 908 941 l 913 949 q 884 941 903 941 m 917 949 l 917 941 q 933 945 924 945 l 933 949 l 917 949 m 596 478 l 612 478 l 612 486 l 604 486 q 596 478 596 485 m 166 300 q 268 101 166 170 l 515 437 q 523 454 515 444 l 523 458 q 467 466 471 463 q 463 462 463 466 q 381 466 408 466 l 260 466 q 166 300 199 466 m -268 454 l -256 454 l -256 446 q -272 441 -265 446 l -276 450 l -268 454 m 81 372 l 81 364 l 85 364 q 105 417 85 374 l 101 425 q 105 437 105 433 l 101 437 q 81 372 92 437 m 418 231 l 418 227 l 422 227 q 458 271 422 236 q 527 385 527 374 q 418 231 494 351 m 515 323 q 381 137 421 202 l 381 133 l 385 133 q 519 320 493 277 l 519 323 l 515 323 m 73 255 q 77 194 77 204 q 85 202 85 194 l 85 243 l 81 263 q 73 255 73 262 m 117 165 l 117 153 l 130 153 q 117 165 130 159 m 324 56 l 328 56 q 373 121 347 74 l 369 121 q 324 56 324 71 m 231 113 l 231 104 q 248 85 239 86 q 256 93 256 85 l 256 101 q 231 113 250 101 z "},"h":{"ha":821,"x_min":-177,"x_max":977,"o":"m 458 1019 l 467 1019 l 467 1006 l 471 1006 l 484 1015 l 488 1015 l 488 1010 q 479 985 479 996 l 484 976 l 492 981 l 500 981 l 500 972 l 509 972 l 509 976 q 505 994 509 986 q 522 1015 513 1013 l 522 1010 q 518 994 522 1001 q 522 976 522 986 l 500 942 q 505 929 505 934 l 423 762 l 415 762 q 432 809 415 769 l 432 813 l 428 813 q 342 646 393 752 l 342 642 q 389 728 363 658 q 410 753 407 753 l 410 749 q 359 637 410 739 l 359 633 l 363 633 q 406 702 388 686 l 406 693 q 376 629 376 643 l 376 620 q 393 616 386 620 l 402 620 l 410 616 q 428 620 413 616 q 467 616 451 616 q 471 620 471 616 l 492 616 l 509 616 q 672 612 569 616 q 720 654 708 612 q 836 873 782 787 l 836 882 l 844 882 l 844 873 l 848 873 q 938 1002 891 947 l 938 994 l 925 972 l 925 968 l 964 1006 l 977 1006 q 951 950 977 989 l 951 942 l 960 942 q 968 955 960 955 q 972 942 972 947 q 951 886 972 939 l 968 899 l 977 895 q 836 586 869 693 q 565 -75 745 380 q 531 -139 559 -75 q 458 -246 508 -139 l 449 -250 l 445 -250 l 445 -246 l 462 -216 q 454 -208 462 -208 l 449 -208 q 385 -285 412 -258 q 368 -268 378 -285 q 513 106 429 -155 l 513 110 l 509 110 q 488 67 503 77 l 488 71 q 638 479 574 277 q 591 487 591 483 l 582 483 l 565 483 q 467 479 524 483 q 338 492 441 486 q 277 444 296 492 q 63 50 127 117 q 7 -19 32 50 q -22 -53 -17 -53 q -27 -49 -22 -49 q 42 75 42 59 l 37 97 l 29 97 q -22 -2 -18 -2 q -31 11 -31 -2 q -18 80 -22 80 l -22 88 q 153 487 -2 151 q 149 492 153 492 q 136 496 140 496 q 20 492 106 496 l -18 496 q -22 492 -22 496 q -173 505 -125 505 l -177 513 q -164 522 -164 513 l -142 517 l -113 517 q 59 522 -49 517 l 59 526 q -147 543 -88 534 l -164 543 l -168 564 l -142 564 l -142 560 l -147 551 l -130 551 l -134 560 l -125 564 l -117 564 l -117 556 l -109 556 l -109 564 l -96 564 l -74 569 l -74 573 l -109 586 l -109 595 l -104 595 q -100 590 -100 595 l -92 595 l -27 595 q 33 590 -3 595 q 59 595 39 595 l 67 590 q 98 599 90 599 l 93 607 l 93 612 l 123 612 l 123 607 l 115 595 l 162 595 l 162 603 l 149 603 l 149 612 l 175 612 l 175 607 l 170 599 l 192 595 l 196 595 q 205 603 205 595 l 196 603 l 196 612 q 269 702 232 612 q 458 1019 401 955 m 899 929 q 882 890 882 893 l 882 886 l 886 886 q 904 929 886 892 l 899 929 m 471 895 q 445 848 471 886 l 436 822 q 475 886 441 822 l 475 895 l 471 895 m 873 882 q 869 869 873 878 l 869 865 l 873 865 q 878 878 873 869 l 878 882 l 873 882 m 938 865 l 938 861 l 943 861 l 947 878 q 938 865 938 878 m 805 800 l 805 796 l 810 796 q 818 813 810 803 l 818 817 q 805 800 812 817 m 852 758 q 848 745 852 753 l 848 741 l 852 741 q 857 753 852 745 l 857 758 l 852 758 m 753 689 l 753 684 l 758 684 q 779 732 779 724 q 753 689 773 731 m 779 684 q 792 706 789 684 q 779 684 783 706 m 814 680 q 805 663 814 673 l 805 659 q 818 676 812 659 l 818 680 l 814 680 m 582 496 l 612 496 l 633 500 l 633 509 q 582 496 582 507 m 115 170 l 123 170 l 264 466 l 269 483 q 153 252 259 483 q 115 170 123 199 m 720 414 q 668 286 668 291 q 724 401 684 302 l 728 410 l 720 414 m 745 414 q 736 397 745 408 l 736 393 l 745 393 l 749 410 l 749 414 l 745 414 m 12 123 q -5 88 12 116 l -5 71 l -1 71 q 16 118 16 111 l 16 123 l 12 123 m 600 50 q 625 101 612 50 l 621 101 q 600 50 612 101 m 488 67 l 488 62 q 475 37 484 37 l 475 41 q 488 67 479 67 m 595 45 l 565 -23 l 565 -32 l 569 -32 q 600 37 569 -24 l 600 45 l 595 45 m 471 28 l 471 24 q 449 -23 460 -23 l 449 -15 q 471 28 463 28 m 419 -212 l 428 -212 q 505 -10 496 -45 q 419 -212 485 -41 m 441 -45 l 441 -53 q 432 -62 441 -62 l 432 -53 q 441 -45 433 -45 m 539 -75 q 535 -87 539 -79 l 544 -87 l 544 -75 l 539 -75 m 415 -113 l 415 -122 q 406 -130 415 -130 l 406 -122 q 415 -113 408 -113 z "},"i":{"ha":311,"x_min":-18,"x_max":453,"o":"m 398 1004 l 407 1004 l 403 963 l 412 963 l 444 1004 l 444 1000 q 370 794 427 911 l 370 789 l 375 789 q 435 922 427 919 l 453 922 l 453 917 q 444 876 444 888 l 448 867 l 156 150 q 60 -1 119 45 q 19 -33 60 -22 q 5 -47 19 -39 l -4 -47 q 14 8 -4 -22 l 14 22 q 5 31 14 31 q -9 -1 -9 5 l -18 -1 q 56 205 24 160 q 385 981 182 553 q 398 1004 395 981 m 193 342 q 183 314 183 317 q 201 342 189 314 l 193 342 m 42 3 l 42 -1 l 46 -1 q 69 35 46 4 l 60 35 q 42 3 42 28 z "},"j":{"ha":541,"x_min":-73,"x_max":1590,"o":"m 289 972 l 310 972 q 319 960 319 972 q 459 947 454 951 q 463 951 463 947 q 557 947 527 947 l 642 947 q 650 956 650 947 l 625 956 l 625 964 l 680 964 l 680 956 l 659 956 l 659 947 l 774 947 q 812 943 789 947 q 850 960 850 948 l 914 960 q 957 964 956 960 q 1016 960 993 960 l 1255 960 l 1280 956 l 1289 960 q 1544 939 1511 950 l 1569 947 l 1569 939 l 1484 926 l 1484 922 q 1497 913 1497 922 q 1484 900 1497 907 q 1471 905 1476 905 q 1454 896 1471 896 l 1454 892 q 1463 883 1455 883 l 1471 883 q 1535 879 1498 883 q 1565 883 1552 883 q 1590 858 1590 861 q 1565 849 1576 849 l 1527 849 q 1488 836 1504 849 l 1429 836 q 1412 841 1419 836 l 1403 836 q 1348 841 1367 841 q 1331 836 1331 841 l 1289 841 l 965 841 q 948 836 956 841 q 931 841 941 841 l 782 841 q 748 836 765 841 q 714 841 732 841 l 629 841 q 514 619 579 783 q 366 279 514 606 l 246 28 q 263 -18 263 -13 q 225 33 256 -18 l 216 33 l 212 12 q 225 -18 225 -4 l 225 -23 l 208 -10 l 178 -10 q 94 156 178 15 q -73 560 -22 412 l -73 572 q -64 560 -64 572 l -60 560 q -52 568 -52 560 l -64 615 l -64 619 l -56 619 l 47 407 l 51 407 l 51 411 q -9 577 -9 566 l -9 585 q 106 356 24 536 q 204 181 193 191 q 506 836 340 503 q 497 845 497 836 l 489 841 l 463 841 q 459 845 459 841 q 446 841 451 841 l 438 845 q 433 841 433 845 l 404 845 l 366 845 q 357 858 366 858 l 353 858 q 221 870 338 858 l 221 875 l 225 883 l 216 883 l 216 888 q 246 909 216 892 l 255 909 l 263 905 q 268 930 263 907 q 225 939 258 934 l 225 947 l 255 947 q 289 972 270 947 m 404 968 l 489 968 q 497 960 497 967 l 404 960 l 404 968 m 570 964 l 583 964 l 583 956 l 570 956 l 570 964 m 701 964 l 740 964 l 740 956 l 701 956 l 701 964 m 838 964 l 838 960 q 829 951 838 951 l 782 951 l 782 960 l 817 960 l 838 964 m 281 926 l 281 922 l 332 922 l 332 926 l 281 926 m 374 471 l 370 454 l 370 450 l 374 450 l 378 467 l 378 471 l 374 471 m 357 428 q 246 173 316 341 q 361 424 283 219 l 361 428 l 357 428 z "},"k":{"ha":648,"x_min":-43,"x_max":926,"o":"m 466 977 q 480 967 480 972 q 473 939 473 942 l 473 936 q 515 977 477 936 l 518 977 l 532 960 q 498 876 526 929 q 490 859 498 867 l 494 842 l 389 653 q 393 650 393 653 q 526 726 409 650 q 689 810 629 788 q 713 827 689 823 q 920 928 803 886 l 923 922 q 755 824 806 859 q 836 859 764 824 q 909 884 897 884 l 909 880 l 905 873 q 912 866 912 872 q 909 863 909 866 l 926 863 q 874 824 926 855 q 658 705 852 806 l 658 702 l 661 702 l 686 709 l 689 702 l 330 503 q 320 493 326 503 q 435 284 326 473 q 567 61 567 74 q 511 148 562 61 l 508 148 l 508 144 q 532 99 519 112 l 529 92 q 564 33 534 92 q 661 -134 643 -111 q 672 -155 661 -142 l 672 -159 l 668 -159 l 640 -127 q 637 -131 637 -127 l 630 -127 l 627 -127 q 620 -138 627 -138 q 640 -173 620 -142 l 633 -176 q 599 -145 633 -164 q 571 -117 599 -140 q 522 -51 545 -73 l 522 -58 q 585 -170 585 -157 l 581 -170 q 446 40 505 -84 q 247 378 372 183 l 233 378 q 107 141 195 312 q 55 71 73 127 q 13 12 55 58 q -22 -61 -12 -57 l -25 -61 q -18 -33 -25 -58 q -22 -23 -18 -30 l -18 -2 l -18 1 l -22 1 l -28 -2 q -43 9 -43 3 q -28 37 -28 23 l -28 40 q -39 47 -39 40 q 65 273 -39 81 q 93 322 71 289 q 107 347 93 329 q 135 413 107 355 q 142 406 142 412 q 138 395 138 399 l 146 395 q 187 475 146 403 q 180 483 187 483 q 177 479 180 479 l 177 493 q 191 507 177 498 q 194 500 191 500 q 247 587 216 515 l 239 591 q 229 576 233 576 l 233 570 q 226 563 233 563 l 222 563 l 222 566 q 257 612 234 610 q 264 618 264 612 l 264 622 q 254 625 254 622 q 267 646 262 646 l 267 629 l 275 629 l 278 653 l 271 653 q 281 674 273 674 l 285 674 l 285 671 l 278 661 l 278 656 l 281 656 q 337 751 337 732 l 337 758 l 330 758 l 330 765 q 348 803 348 786 q 365 821 362 821 l 361 827 q 379 859 379 851 l 386 859 l 386 852 l 389 852 q 393 863 389 863 l 389 869 q 441 946 418 946 q 466 977 462 977 m 728 730 l 731 730 l 731 726 q 707 709 731 722 l 692 709 l 692 716 q 728 730 717 722 m 296 705 l 306 705 q 299 699 306 699 l 296 699 l 296 705 m 640 695 l 640 692 l 648 692 q 651 702 648 695 l 648 702 q 640 695 640 701 m 222 563 l 222 559 q 215 542 215 551 l 208 542 l 208 549 q 222 563 208 554 m 177 479 l 177 475 q 166 465 177 471 l 166 469 q 177 479 166 473 m 393 329 l 393 322 q 435 242 406 308 q 480 159 439 241 l 487 159 l 487 162 q 397 329 487 174 l 393 329 m 355 304 l 355 298 q 490 54 441 115 l 490 61 q 355 304 381 268 m 389 291 l 389 284 q 397 263 397 273 q 404 270 404 263 q 389 291 394 291 m 400 260 q 452 155 413 238 l 459 159 q 404 260 411 254 l 400 260 m 31 148 l 31 144 l 34 144 l 55 190 l 55 193 q 31 148 31 169 m 466 138 l 466 130 q 501 75 486 87 l 501 81 l 466 138 m 452 85 l 452 81 q 494 12 475 30 l 498 12 q 452 85 477 57 m 505 64 q 532 16 505 50 l 532 19 l 511 64 l 505 64 m 567 61 q 658 -89 581 50 l 654 -89 q 567 61 567 44 m 550 -61 l 550 -64 q 557 -72 551 -72 l 557 -68 q 550 -61 557 -61 m 599 -85 q 616 -103 599 -95 l 620 -96 q 606 -79 606 -92 q 599 -85 599 -80 m 661 -96 q 675 -113 666 -96 l 672 -113 q 661 -103 667 -113 l 661 -96 m 630 -113 l 630 -117 q 637 -124 631 -124 l 637 -113 l 630 -113 z "},"l":{"ha":405,"x_min":-53,"x_max":1432,"o":"m 481 1015 q 477 973 477 981 l 485 977 q 493 970 493 976 q 485 939 485 942 l 477 939 l 473 966 l 470 966 q 447 912 447 935 l 447 909 q 458 905 451 909 q 463 920 463 911 l 470 920 q 336 600 452 858 q 245 405 275 453 q 218 359 233 366 q 214 363 218 363 q 195 325 214 342 q 191 309 191 318 l 191 306 l 199 306 q 191 298 199 298 l 184 302 q 146 222 184 290 l 146 210 l 157 210 l 157 206 q 142 199 151 206 l 146 191 l 146 184 l 138 184 l 138 191 l 119 164 q 115 149 115 158 l 115 142 l 123 142 l 123 134 q 111 123 123 128 l 107 123 l 111 130 l 107 130 q 88 96 96 130 q 123 81 88 89 q 126 84 126 81 l 153 81 q 256 84 163 81 q 325 81 309 81 l 332 84 q 348 81 339 81 l 363 81 q 397 84 377 81 q 401 81 401 84 l 439 84 l 489 84 q 493 81 493 84 q 504 84 500 84 q 665 92 590 84 q 668 88 668 92 l 829 100 l 836 96 q 851 100 843 100 q 855 96 855 100 q 867 100 863 100 q 932 103 880 100 l 932 100 q 1187 123 987 107 l 1187 115 q 1179 103 1179 115 l 1168 103 l 1149 100 l 1149 103 q 977 88 1034 88 l 970 88 q 954 84 961 88 q 951 88 951 84 q 756 77 895 81 l 756 69 l 760 69 q 970 77 867 69 l 970 69 q 924 61 954 69 q 901 65 904 65 l 863 61 q 874 54 863 54 q 886 58 878 54 q 897 54 890 58 q 1073 69 968 58 l 1073 73 l 1054 69 q 1038 73 1045 69 l 1015 69 l 977 69 l 977 77 l 1008 77 l 1046 81 l 1046 77 l 1054 81 q 1057 77 1057 81 l 1076 81 l 1103 81 q 1107 77 1107 81 q 1157 84 1124 84 l 1176 84 q 1183 73 1183 84 l 1229 77 l 1229 73 q 1313 84 1267 84 l 1317 77 q 1310 69 1317 69 l 1301 69 q 1286 73 1293 69 q 1237 61 1249 61 l 1183 61 l 1183 58 q 1191 50 1185 50 q 1298 61 1261 54 q 1313 58 1305 58 q 1271 31 1295 31 q 749 -7 829 -7 l 749 -3 l 741 -7 l 699 -7 l 661 -11 l 661 -15 l 771 -15 q 829 -11 791 -15 l 832 -19 q 668 -34 802 -25 l 668 -31 q 665 -34 665 -31 q 562 -38 594 -38 l 519 -38 l 496 -41 q 493 -38 493 -41 l 466 -41 l 367 -41 q 363 -38 363 -41 l 355 -41 l 325 -41 q 317 -34 317 -41 q 321 -31 321 -34 l 348 -34 q 382 -31 361 -34 l 390 -34 q 416 -31 405 -31 q 409 -22 416 -22 q 393 -26 402 -26 l 393 -19 l 412 -19 l 412 -15 q 321 -7 372 -7 l 321 -3 l 313 -7 l 271 -7 q 168 -3 222 -7 l 119 -11 q 24 -3 37 -3 q 1 -11 11 -11 q -26 0 -14 0 l -26 4 l -15 27 l -18 35 q -7 61 -18 45 l -15 65 l -30 65 q -45 42 -30 51 l -53 42 q -26 96 -43 73 l -22 96 q -11 77 -11 96 l -3 77 q 4 84 4 77 l 1 130 q 77 283 18 143 q 96 344 96 312 q 88 351 88 344 q 126 420 102 357 q 386 977 249 661 l 390 977 q 393 962 393 970 l 401 962 q 428 1008 419 1008 l 432 1000 q 401 924 432 990 l 416 912 q 473 1015 452 944 l 481 1015 m 363 905 l 363 893 q 378 909 369 893 l 374 909 q 363 905 367 905 m 325 821 l 325 794 l 329 794 q 340 817 329 803 l 340 836 q 363 882 353 837 l 363 886 q 336 832 352 880 q 325 821 332 821 m 306 771 l 306 760 l 310 760 q 321 790 321 783 q 306 771 316 790 m 39 245 l 43 245 l 43 241 q 35 233 43 233 l 31 241 l 39 245 m 134 176 l 142 172 q 123 142 132 142 l 123 145 q 134 176 123 150 m 1362 96 q 1385 88 1385 92 l 1393 92 l 1397 92 l 1397 84 l 1367 84 l 1348 81 l 1343 88 l 1343 92 q 1362 96 1356 92 m 1420 73 l 1423 73 q 1432 65 1432 72 l 1420 65 l 1420 73 m 752 54 l 787 54 l 783 61 q 779 58 779 61 l 760 61 q 752 54 752 60 m 653 54 l 653 50 l 676 50 q 665 58 676 58 q 653 54 657 54 m 726 58 l 726 54 l 745 54 l 745 58 l 726 58 m 451 50 l 397 50 l 397 46 l 439 46 l 439 42 l 447 46 l 546 46 q 538 54 546 54 q 477 50 517 54 q 473 54 473 50 l 451 50 m 550 54 l 550 50 q 595 46 569 50 q 607 50 603 50 l 607 54 l 550 54 m 618 54 l 618 50 l 634 50 l 634 54 l 618 54 m -11 23 l -11 20 q -3 12 -9 12 l -3 23 l -11 23 m 1160 12 l 1160 8 q 962 -11 1160 -7 l 943 -15 l 943 -11 l 935 -15 l 916 -15 l 916 -7 q 1160 12 958 -7 m 1187 12 l 1206 12 l 1206 4 l 1187 4 l 1187 12 m 416 -11 l 416 -15 l 466 -15 q 470 -19 470 -15 q 496 -15 475 -15 l 496 -11 l 447 -11 q 432 -7 438 -11 q 416 -11 425 -11 m 836 -11 l 897 -11 l 897 -19 l 882 -19 q 878 -15 878 -19 q 840 -22 869 -19 l 836 -15 l 836 -11 m 351 -19 l 363 -19 l 363 -26 l 351 -26 l 351 -19 m 54 -26 l 73 -31 l 195 -31 l 195 -38 l 50 -38 l 50 -34 l 54 -26 m 210 -31 l 226 -31 l 226 -38 l 210 -38 l 210 -31 z "},"m":{"ha":888,"x_min":-33,"x_max":1010,"o":"m 446 1016 l 446 1009 q 430 982 438 990 q 443 925 439 968 q 467 783 452 925 q 497 516 484 696 l 504 516 q 862 827 658 640 q 984 918 960 912 l 987 911 q 960 888 968 900 q 967 881 967 886 l 960 871 l 960 867 q 974 861 966 867 q 998 884 974 865 l 1008 884 q 1010 850 1010 854 q 720 239 923 638 l 565 -113 q 494 -237 541 -113 l 467 -285 l 463 -278 q 511 -174 511 -188 l 504 -170 q 494 -190 500 -190 l 490 -184 q 531 -82 490 -178 l 528 -82 q 477 -177 510 -92 l 473 -177 l 477 -184 l 477 -190 q 470 -197 477 -197 q 463 -190 463 -197 q 507 -89 463 -182 q 545 33 507 -77 q 703 391 545 68 l 835 675 q 838 688 838 681 l 835 688 q 507 394 684 547 l 504 387 q 507 357 507 370 l 490 351 q 497 317 494 342 l 487 317 q 477 357 486 357 l 460 357 l 456 340 q 467 259 456 298 l 460 256 q 443 337 452 264 l 437 337 l 433 313 l 433 303 l 430 303 l 406 323 l 406 327 l 420 344 l 420 368 q 416 380 420 375 q 420 384 416 384 l 416 401 l 416 404 q 386 736 403 655 q 389 739 386 739 q 386 766 386 752 l 382 766 q 200 361 244 467 q 180 330 182 330 l 180 340 q 224 448 197 371 l 217 448 q 58 80 112 197 q 18 43 30 60 q 14 46 18 46 q 48 144 48 135 l 48 148 l 45 148 q -16 22 2 68 l -26 16 l -33 16 l -33 19 q 92 303 11 96 l 92 320 l 88 320 q 31 172 88 312 q 18 151 23 151 q 14 161 14 157 l 18 178 q 7 191 9 178 q 190 597 52 284 q 382 955 296 833 l 386 955 l 382 948 l 382 942 l 393 942 q 427 992 399 942 q 446 1016 443 1016 m 301 712 l 301 705 q 379 861 316 715 l 379 874 q 301 712 336 804 m 903 661 l 909 661 q 977 833 964 785 q 903 661 951 791 m 862 779 l 862 776 q 872 786 867 776 l 872 789 q 862 779 867 789 m 785 668 l 788 668 q 865 736 850 720 l 865 746 l 785 668 m 808 732 l 808 726 q 819 729 814 729 l 819 736 q 808 732 812 732 m 758 682 l 761 682 q 785 702 785 696 l 785 705 l 781 705 q 758 682 776 705 m 260 692 l 241 641 l 241 637 l 244 637 q 264 688 244 643 l 264 692 l 260 692 m 453 682 l 453 675 q 460 479 453 593 l 467 479 q 460 671 460 626 q 456 682 456 678 l 453 682 m 741 671 l 741 665 q 758 678 756 671 l 754 678 q 741 671 746 671 m 277 668 l 277 654 l 281 654 l 284 668 l 277 668 m 616 583 l 616 580 l 619 580 q 703 658 627 581 l 703 661 q 616 583 663 635 m 545 492 l 545 482 l 585 516 q 734 658 654 570 l 730 658 q 545 492 634 569 m 730 617 l 734 617 q 771 654 771 644 l 768 654 q 730 617 763 654 m 159 455 q 241 634 174 460 q 159 455 217 611 m 595 564 l 595 560 l 599 560 q 616 576 603 560 l 612 576 q 595 564 597 570 m 423 564 l 423 519 q 430 435 423 472 l 437 435 q 427 547 433 500 l 430 547 q 427 564 427 552 l 423 564 m 589 560 q 572 543 589 557 l 572 536 q 595 553 589 553 q 589 560 595 560 m 819 513 q 812 492 819 507 l 819 492 q 821 509 819 504 l 821 513 l 819 513 m 507 455 l 507 448 q 541 479 517 448 l 541 486 q 507 455 507 458 m 231 479 l 224 458 l 224 455 l 227 455 q 237 475 227 460 l 231 479 m 430 378 l 430 371 q 437 364 431 364 l 440 364 l 440 384 l 437 384 q 430 378 430 383 m 490 378 l 490 374 l 494 357 l 497 357 l 497 371 q 490 378 497 378 m 180 327 l 180 320 q 173 300 173 309 l 166 300 q 180 327 172 327 m 632 208 q 562 36 581 94 l 562 33 q 595 107 568 33 q 635 205 601 109 l 635 208 l 632 208 m 521 -126 q 514 -150 514 -148 q 528 -126 528 -144 l 521 -126 z "},"n":{"ha":902,"x_min":-76,"x_max":1149,"o":"m 1119 1119 q 1128 1110 1128 1118 l 1128 1101 q 1049 976 1128 1088 q 850 602 929 772 l 850 597 l 854 597 q 949 780 861 599 l 976 819 q 989 802 982 802 q 1101 1010 1086 994 l 1106 1010 q 1110 1006 1106 1006 q 1145 1049 1134 1046 l 1149 1049 l 1149 1045 q 1071 915 1149 1027 q 758 328 857 543 q 845 480 766 328 q 876 515 848 480 l 876 507 q 597 -24 707 231 q 545 -63 576 -53 q 519 -94 538 -83 q 515 -89 519 -89 q 545 -33 515 -84 l 541 -24 q 545 -11 545 -16 q 524 7 544 1 q 502 -11 524 1 q 467 128 479 14 l 471 128 l 467 137 q 471 141 467 141 q 454 276 463 189 q 458 280 454 280 l 454 298 q 433 736 454 500 q 285 446 285 468 l 272 446 l 272 454 l 267 454 l 263 433 l 272 437 l 272 433 q 180 245 191 256 l 176 245 l 168 250 q -24 -132 145 223 l -37 -141 q -45 -132 -45 -141 q -2 -41 -2 -51 l -11 -41 q -41 -80 -36 -80 l -45 -72 q 7 59 7 47 l -6 76 l 54 211 l 45 215 q -67 -20 -14 108 l -72 -20 l -76 -11 q 111 350 -7 156 q 433 962 362 842 q 463 998 457 998 q 467 984 467 989 q 502 1010 490 1010 l 502 1006 q 476 937 476 948 q 480 932 480 937 l 489 937 l 507 937 q 524 854 519 907 l 532 850 l 532 863 l 541 863 l 541 859 q 576 289 562 648 l 572 280 q 580 198 580 245 l 580 176 l 589 176 q 841 698 681 400 l 845 698 l 841 675 q 1032 998 979 901 q 1110 1115 1075 1030 l 1119 1119 m 984 980 l 989 980 l 989 971 q 871 749 960 898 l 871 754 q 949 915 871 767 q 984 980 978 980 m 485 915 l 485 888 q 493 880 486 880 l 493 915 l 485 915 m 489 859 l 485 837 l 485 810 q 493 802 486 802 q 498 859 493 804 l 489 859 m 528 845 l 528 832 q 558 285 545 375 q 554 280 554 285 l 563 280 l 563 328 l 558 372 l 563 372 l 558 380 l 558 393 q 554 450 558 421 q 558 463 554 454 q 532 845 554 600 l 528 845 m 393 828 q 276 615 385 807 q 193 424 193 433 q 402 828 323 650 l 393 828 m 424 785 q 359 628 366 656 l 359 624 q 433 785 433 760 l 424 785 m 489 745 l 493 706 q 507 294 493 623 l 515 294 q 511 467 515 306 l 507 485 q 511 489 507 489 l 507 511 l 507 545 q 498 745 507 616 l 489 745 m 863 736 l 863 728 q 850 711 856 711 l 850 720 q 863 736 856 736 m 971 689 q 976 684 971 684 q 941 632 976 669 l 941 641 q 971 689 958 680 m 515 675 l 515 659 l 519 659 l 519 675 l 515 675 m 519 650 l 519 567 l 524 541 q 519 536 524 536 l 524 515 l 524 411 l 532 411 q 524 650 532 464 l 519 650 m 832 558 l 832 554 l 845 554 l 841 563 l 845 585 q 832 558 832 581 m 294 502 l 294 498 q 302 507 302 498 l 302 511 q 294 502 294 509 m 254 467 q 267 489 264 467 q 254 467 258 489 m 485 467 l 485 359 q 489 315 489 321 l 493 315 l 493 332 q 489 467 489 412 l 485 467 m 237 441 q 228 419 237 433 l 228 415 l 233 415 q 241 437 233 422 l 241 441 l 237 441 m 163 411 l 159 389 q 168 402 168 389 l 168 411 l 163 411 m 184 411 q 180 397 184 406 l 180 393 l 184 393 q 189 406 184 398 l 189 411 l 184 411 m 220 402 l 220 397 l 228 397 l 228 411 q 220 402 220 410 m 150 380 l 111 294 l 119 294 l 155 376 l 155 380 l 150 380 m 206 380 q 193 354 206 370 l 193 346 q 211 376 202 346 l 211 380 l 206 380 m 184 341 l 176 315 l 176 311 l 180 311 q 189 332 180 318 l 189 341 l 184 341 m 159 289 q 155 272 159 279 l 155 267 l 159 267 q 163 280 159 272 l 163 289 l 159 289 m 558 272 l 558 229 l 563 229 l 563 272 l 558 272 m 511 263 l 511 245 q 519 141 511 238 l 524 141 l 524 159 q 515 263 524 166 l 511 263 m 563 168 l 563 155 q 572 163 572 155 l 563 168 m 519 133 l 528 41 l 536 41 q 528 133 528 112 l 519 133 z "},"o":{"ha":695,"x_min":-1,"x_max":948,"o":"m 876 979 q 935 941 909 979 l 897 941 q 758 907 844 941 l 758 903 l 762 903 q 940 911 883 911 l 948 911 l 948 903 l 931 903 q 927 907 927 903 l 699 873 q 657 861 699 869 l 657 852 l 720 865 l 724 865 l 724 857 q 441 747 441 783 q 243 532 304 632 q 151 279 151 368 q 243 144 151 188 q 273 140 260 140 q 551 389 459 214 q 593 578 577 468 l 602 578 l 593 498 q 615 562 606 498 q 610 595 610 578 l 610 608 l 619 608 q 623 519 623 544 q 602 406 623 486 q 657 545 626 427 q 682 659 671 659 q 686 654 682 654 q 678 604 682 650 l 678 600 l 682 600 q 703 705 699 647 q 695 730 695 722 l 703 734 q 729 667 715 734 q 589 237 729 500 q 311 26 479 75 q 168 0 237 0 q -1 254 -1 47 q 189 680 -1 489 q 446 873 250 747 q 876 979 663 979 m 669 911 l 669 907 q 707 903 705 907 q 750 920 743 920 l 750 928 l 669 911 m 138 578 q 286 726 231 666 q 336 777 336 757 q 151 600 250 726 q 138 578 138 589 m 146 363 q 189 456 151 363 q 378 709 234 559 l 378 713 q 222 545 236 608 q 146 363 184 501 m 96 465 l 96 460 l 100 460 q 193 608 193 589 q 96 465 132 556 m 648 431 l 648 427 l 653 427 q 699 600 699 560 q 648 431 671 553 m 121 562 l 121 557 q 130 566 130 557 l 130 570 q 121 562 121 568 m 87 511 q 24 296 24 363 q 54 123 33 161 l 58 123 l 58 131 q 45 220 45 158 q 58 372 45 288 l 54 380 q 92 507 66 435 l 92 511 l 87 511 m 134 334 l 134 330 q 142 338 142 330 l 142 342 q 134 334 134 340 m 551 309 l 551 304 l 555 304 q 572 338 572 332 q 551 309 562 336 m 92 334 q 71 249 79 296 q 96 123 79 163 l 100 123 l 100 131 q 87 203 87 187 l 92 211 q 87 228 87 218 q 92 245 87 237 q 87 258 87 253 q 96 330 96 325 l 96 334 l 92 334 m 408 173 l 408 169 q 496 258 422 169 l 496 262 l 492 262 q 408 173 408 183 m 526 207 q 446 123 526 201 l 450 123 q 530 203 507 173 l 534 203 l 534 207 l 526 207 m 125 144 l 125 140 q 168 97 134 97 l 180 97 l 180 102 l 125 144 m 210 76 l 260 76 l 281 81 l 281 85 l 218 85 q 210 76 210 83 m 134 81 l 134 76 q 172 55 151 55 l 180 55 l 180 59 q 134 81 174 59 z "},"p":{"ha":667,"x_min":-180,"x_max":888,"o":"m 748 966 l 748 962 l 756 966 l 777 966 l 772 945 q 888 813 888 886 q 830 644 867 677 q 723 541 793 584 l 719 549 q 798 631 785 606 l 793 631 q 608 491 667 511 q 212 309 271 309 q 75 37 197 309 q 67 29 75 29 l 67 37 l 92 95 l 92 99 l 87 99 q -44 -157 14 -51 q -106 -280 -44 -167 l -115 -280 l -115 -272 q -85 -198 -85 -216 q -98 -185 -98 -198 q -90 -161 -90 -172 l -90 -157 q -131 -231 -102 -167 q -172 -284 -147 -233 l -176 -284 q -180 -280 -176 -280 q -57 -37 -109 -153 l -57 -28 q -119 -149 -75 -43 l -123 -149 q -131 -140 -131 -149 q -127 -123 -127 -133 l -135 -123 q -98 -45 -128 -83 l -98 -54 q -119 -111 -119 -94 q -61 13 -61 -19 l -69 13 q -85 -16 -69 -6 l -85 -8 l 75 322 l 75 326 q 71 330 71 326 q 22 318 55 322 l 22 326 q 113 396 113 345 q 302 747 178 527 l 302 751 q 121 644 294 751 l 117 644 q 281 759 125 659 l 286 768 l 281 768 q 75 635 168 699 l 71 635 l 67 644 q 212 751 81 670 q 224 755 220 755 l 224 759 l 220 759 q 34 648 181 752 q 18 631 34 642 l 9 631 l 9 640 q 748 966 408 966 m 686 895 l 686 891 l 719 891 l 719 899 l 707 899 l 686 895 m 616 883 l 616 879 l 628 879 q 640 883 636 883 l 640 887 l 636 887 l 616 883 m 806 883 l 806 875 q 818 863 806 869 l 818 875 q 810 883 818 883 l 806 883 m 707 871 q 748 850 707 861 l 748 854 q 719 875 748 867 q 707 871 711 871 m 269 437 q 273 433 273 437 q 323 458 306 433 q 558 570 368 458 q 735 751 686 643 l 735 780 q 640 850 735 833 q 475 808 493 836 q 401 681 463 800 q 269 437 269 460 m 228 764 l 240 764 l 240 772 l 236 772 q 228 764 228 770 m 290 640 l 290 627 q 327 697 304 634 q 290 640 323 697 m 323 590 l 323 586 l 327 586 q 356 648 356 635 q 323 590 349 648 m 294 368 l 294 363 l 302 363 q 673 562 411 399 l 703 590 l 694 590 q 352 392 503 466 q 294 368 352 388 m 302 545 l 302 541 l 307 541 q 323 582 307 548 q 302 545 302 564 m 294 536 q 290 524 294 532 l 290 520 l 294 520 q 298 532 294 524 l 298 536 l 294 536 m 281 512 q 273 495 281 505 l 273 491 q 286 507 279 491 l 286 512 l 281 512 m 249 441 q 240 433 249 433 l 240 421 l 245 421 q 253 437 245 427 l 253 441 l 249 441 m 216 330 l 216 322 l 240 326 q 228 334 240 334 q 216 330 220 330 m 100 124 l 100 120 q 109 128 109 120 l 109 132 q 100 124 100 131 m 92 107 l 92 103 q 100 112 100 103 l 100 116 q 92 107 92 115 m -57 37 l -61 21 q -48 37 -54 21 l -57 37 m -40 -58 l -40 -66 l -36 -66 l -32 -45 q -40 -58 -40 -45 z "},"q":{"ha":743,"x_min":0,"x_max":892,"o":"m 813 972 q 859 964 819 972 l 859 960 q 781 935 859 953 l 776 927 l 781 927 q 871 943 857 943 q 892 931 892 939 q 772 886 892 920 q 328 633 497 775 q 133 304 133 454 l 133 300 l 137 271 l 133 271 l 125 275 q 120 263 120 267 q 212 114 120 160 l 245 114 l 245 105 l 262 105 q 315 122 315 109 l 323 118 l 328 118 q 336 126 336 118 l 336 134 l 332 134 q 295 126 321 134 q 282 134 295 134 q 257 130 260 130 q 182 168 208 142 q 149 242 149 220 l 158 242 q 282 146 177 146 q 328 163 313 146 q 307 250 328 169 l 315 255 l 319 255 l 328 250 q 340 263 328 256 l 340 255 l 345 255 l 345 267 l 353 267 l 366 259 l 370 259 l 378 283 l 382 283 l 390 279 l 390 288 l 399 288 q 423 213 414 213 l 427 213 q 614 458 542 337 q 627 524 623 471 l 635 524 l 635 520 l 631 512 l 639 512 q 672 665 663 534 l 681 665 l 681 661 q 685 608 681 659 l 701 608 l 705 628 l 705 649 l 714 649 q 718 620 714 636 l 726 624 l 730 624 q 739 578 736 587 q 734 574 739 574 l 739 553 l 739 520 q 602 226 731 425 q 490 101 535 142 l 490 85 l 552 -3 l 552 -11 q 544 -15 544 -11 q 627 -119 544 -27 q 656 -173 656 -160 l 681 -173 q 709 -197 681 -180 q 697 -206 709 -206 q 668 -189 670 -206 l 627 -202 q 486 -98 610 -202 q 394 26 394 12 q 262 -3 376 26 q 54 93 141 -3 q 25 176 25 144 q 0 226 0 210 q 50 433 0 307 q 286 741 62 501 q 481 873 353 797 l 486 873 l 469 857 l 477 857 q 789 968 575 916 l 813 972 m 681 923 l 681 915 q 714 931 703 915 l 709 931 q 681 923 693 923 m 635 902 l 635 898 l 648 898 q 677 911 648 908 l 677 915 l 668 915 q 635 902 640 902 m 456 749 l 460 749 l 564 811 l 556 811 q 456 749 464 766 m 668 690 l 677 690 l 677 678 l 668 678 l 668 690 m 295 637 l 257 591 l 257 583 l 262 583 q 303 637 262 588 l 295 637 m 714 591 q 664 396 714 534 l 672 396 q 722 529 722 475 q 718 541 722 533 l 722 566 l 722 570 l 718 591 l 714 591 m 203 553 l 203 545 q 233 578 209 545 l 233 583 q 203 553 227 583 m 166 496 l 166 491 q 174 500 174 491 l 174 504 q 166 496 166 503 m 145 458 l 145 454 q 153 463 153 454 l 153 467 q 145 458 145 465 m 589 404 q 465 234 589 390 l 473 234 q 581 367 568 309 q 597 400 585 367 l 589 404 m 37 338 l 37 334 l 41 334 q 62 396 41 339 q 37 338 50 394 m 112 317 l 120 317 q 129 363 120 324 q 112 317 117 363 m 648 342 l 648 338 q 664 363 664 346 q 648 342 659 362 m 639 334 l 635 317 q 648 334 642 317 l 639 334 m 92 238 l 92 197 q 108 138 92 179 l 120 138 l 120 159 q 100 246 100 198 q 92 238 92 245 m 556 246 q 540 222 556 243 l 540 218 l 544 218 q 560 246 544 222 l 556 246 m 71 226 l 66 205 l 66 189 q 75 180 68 180 l 79 189 l 79 226 l 71 226 m 79 138 q 112 93 79 109 l 112 101 l 83 138 l 79 138 m 125 118 q 141 97 136 97 l 145 97 q 153 105 153 97 q 137 122 147 105 q 125 118 129 118 m 182 105 l 178 97 q 208 76 178 92 l 229 76 l 249 81 l 249 89 q 182 105 237 89 m 307 76 l 311 76 l 340 85 l 340 93 q 307 76 307 85 m 182 47 l 182 43 q 212 31 185 31 q 253 39 222 31 l 253 43 l 233 47 l 195 43 q 182 47 187 47 m 407 39 q 452 -32 435 -32 l 456 -32 l 456 -28 q 411 39 433 14 l 407 39 m 577 -119 l 577 -127 q 589 -140 577 -133 l 593 -140 l 593 -136 q 577 -119 591 -123 z "},"r":{"ha":628,"x_min":-33,"x_max":1027,"o":"m 355 973 l 359 973 l 355 965 l 355 948 q 408 973 408 958 l 433 969 q 549 973 496 973 l 553 973 q 747 882 634 973 q 776 812 769 844 l 776 771 q 730 643 762 686 q 648 540 713 627 l 644 540 l 644 548 l 656 564 l 648 564 q 317 374 503 440 q 227 362 271 362 q 441 180 286 294 q 640 53 458 173 q 1003 -154 791 -41 l 1003 -158 l 986 -158 q 945 -137 945 -142 l 937 -142 l 928 -142 q 924 -137 924 -142 q 900 -166 909 -141 q 924 -182 924 -174 q 908 -191 914 -191 l 887 -186 l 887 -191 q 900 -199 887 -199 l 900 -212 l 896 -212 q 710 -104 886 -212 q 404 90 585 -41 q 186 251 345 117 l 173 251 q 111 73 149 214 q 28 -22 103 40 l 20 -22 l 12 -9 l 12 -5 q 24 32 12 5 l 24 36 l 20 36 q -29 -1 19 25 l -33 -1 l -33 7 q 169 568 111 437 q 268 829 268 795 q 169 771 245 829 l 161 771 l 165 779 l 165 787 q 62 713 142 787 l 58 713 l 58 718 l 111 779 l 119 791 l 119 795 l 111 795 l 62 754 q 54 762 54 754 q 243 907 131 848 q 347 969 347 933 l 355 973 m 730 857 l 730 853 q 739 845 732 845 l 739 849 q 730 857 739 857 m 248 461 l 252 461 q 326 486 326 476 q 321 498 321 494 q 532 606 479 552 q 598 676 538 606 l 602 676 l 602 672 q 594 651 594 659 l 598 651 q 652 742 652 692 l 652 767 q 640 775 640 767 q 661 795 661 779 q 578 837 661 817 q 433 853 511 853 q 355 709 393 853 q 248 461 338 691 m 297 812 l 297 808 q 309 821 303 808 l 309 825 q 297 812 303 825 m 301 734 l 305 734 q 317 758 317 738 q 301 734 311 758 m 689 718 l 689 709 q 701 722 695 709 l 701 726 l 697 726 q 689 718 689 724 m 243 441 l 243 437 l 252 437 q 264 441 260 441 l 264 437 q 384 477 364 454 l 380 477 q 243 441 289 456 m 227 399 l 231 399 l 305 416 l 301 424 q 227 399 227 414 m 392 143 l 392 135 q 471 85 456 85 q 454 106 454 96 l 392 143 m 511 53 q 536 36 516 36 l 541 36 l 541 40 q 516 53 531 40 l 511 53 m 780 -96 q 879 -154 812 -125 l 883 -146 q 788 -96 832 -115 l 780 -96 m 1007 -162 l 1019 -162 q 1027 -170 1027 -163 q 1019 -182 1019 -170 l 1011 -182 l 1015 -174 l 1015 -170 l 1007 -170 l 1007 -162 z "},"s":{"ha":585,"x_min":-166,"x_max":756,"o":"m 748 973 l 756 973 l 756 966 q 571 899 711 954 l 571 895 l 578 895 q 634 903 626 903 l 638 895 q 488 836 500 836 l 488 827 l 500 827 q 563 847 509 836 l 563 843 q 389 760 558 838 q 243 677 264 701 l 243 674 q 263 654 245 663 q 433 677 380 677 l 460 677 q 512 670 494 677 q 528 674 519 674 l 543 674 q 602 654 543 654 l 606 646 q 595 642 599 642 q 638 611 595 634 l 646 583 l 646 555 q 524 406 631 497 q 382 288 515 406 q 193 122 241 153 l 193 126 l 204 142 l 204 146 l 137 94 l 137 87 q 173 106 161 106 q -52 -56 43 0 l -60 -52 q -127 -87 -93 -74 q -162 -63 -161 -70 q -75 12 -76 6 l -75 24 l -79 24 q -158 -24 -100 24 q -166 -16 -166 -24 q 232 292 -9 110 q 472 505 380 416 l 480 540 l 480 548 q 452 568 480 556 q 216 512 362 568 l 212 512 l 212 520 q 248 540 229 520 l 248 544 q 180 536 197 536 q 161 559 170 536 q 98 603 134 559 q 307 831 98 733 q 480 918 319 848 q 748 973 646 973 m 323 749 l 330 749 q 484 820 338 749 l 484 827 q 323 749 456 827 m 189 658 l 189 646 l 200 646 l 200 650 q 193 658 200 658 l 189 658 m 153 627 l 153 611 q 173 595 155 603 l 173 599 q 161 627 161 616 l 153 627 m 189 627 l 189 623 q 240 595 211 595 l 243 595 l 243 603 q 197 627 205 627 l 189 627 m 555 614 l 551 607 q 602 579 561 607 l 602 583 q 559 614 602 614 l 555 614 m 539 591 l 539 587 q 591 551 548 587 l 595 551 l 595 559 q 543 591 585 579 l 539 591 m 528 548 l 528 540 q 535 532 529 532 l 539 532 l 539 540 q 532 548 539 548 l 528 548 m 567 544 l 567 536 q 575 528 568 528 l 575 536 q 567 544 575 544 m -60 47 l -60 39 l -40 39 q 121 161 75 119 l 117 161 q -56 47 113 161 l -60 47 m -127 -52 q -119 -59 -125 -59 q 161 146 -73 -47 l 153 146 q -83 -24 59 83 q -127 -52 -117 -52 m 110 71 l 114 71 q 134 87 132 79 l 130 87 q 110 71 111 79 z "},"t":{"ha":380,"x_min":-162,"x_max":1597,"o":"m 1069 1145 l 1084 1141 q 1142 1145 1118 1145 l 1149 1145 q 1158 1134 1158 1145 l 1261 1134 q 1323 1130 1284 1134 l 1331 1134 l 1354 1130 q 1393 1134 1373 1130 l 1409 1130 q 1459 1134 1434 1134 l 1462 1134 q 1478 1130 1471 1134 q 1489 1134 1485 1134 l 1489 1130 l 1497 1134 l 1516 1134 q 1535 1130 1529 1134 l 1559 1134 l 1578 1134 l 1597 1130 l 1597 1122 l 1462 1122 q 1439 1103 1439 1110 l 1470 1095 l 1470 1088 l 1443 1088 q 1400 1068 1400 1074 l 1409 1068 l 1409 1057 l 1404 1057 q 1400 1061 1400 1057 l 1393 1057 l 1331 1057 q 1215 1045 1295 1045 l 1208 1045 q 1215 1038 1209 1038 l 1261 1038 q 1289 1029 1289 1036 q 1293 1034 1293 1029 l 1339 1029 l 1350 1029 l 1350 1022 l 1261 1022 q 1219 1018 1246 1022 l 1211 1022 q 1149 1018 1172 1018 l 1115 1018 q 1099 1015 1106 1018 q 1096 1018 1096 1015 q 814 1010 1018 1015 q 802 1006 806 1006 q 783 1010 796 1010 l 776 1010 l 752 1006 q 749 1010 749 1006 l 722 1006 l 637 1006 q 621 1003 628 1006 l 614 1006 q 548 910 583 1006 q 316 428 513 861 q 281 347 316 423 q 239 270 281 325 l 243 262 q 220 200 231 255 l 216 200 l 216 208 l 212 208 l 212 193 q 205 161 205 193 l 201 161 l 193 165 l 123 15 q 108 -4 116 -3 l 104 -4 q 96 3 96 -4 l 142 84 l 142 96 q 131 100 138 96 q 69 -8 92 8 l 66 -8 q 58 -1 58 -8 l 39 -4 l 31 -4 l 31 11 l 39 7 l 46 22 l 43 42 l 58 81 q 46 96 48 81 q 231 517 189 426 q 401 891 231 526 q 448 991 401 913 q 428 1003 448 998 l 281 995 l 274 999 q -158 979 160 991 l -162 987 q -155 995 -161 995 l -135 995 q -77 999 -116 995 l -77 1006 q -135 1049 -77 1036 l -135 1061 q 43 1076 -42 1076 l 43 1084 q 23 1091 23 1084 l 23 1099 l 77 1099 q 93 1103 86 1099 q 108 1099 99 1099 l 119 1099 l 119 1103 l 81 1107 l 69 1107 q 58 1103 58 1107 l 39 1107 l 7 1107 q -96 1099 -86 1099 l -104 1111 q -31 1122 -92 1122 l 212 1122 q 228 1126 221 1122 l 235 1122 q 405 1130 387 1126 q 416 1126 409 1130 q 640 1134 486 1130 q 648 1141 642 1141 l 652 1141 l 664 1134 l 679 1134 q 706 1130 701 1134 q 745 1134 726 1134 q 930 1138 804 1134 l 938 1141 q 949 1138 945 1138 q 953 1141 953 1138 l 968 1138 q 1069 1145 1011 1138 m 127 1107 l 127 1099 q 139 1103 135 1103 l 139 1107 l 127 1107 m 459 1099 l 390 1099 q 374 1095 381 1099 q 370 1099 370 1095 q 228 1088 283 1095 l 228 1091 l 220 1088 l 181 1088 l 185 1080 l 205 1084 q 502 1095 282 1084 l 505 1103 l 459 1099 m -104 1045 q -93 1041 -100 1045 q -81 1045 -85 1045 l -81 1041 q -35 1053 -48 1053 l -35 1057 l -58 1057 q -104 1045 -104 1055 m 1154 1041 l 1154 1038 l 1188 1038 l 1188 1041 l 1154 1041 m 328 1018 l 135 1018 q -19 1006 110 1018 q -12 999 -18 999 l 0 999 q 96 1003 39 999 l 112 999 q 220 1010 144 1006 l 247 1006 q 309 1015 302 1010 q 324 1010 315 1010 l 332 1015 q 336 1010 336 1015 q 347 1015 340 1010 l 374 1010 q 428 1015 407 1015 l 428 1018 l 413 1022 q 397 1018 404 1022 q 363 1022 376 1022 q 351 1018 359 1022 q 347 1022 347 1018 l 328 1018 m 555 987 q 536 945 546 959 l 536 937 q 564 987 549 937 l 555 987 m 528 922 q 525 910 528 918 l 525 906 l 528 906 q 532 918 528 910 l 532 922 l 528 922 m 513 891 l 513 883 l 521 883 q 525 899 521 892 l 521 899 q 513 891 513 897 m 475 810 q 471 794 475 801 l 478 794 l 478 810 l 475 810 m 428 713 q 425 698 428 705 l 428 698 q 436 705 436 698 q 428 713 436 713 m 378 602 l 378 590 q 386 597 386 590 l 386 602 l 378 602 m 366 574 l 363 559 q 370 570 370 559 l 370 574 l 366 574 m 151 142 l 146 119 q 158 142 153 119 l 151 142 m 178 119 l 185 119 l 181 100 l 174 100 l 178 119 z "},"u":{"ha":590,"x_min":14,"x_max":784,"o":"m 784 1034 l 784 1027 q 756 968 760 968 l 753 968 l 745 972 q 694 871 694 883 l 710 890 l 713 890 l 713 887 l 683 805 q 733 867 706 805 l 753 887 l 760 887 l 621 595 l 621 591 l 625 591 q 686 692 641 628 l 686 685 q 582 479 628 583 q 430 187 496 323 q 279 9 364 84 q 197 -26 231 -2 l 193 -26 l 193 -18 q 209 -7 209 -18 l 209 -3 l 181 -7 q 50 47 94 7 q 14 184 26 81 q 18 195 18 191 q 14 207 18 199 q 61 420 14 299 q 162 685 71 492 l 267 875 l 279 875 l 275 883 q 321 964 299 911 l 329 964 l 329 957 q 345 976 345 962 q 368 968 351 976 q 224 696 224 709 l 224 692 l 228 692 q 380 961 336 894 l 383 961 l 383 953 l 376 941 l 376 937 q 380 922 376 928 q 263 681 269 704 l 267 681 l 317 751 l 317 743 q 104 199 115 385 q 178 129 132 129 q 321 214 226 129 q 441 413 401 307 q 605 751 566 658 q 621 770 615 770 l 621 762 l 625 762 l 625 766 q 621 782 621 773 q 690 890 644 843 q 756 988 733 988 q 784 1034 777 1034 m 395 988 l 395 976 l 387 976 l 387 980 q 395 988 389 988 m 713 739 l 713 731 q 702 716 708 716 l 702 724 q 713 739 708 739 m 216 681 l 216 677 l 224 677 l 224 688 q 216 681 216 688 m 212 673 q 209 661 212 669 l 216 661 l 216 673 l 212 673 m 255 669 q 248 646 248 648 q 259 665 254 646 l 259 669 l 255 669 m 181 600 q 212 658 186 600 l 209 658 q 181 600 181 624 m 205 615 q 185 560 185 564 l 193 560 q 209 611 209 598 l 209 615 l 205 615 m 554 580 q 543 553 554 572 l 543 549 l 547 549 q 558 564 547 564 l 558 580 l 554 580 m 535 541 q 524 514 524 519 l 524 510 l 527 510 q 539 537 527 513 l 539 541 l 535 541 m 511 494 l 508 479 q 515 490 515 479 l 515 494 l 511 494 m 488 440 l 488 436 q 496 444 496 436 l 496 448 q 488 440 488 446 m 422 300 q 477 409 433 300 l 477 413 q 422 300 470 410 m 108 362 q 92 312 92 332 q 115 358 102 312 l 108 362 m 403 300 q 422 328 408 300 l 422 335 q 403 300 410 335 m 212 121 l 220 121 l 232 129 l 232 121 q 340 207 282 121 l 345 222 q 212 129 243 129 l 212 121 m 64 199 l 64 191 l 68 164 l 73 164 l 73 184 l 68 199 l 64 199 m 77 140 l 77 133 q 108 90 88 101 l 108 94 q 77 140 92 126 m 119 121 l 119 117 q 146 98 131 98 q 119 121 137 115 m 216 94 l 216 90 l 228 90 q 248 98 241 98 l 248 102 l 243 102 q 216 94 232 94 m 73 98 l 73 94 q 80 79 80 85 l 92 79 q 77 98 84 96 l 73 98 m 135 79 l 135 75 q 178 67 167 67 l 197 71 l 197 75 l 158 79 l 135 79 m 73 63 l 73 59 q 151 28 126 28 l 158 28 l 158 32 q 77 63 94 63 l 73 63 m 185 59 l 185 55 l 201 55 l 201 59 l 185 59 m 286 39 l 267 24 l 275 24 q 290 39 281 24 l 286 39 m 174 9 q 170 12 170 9 q 158 9 162 9 l 158 5 l 178 5 q 252 36 227 5 l 248 36 q 174 9 188 9 z "},"v":{"ha":547,"x_min":-7,"x_max":937,"o":"m 920 1033 q 927 1026 927 1031 q 776 875 817 934 l 779 875 q 870 966 784 875 q 927 1009 874 966 l 927 1006 l 934 1009 l 937 1009 l 937 1002 l 884 942 l 887 942 q 904 956 902 956 l 907 956 l 907 952 l 484 495 q 477 481 484 490 l 484 481 q 534 535 484 490 q 672 676 614 623 q 884 899 674 690 l 884 895 q 255 233 604 595 l 53 1 l 50 7 q 73 44 58 25 l 73 47 l 20 -6 l 16 -6 q -7 14 -7 10 q 20 51 -2 25 q 16 64 20 58 q 43 155 30 90 q 252 717 144 479 q 288 801 281 777 l 292 801 l 298 798 q 339 885 330 876 l 342 885 l 342 878 q 336 858 342 869 q 339 848 336 854 q 309 764 319 781 l 309 757 l 312 757 l 376 912 l 382 912 l 382 909 q 376 882 376 887 q 382 875 382 880 l 372 848 l 379 844 q 386 858 379 858 l 386 851 l 376 814 q 379 804 379 808 q 174 276 238 484 l 178 276 q 601 741 335 469 q 833 993 640 779 q 870 1026 861 1024 q 877 1019 877 1025 q 753 888 753 903 q 850 986 820 948 l 853 986 q 863 983 860 983 l 920 1033 m 853 916 q 846 909 853 909 l 846 902 q 860 916 852 902 l 853 916 m 399 851 l 399 844 q 379 811 384 811 l 379 818 q 399 851 395 851 m 362 818 l 262 579 l 262 576 l 269 576 q 366 804 353 780 l 366 818 l 362 818 m 625 720 l 625 717 q 645 737 629 717 l 642 737 q 625 720 637 737 m 594 690 q 581 673 581 675 l 585 673 l 597 690 l 594 690 m 248 542 q 211 451 218 463 l 211 441 l 214 441 l 252 538 l 252 542 l 248 542 m 433 485 l 436 485 q 453 502 441 485 l 450 502 l 433 485 m 208 495 q 201 471 201 473 q 211 492 208 471 l 211 495 l 208 495 m 191 451 l 164 370 l 164 367 l 168 367 q 194 448 168 375 l 194 451 l 191 451 m 312 357 l 312 351 q 403 448 361 396 l 403 451 q 315 357 398 451 l 312 357 m 178 370 q 123 229 178 353 l 123 222 q 184 370 135 222 l 178 370 m 285 323 l 292 323 q 302 334 292 334 l 302 340 q 285 323 297 340 m 111 276 l 111 273 l 113 273 q 127 307 119 298 l 127 310 q 111 276 120 310 m 269 307 q 238 267 238 276 q 275 303 271 303 l 275 307 l 269 307 m 107 270 l 104 253 q 111 263 111 253 l 111 270 l 107 270 m 218 246 l 224 246 q 235 263 224 252 l 231 263 q 218 246 224 261 m 188 216 l 188 212 l 194 212 q 197 222 194 216 l 194 222 q 188 216 188 222 m 151 172 l 151 169 q 161 179 155 169 l 161 182 q 151 172 156 182 m 73 54 l 73 51 l 80 51 l 90 64 l 90 68 q 73 54 78 54 z "},"w":{"ha":953,"x_min":-18,"x_max":1281,"o":"m 1281 1006 q 1263 987 1281 1001 l 1259 987 l 1259 991 q 1281 1006 1267 1006 m 1252 984 l 1256 984 q 1180 897 1230 951 l 1180 893 q 1252 944 1228 924 l 1252 941 q 1111 778 1162 845 l 1075 741 l 1072 741 l 1072 745 q 1093 774 1072 749 l 1089 774 q 966 629 1038 727 l 970 629 q 1017 687 976 629 l 1046 713 l 1050 713 q 952 586 952 596 q 1227 886 1161 830 l 1249 904 l 1252 904 l 1252 897 q 1111 741 1179 828 q 659 149 867 467 q 554 -11 554 -7 q 532 -36 547 -11 l 536 -54 l 528 -58 q 500 -43 517 -58 l 500 -47 l 503 -54 q 492 -83 500 -83 q 478 -3 482 -83 q 471 40 473 -3 l 474 40 q 460 246 460 96 l 456 253 q 460 257 456 257 l 456 293 l 456 398 l 449 398 q 174 119 444 398 l 1 -40 l -3 -40 l -3 -36 q 40 11 -3 -29 l 40 14 l 33 14 q 7 -3 14 -3 q -18 18 -9 2 q 18 123 0 18 q 73 275 39 172 l 73 282 l 69 282 q -10 73 40 220 l -18 73 l -18 76 q 163 492 6 191 l 344 850 q 409 941 385 941 l 413 933 q 355 821 377 880 q 362 814 362 820 q 348 781 348 785 l 348 774 l 351 774 q 435 926 387 858 l 438 926 l 431 911 l 435 890 q 322 684 405 848 q 214 459 283 616 l 214 456 l 218 456 q 463 915 218 470 l 471 915 l 471 911 q 294 578 458 880 l 294 572 l 297 572 q 333 637 297 579 l 340 637 l 340 633 q 113 184 202 393 l 116 184 q 268 344 121 184 q 539 593 390 460 l 547 593 q 511 557 547 589 l 511 553 l 539 572 q 554 441 548 572 l 554 420 q 557 405 554 412 q 554 387 554 399 l 557 361 q 554 358 557 358 l 557 322 l 557 296 q 561 217 557 271 q 680 383 581 232 q 948 702 917 674 l 948 698 q 920 659 925 670 l 923 659 q 1013 781 970 704 q 1183 969 1067 836 l 1198 980 l 1202 980 l 1208 977 q 1165 941 1208 966 l 1075 832 l 1075 828 q 1100 843 1100 828 q 1107 854 1100 854 l 1111 854 l 1118 850 q 1140 876 1130 876 q 1176 919 1140 892 q 1252 984 1179 933 m 1129 825 l 1129 817 l 1133 817 q 1154 843 1137 817 l 1154 846 q 1129 825 1129 829 m 1097 789 l 1097 781 l 1100 781 q 1122 810 1122 795 l 1118 810 q 1097 789 1113 810 m 1050 789 l 1046 774 l 1053 774 l 1057 789 l 1050 789 m 315 741 q 272 651 279 676 q 304 716 283 651 q 319 738 311 716 l 319 741 l 315 741 m 981 738 l 981 734 q 974 727 981 727 l 974 730 q 981 738 975 738 m 359 684 l 366 684 l 366 680 q 344 648 352 648 l 344 654 q 359 684 359 675 m 565 188 l 572 188 q 916 648 715 400 l 916 654 q 734 431 866 602 q 565 188 625 288 m 865 485 l 865 481 q 941 572 892 504 l 941 575 q 865 485 934 572 m 507 543 l 507 539 l 517 539 l 517 546 q 507 543 511 543 m 536 510 l 536 503 l 543 459 l 547 459 l 539 510 l 536 510 m 836 448 l 836 445 q 865 477 857 460 l 861 477 q 836 448 857 477 m 543 434 l 543 401 l 547 401 l 547 434 l 543 434 m 543 387 l 543 351 l 547 351 l 547 387 l 543 387 m 514 351 l 514 300 q 522 203 517 212 l 525 203 l 525 206 l 522 214 q 525 217 522 217 l 522 231 q 517 351 517 330 l 514 351 m 543 336 l 543 286 q 550 279 544 279 l 550 336 l 543 336 m 333 315 q 319 296 333 307 l 319 293 q 340 315 338 302 l 333 315 m 669 231 q 633 177 642 185 l 633 174 l 637 174 q 673 231 661 197 l 669 231 m 481 220 l 481 184 l 485 184 l 485 220 l 481 220 m 105 83 l 109 83 q 235 206 149 114 l 232 206 q 105 83 106 88 m 522 195 l 522 177 l 525 177 l 525 195 l 522 195 m 522 166 l 522 130 l 525 112 l 528 112 l 528 123 l 525 166 l 522 166 m 69 98 l 77 98 q 127 155 77 105 l 127 159 l 123 159 q 69 98 81 122 m 528 36 l 528 14 l 532 14 l 536 33 l 536 36 l 528 36 m 514 18 l 514 -3 q 522 3 522 -3 q 517 18 517 10 l 514 18 m 496 11 l 496 -29 q 503 -36 497 -36 l 503 11 l 496 11 z "},"x":{"ha":585,"x_min":-334,"x_max":1071,"o":"m 1037 971 q 1067 968 1052 968 l 1071 968 l 1071 964 q 1037 949 1071 955 l 1037 941 q 1071 949 1061 949 q 1041 900 1053 900 l 1037 900 l 1037 907 l 1022 907 q 962 882 1000 892 l 962 874 l 966 866 q 891 833 897 833 l 891 825 q 970 848 935 840 l 970 844 q 861 777 942 817 q 408 462 755 711 q 340 420 408 456 q 280 334 291 384 q 164 87 280 329 q 56 -33 122 -1 q 25 -78 56 -45 l 18 -78 l 18 -75 q 63 20 63 -7 l 59 20 q 22 -26 55 20 l 7 -3 q 89 188 7 4 q 123 267 123 244 q -180 42 -52 134 q -275 1 -255 1 l -293 5 q -334 -18 -330 -18 l -334 -14 q -244 53 -306 16 l -244 60 q -300 31 -267 54 l -304 38 q -271 83 -271 79 l -275 83 q -297 76 -281 83 l -300 83 l 183 431 q 262 548 215 431 q 449 882 387 808 q 501 953 496 952 l 501 945 q 441 836 448 854 q 498 915 452 843 l 539 941 l 543 941 l 543 937 q 471 818 471 832 l 479 814 q 554 926 494 850 l 554 919 q 434 698 477 785 q 490 780 441 698 l 498 780 l 498 772 q 400 600 434 671 l 400 585 q 808 859 558 694 q 1037 971 974 971 m 1015 964 l 1007 953 l 1015 953 q 1022 960 1022 953 l 1015 964 m 936 919 l 943 919 q 981 941 981 937 q 977 945 977 941 q 936 919 962 941 m 936 892 l 943 892 q 1000 919 953 892 l 1000 922 l 992 922 q 936 892 936 897 m 835 859 l 842 859 q 910 900 903 900 l 910 904 l 906 904 q 835 859 851 878 m 760 818 l 760 810 q 786 821 779 821 l 786 829 q 760 818 768 818 m 404 570 l 408 570 q 741 799 509 633 l 741 803 q 404 570 458 617 m 441 765 l 449 765 q 456 784 449 772 l 452 784 q 441 765 444 784 m 415 488 l 419 488 q 677 664 522 553 q 854 780 844 780 l 854 784 l 846 784 q 633 645 766 741 q 415 488 486 547 m 434 758 q 412 713 434 753 l 412 709 q 441 758 429 724 l 434 758 m 100 357 l 100 353 l 104 353 q 205 428 175 400 l 205 431 q 100 357 199 431 m 56 323 l 59 323 q 78 334 71 334 l 78 342 q 56 323 56 328 m -102 210 l -102 207 q -94 214 -94 207 l -94 218 q -102 210 -102 217 m -188 147 l -184 147 q -128 188 -146 163 l -132 188 q -188 147 -188 151 z "},"y":{"ha":539,"x_min":-389,"x_max":932,"o":"m 258 982 l 266 982 q 273 964 266 973 q 269 890 269 901 l 269 879 l 273 879 l 292 975 l 299 975 l 299 956 q 295 953 299 953 l 299 945 q 295 942 299 942 q 299 930 299 935 l 302 930 l 306 975 l 313 975 q 317 953 313 958 q 313 949 317 949 q 317 942 313 942 q 288 482 302 822 l 288 475 l 284 456 l 288 456 q 582 739 296 456 q 840 953 736 878 l 840 949 q 803 905 825 937 q 770 876 776 876 l 773 868 q 380 482 520 629 l 383 482 l 696 769 q 806 861 780 844 l 810 861 q 770 817 810 857 l 770 813 l 850 876 l 854 876 q 770 802 830 847 l 773 795 q 696 710 731 761 q 692 713 696 713 q 648 669 680 686 q 498 530 642 669 l 498 526 l 505 526 q 468 489 505 521 q 465 493 465 489 q 376 405 455 493 l 376 401 q 391 393 391 401 q 210 217 391 387 q -180 -162 -111 -127 q -253 -232 -241 -228 q -260 -224 -260 -232 q -245 -210 -255 -224 l -245 -206 q -309 -243 -293 -243 q -319 -239 -315 -239 q -371 -280 -319 -243 l -389 -280 l -389 -276 q -330 -224 -332 -231 l -338 -224 q -371 -243 -360 -243 l -374 -235 q -220 -92 -352 -235 l -224 -92 q -297 -159 -291 -158 q -301 -155 -297 -155 q 5 158 -301 -147 q 159 316 156 316 q 174 346 165 326 q 170 349 174 349 q 203 780 178 414 l 210 780 l 210 777 q 203 640 210 748 l 203 633 l 207 633 q 258 982 225 772 m 928 960 l 932 960 q 924 953 932 953 l 920 953 q 928 960 922 960 m 909 945 l 913 945 q 832 876 911 939 l 829 876 l 829 879 q 909 945 830 884 m 825 876 l 825 872 q 818 865 825 865 l 814 865 q 825 876 814 870 m 747 798 l 751 798 q 762 802 758 802 l 762 809 l 759 809 q 747 798 753 809 m 509 508 l 509 504 q 453 449 509 501 l 450 449 q 509 508 473 484 m 365 471 l 361 463 q 372 467 368 467 l 372 471 l 365 471 m 332 434 l 336 434 q 354 452 340 434 l 351 452 q 332 434 345 452 m 357 386 l 361 386 q 376 390 368 390 l 372 397 q 357 386 357 392 m 336 364 l 336 360 l 339 360 q 351 372 345 360 l 351 375 l 347 375 q 336 364 341 375 m -66 -7 q -80 -26 -66 -13 l -80 -30 l -77 -30 q -62 -11 -77 -24 l -62 -7 l -66 -7 m -113 -59 l -110 -59 q -98 -48 -104 -59 l -102 -48 q -113 -59 -108 -48 z "},"z":{"ha":715,"x_min":-49,"x_max":1175,"o":"m 895 977 q 916 947 895 968 q 770 823 901 928 q 395 408 500 559 l 144 102 l 144 99 l 148 99 q 844 150 700 150 l 850 153 q 854 150 854 153 q 1036 157 972 157 l 1036 150 l 1022 150 q 930 146 991 150 l 930 139 l 1000 139 q 1015 142 1008 139 q 1029 139 1021 139 q 1135 135 1041 139 l 1135 128 l 1098 124 q 1084 128 1090 124 q 1080 124 1080 128 q 1058 128 1078 124 q 1011 124 1056 128 q 1018 117 1012 117 l 1044 117 q 1058 121 1052 117 q 1105 102 1074 121 l 1124 102 l 1124 99 q 1055 84 1124 88 l 1055 81 l 1091 81 q 1098 73 1098 79 l 1098 70 q 515 22 980 70 l 515 15 q 545 19 536 19 q 774 30 602 19 l 774 26 l 781 30 l 789 30 q 956 41 838 30 l 964 37 q 1084 44 1007 44 l 1124 44 l 1145 48 q 1164 44 1152 44 l 1175 44 l 1175 37 l 1171 37 q 1139 33 1158 37 l 1131 37 q 1120 33 1124 33 l 1120 37 l 1113 33 l 1087 33 l 1065 30 l 1058 33 q 486 1 645 1 q 475 -3 479 -3 l 475 1 l 469 -3 l 443 -3 q 191 -7 353 -3 q 180 -3 184 -3 q 162 -7 174 -7 q 111 -3 157 -7 l 104 -7 l 97 -3 q 57 -7 72 -7 l 31 -3 l 2 -3 l 2 7 l -31 7 q -38 15 -38 7 q -31 22 -31 15 l -49 44 q -9 92 -38 77 q 621 805 105 249 q 676 867 668 846 l 650 871 l 526 871 q 250 867 428 871 l 243 863 q 228 867 236 867 l 203 867 l 203 874 l 217 874 q 661 903 245 886 l 661 911 l 643 907 l 618 907 q 614 911 614 907 l 607 907 l 388 897 q 374 900 382 900 q 341 897 354 897 l 341 900 l 334 897 l 206 897 q 199 903 199 897 l 199 907 l 228 907 q 308 911 254 907 l 308 915 l 257 915 q 243 918 249 915 q 228 915 236 915 l 206 915 l 188 918 l 188 926 l 217 926 l 214 932 l 214 937 l 257 937 l 275 940 l 275 943 l 246 943 l 246 951 l 283 951 q 355 955 315 951 q 381 951 370 951 l 381 943 l 330 943 l 304 940 l 304 937 l 319 937 q 392 940 342 937 l 388 947 l 388 951 q 865 972 469 962 l 876 972 l 895 977 m 687 911 l 687 907 l 712 907 l 712 911 l 687 911 m 785 897 l 785 892 l 792 892 q 804 897 800 897 l 804 900 l 800 900 q 785 897 793 897 m 829 900 l 829 889 l 836 889 q 847 900 842 889 l 829 900 m 741 820 q 752 817 745 820 q 810 871 752 823 l 810 874 q 741 820 786 874 m 720 842 l 720 838 l 727 838 l 760 867 l 760 871 l 756 871 l 720 842 m 650 791 l 658 791 q 723 857 658 800 l 727 863 l 723 863 q 650 791 650 800 m 592 736 l 592 729 q 647 783 647 778 l 647 787 q 595 736 640 785 l 592 736 m 647 132 l 629 132 l 629 124 l 647 128 l 665 128 q 745 132 690 128 l 745 135 l 701 135 l 676 132 l 669 135 l 647 132 m 469 117 l 469 113 l 479 113 q 625 124 599 124 l 625 128 q 607 132 612 128 l 469 117 m 392 110 l 392 106 l 414 106 q 465 113 421 106 l 465 117 l 461 117 l 392 110 m 315 59 l 315 55 l 337 55 q 847 102 408 55 l 847 106 l 836 106 q 315 59 480 84 m 257 92 l 260 92 l 279 95 l 279 99 l 264 99 q 257 92 257 98 m 243 22 l 243 19 l 268 19 q 770 62 368 19 l 770 59 l 778 62 q 956 77 888 66 l 956 81 l 949 81 q 246 22 761 70 l 243 22 z "}}}
